<?xml version="1.0" encoding="UTF-8"?>
<svg width="524px" height="188px" viewBox="0 0 524 188" version="1.1" xmlns="http://www.w3.org/2000/svg" xmlns:xlink="http://www.w3.org/1999/xlink">
    <!-- Generator: Sketch 53.2 (72643) - https://sketchapp.com -->
    <title>2018</title>
    <desc>Created with Sketch.</desc>
    <g id="Page-1" stroke="none" stroke-width="1" fill="none" fill-rule="evenodd" fill-opacity="0">
        <g id="home_desktop-2of2" transform="translate(-110.000000, -12064.000000)" fill="#FFFFFF" fill-rule="nonzero" stroke="#BBBBBB" stroke-width="2.5">
            <g id="Section-31---2018" transform="translate(0.000000, 11695.000000)">
                <path d="M238.046,527.338 L238.046,553 L115.742,553 L124.751,543.991 C143.315093,525.426907 157.783948,510.412057 168.158,498.946 C178.532052,487.479943 187.222465,475.877559 194.2295,464.1385 C201.236535,452.399441 204.74,441.252053 204.74,430.696 C204.74,419.593944 201.464033,411.131029 194.912,405.307 C188.359967,399.482971 180.352047,396.571 170.888,396.571 C163.425963,396.571 157.192525,398.117985 152.1875,401.212 C147.182475,404.306015 143.542511,408.218976 141.2675,412.951 C138.992489,417.683024 137.855,422.414976 137.855,427.147 C137.855,438.795058 141.403965,448.349963 148.502,455.812 L132.395,470.554 C126.38897,466.913982 121.520519,460.771543 117.7895,452.1265 C114.058481,443.481457 112.193,435.337038 112.193,427.693 C112.193,417.68295 114.695475,408.355543 119.7005,399.7105 C124.705525,391.065457 131.939953,384.149526 141.404,378.9625 C150.868047,373.775474 162.151934,371.182 175.256,371.182 C186.358056,371.182 196.231457,373.775474 204.8765,378.9625 C213.521543,384.149526 220.209976,391.110956 224.942,399.847 C229.674024,408.583044 232.04,418.137948 232.04,428.512 C232.04,438.886052 229.583025,449.259948 224.669,459.634 C219.754975,470.008052 213.703536,479.744955 206.5145,488.845 C199.325464,497.945045 189.72506,509.228933 177.713,522.697 L173.618,527.338 L238.046,527.338 Z M330.608826,553.819 C315.866752,553.819 302.808383,550.133537 291.433326,542.7625 C280.058269,535.391463 271.185858,524.790069 264.815826,510.958 C258.445794,497.125931 255.260826,480.928093 255.260826,462.364 C255.260826,432.697852 261.949259,410.084578 275.326326,394.5235 C288.703393,378.962422 307.130709,371.272999 330.608826,371.455 C345.3509,371.455 358.409269,375.094964 369.784326,382.375 C381.159383,389.655036 390.031794,400.210931 396.401826,414.043 C402.771858,427.875069 405.956826,443.981908 405.956826,462.364 C405.956826,481.292095 402.771858,497.671931 396.401826,511.504 C390.031794,525.336069 381.159383,535.891964 369.784326,543.172 C358.409269,550.452036 345.3509,554.001001 330.608826,553.819 Z M330.335826,528.43 C345.805903,528.43 357.681285,522.42406 365.962326,510.412 C374.243367,498.39994 378.474825,482.202102 378.656826,461.818 C378.474825,441.979901 374.243367,426.191559 365.962326,414.4525 C357.681285,402.713441 345.805903,396.844 330.335826,396.844 C315.04775,396.844 303.308867,402.758941 295.118826,414.589 C286.928785,426.419059 282.742827,442.3439 282.560826,462.364 C282.742827,482.566101 286.928785,498.62744 295.118826,510.5485 C303.308867,522.46956 315.04775,528.43 330.335826,528.43 Z M473.130652,373.366 L473.130652,553 L446.376652,553 L446.376652,398.755 L425.901652,398.755 L425.901652,373.366 L473.130652,373.366 Z M504.814478,496.216 C504.814478,483.657937 508.272443,472.965544 515.188478,464.1385 C522.104513,455.311456 530.38543,448.89602 540.031478,444.892 C534.025448,441.069981 529.384494,436.565526 526.108478,431.3785 C522.832462,426.191474 521.194478,419.867037 521.194478,412.405 C521.194478,404.578961 523.241958,397.526531 527.336978,391.2475 C531.431998,384.968469 537.073942,380.054518 544.262978,376.5055 C551.452014,372.956482 559.505433,371.182 568.423478,371.182 C577.159522,371.182 585.167442,372.956482 592.447478,376.5055 C599.727514,380.054518 605.460457,384.87747 609.646478,390.9745 C613.832499,397.07153 615.925478,403.850963 615.925478,411.313 C615.925478,419.139039 614.287494,425.645474 611.011478,430.8325 C607.735462,436.019526 603.003509,440.705979 596.815478,444.892 C606.643527,449.078021 615.015443,455.584456 621.931478,464.4115 C628.847513,473.238544 632.305478,483.839938 632.305478,496.216 C632.305478,506.590052 629.484506,516.281455 623.842478,525.2905 C618.20045,534.299545 610.465527,541.533973 600.637478,546.994 C590.809429,552.454027 579.980537,555.184 568.150478,555.184 C556.320419,555.184 545.582526,552.499527 535.936478,547.1305 C526.29043,541.761473 518.692006,534.527045 513.140978,525.427 C507.58995,516.326955 504.814478,506.590052 504.814478,496.216 Z M546.856478,415.408 C546.856478,421.050028 549.085956,425.87298 553.544978,429.877 C558.004,433.88102 563.145449,435.883 568.969478,435.883 C574.793507,435.883 579.843957,433.88102 584.120978,429.877 C588.397999,425.87298 590.536478,421.050028 590.536478,415.408 C590.536478,409.037968 588.443499,403.760021 584.257478,399.574 C580.071457,395.387979 574.975508,393.295 568.969478,393.295 C562.963448,393.295 557.7765,395.387979 553.408478,399.574 C549.040456,403.760021 546.856478,409.037968 546.856478,415.408 Z M531.841478,495.124 C531.841478,501.858034 533.479462,508.091471 536.755478,513.8245 C540.031494,519.557529 544.44495,524.152983 549.995978,527.611 C555.547006,531.069017 561.598445,532.798 568.150478,532.798 C574.884512,532.798 581.117949,531.069017 586.850978,527.611 C592.584007,524.152983 597.179461,519.557529 600.637478,513.8245 C604.095495,508.091471 605.824478,501.858034 605.824478,495.124 C605.824478,488.389966 604.186494,482.202028 600.910478,476.56 C597.634462,470.917972 593.130007,466.413517 587.396978,463.0465 C581.663949,459.679483 575.430512,457.996 568.696478,457.996 C562.144445,457.996 556.047506,459.633984 550.405478,462.91 C544.76345,466.186016 540.258995,470.690471 536.891978,476.4235 C533.524961,482.156529 531.841478,488.389966 531.841478,495.124 Z" id="2018"></path>
            </g>
        </g>
    </g>
</svg>