<svg height="55" viewBox="0 0 263 55" width="263" xmlns="http://www.w3.org/2000/svg"><path d="m135.932617 363.724609c.195314-.016276.398762-.032552.610352-.048828.455731-.016276.911456-.065104 1.367187-.146484 2.832046-.50456 5.509428-1.595044 8.032227-3.271485 1.88803-1.269537 3.662101-2.685539 5.322265-4.248046 1.774098-1.676441 3.438306-3.430167 4.992676-5.261231s3.039544-3.723135 4.455567-5.676269c.08138-.113933.118001-.24414.109863-.390625s-.134276-.203451-.378418-.170899c-2.783217.732426-5.541979 1.586909-8.276367 2.563477-1.790374.651045-3.564445 1.34277-5.322266 2.075195-1.757821.732426-3.49934 1.54622-5.224609 2.441406-2.001963 1.00912-3.930655 2.172845-5.786133 3.491211-.927739.667321-1.782223 1.416012-2.563477 2.246094-.732425.79753-1.293943 1.684565-1.68457 2.661133-.537112 1.399746-.203456 2.416989 1.000977 3.051758.113932.065104.227864.12207.341797.170898.048828.016276.105793.032552.170898.048828.439455.195314.89518.321452 1.367187.378418.472008.056967.960284.085449 1.464844.085449zm.708008 1.660157c-3.564471 0-5.647783-1.293933-6.25-3.881836-.081381-.374351-.12207-.740558-.12207-1.098633 0-.79753.187172-1.58691.561523-2.368164 1.399747-3.011083 5.387337-6.030258 11.962891-9.057617 5.7943-2.718113 11.718719-4.793287 17.773437-6.225586l.610352-.122071c.667321-.08138 1.180011-.260415 1.538086-.537109.423179-.406903.846352-.960283 1.269531-1.660156 3.027359-4.622419 4.541016-6.998698 4.541016-7.128906 0-.130209-.056966-.195313-.170899-.195313-.08138 0-.683588.358069-1.80664 1.074219-5.306017 3.531918-10.058573 6.315094-14.257813 8.349609-5.306016 2.555351-9.537745 3.833008-12.695312 3.833008-.341799 0-.675455-.008138-1.000977-.024414-1.253261-.065105-2.278642-.48014-3.076172-1.245117-.960291-.895187-1.44043-2.164706-1.44043-3.808594 0-1.106776.292966-2.368157.878907-3.78418.569664-1.269537 1.277665-2.48209 2.124023-3.637695 2.09962-2.864598 4.492174-5.476876 7.177734-7.836914 5.761748-5.126979 12.101203-9.2285 19.018555-12.304688 2.294934-1.057948 4.646798-1.814776 7.055664-2.270507.651045-.130209 1.285804-.195313 1.904297-.195313.602217 0 1.196286.097655 1.782227.292969 1.432299.50456 2.376299 1.472974 2.832031 2.905273.179037.569665.268555 1.147458.268555 1.733399 0 .618492-.097656 1.253252-.292969 1.904297l-.463867 1.440429c-.227866.618493-.496418.968424-.805664 1.049805-.146485 0-.252279-.048828-.317383-.146484-.162761-.227866-.244141-.48828-.244141-.78125 0-.341799.260414-1.220696.78125-2.636719.162761-.585941.244141-1.171872.244141-1.757813 0-.992843-.439449-1.668292-1.31836-2.026367-.634768-.260418-1.293941-.390625-1.977539-.390625-.358074 0-.716144.032552-1.074218.097656-3.304053.585941-6.925436 1.912425-10.864258 3.979493-5.403673 2.832045-10.327126 6.1686-14.770508 10.009765-3.206396 2.718113-5.948882 5.688461-8.227539 8.911133-.927739 1.318366-1.619464 2.636712-2.075195 3.955078-.309247.911463-.463868 1.757809-.463868 2.539063 0 1.497403 1.114898 2.294921 3.344727 2.392578 2.587904 0 5.680321-.732415 9.277344-2.197266 5.159531-2.083344 10.424778-4.915347 15.795898-8.496094l2.319336-1.538086c1.546232-1.041671 2.734371-1.7985 3.564453-2.270507.195314-.081381.374348-.122071.53711-.122071.309246 0 .577798.146483.805664.439453.227865.292971.341797.61035.341797.952149 0 .472007-.716139 1.855457-2.148438 4.150391-2.376314 3.743508-3.564453 5.63151-3.564453 5.664062 0 .179037.138345.268555.415039.268555h.244141c.179037-.016276.358072-.04069.537109-.073243 4.020202-.781253 7.03124-1.171874 9.033203-1.171874.651045 0 1.009114.048827 1.074219.146484v.024414c0 .341799-1.310208.805661-3.930664 1.391602-1.546232.341798-3.816717.781247-6.811524 1.318359-.813806.146485-1.359048.252278-1.635742.317383-.439455.097656-.781249.325519-1.02539.683593-2.81577 3.759785-4.43522 5.908201-4.858399 6.445313-3.662128 4.654971-7.503235 8.33332-11.523437 11.035156-2.441419 1.676441-5.045559 2.807614-7.8125 3.393555-.585941.113933-1.171872.187174-1.757813.219726zm45.785359-28.540039c.211589 0 .455727.056965.732422.170898.195313.081381.415037.252277.659179.512695.29297.390627.439453.748697.439453 1.074219v.097656c0 .358075-.179034.675455-.537109.952149-.520836.325522-1.041664.602212-1.5625.830078-.374351.162761-.862627.32552-1.464844.488281-.764978.162761-1.375323.244141-1.831054.244141-.50456 0-.911457-.089518-1.220704-.268555h-.073242c-.195313.081381-.610348.415036-1.245117 1.000977-.29297.341798-.504557.602212-.634766.78125-.37435.569664-.561523.984699-.561523 1.245117 0 .309246.170897.520833.512695.634765.309247.065105.65104.097657 1.025391.097657.944015 0 2.685534-.309242 5.224609-.927735 2.425143-.667321 4.500317-1.407873 6.225586-2.221679 1.546232-.781254 2.376302-1.171875 2.490235-1.171875.08138-.016276.170898-.024414.268554-.024414.21159 0 .349935.073241.415039.219726.016277.065105.024414.105794.024414.12207v.024414c-.455731.42318-.878904.764973-1.269531 1.025391-1.67644 1.106776-3.629546 2.083329-5.859375 2.929688-.79753.309246-1.652013.594074-2.563476.854492-1.269538.358075-1.993815.537109-2.172852.537109-.781254.146485-1.481117.219727-2.099609.219727h-.073242c-.992844 0-1.741534-.211587-2.246094-.634766-.29297-.227866-.528971-.48828-.708008-.78125-.325523-.537112-.488281-1.074216-.488281-1.611328v-.048828c0-.927739.415035-1.798499 1.245117-2.612305.211589-.244142.504555-.52897.878906-.854492.732426-.634769 1.472978-1.163735 2.22168-1.586914 1.67644-.878911 3.092442-1.318359 4.248047-1.318359zm-3.613282 3.076171c0 .048829.048828.073243.146485.073243.423179 0 1.188145-.187173 2.294922-.561524.537112-.211589.927733-.398762 1.171875-.561523.260418-.21159.390625-.366211.390625-.463867 0-.032553-.056966-.056967-.170899-.073243-.472007.016276-1.391594.309242-2.758789.878907-.716149.341798-1.074219.577798-1.074219.708007zm18.002156.561524c-.016276-.016276-.024414-.032552-.024414-.048828-.016276-.032552-.04069-.056966-.073242-.073242-.016276-.032553-.04069-.052898-.073242-.061036-.032553-.008138-.056966-.012207-.073243-.012207-.699873.227866-1.269529.618487-1.708984 1.171875-.016276.032553-.024414.069173-.024414.109864 0 .04069.004069.08138.012207.12207s.028483.069173.061035.085449c.423179.244142.781249.236004 1.074219-.024414.374351-.358075.651041-.781247.830078-1.269531zm-3.100586-.927734c-.016276 0-.032552-.008138-.048828-.024415-.032552-.032552-.065104-.056966-.097656-.073242-.065105 0-.130208.016276-.195313.048828-.50456.309247-.972491.659178-1.403808 1.049805-.431318.390627-.850422.805662-1.257325 1.245117-.520836.569665-1.009112 1.18001-1.464843 1.831055-.439456.651045-.724284 1.367184-.854493 2.148437-.016276.162762.04069.313314.170899.451661s.268554.207519.415039.207519c.032552-.016276.073242-.024414.12207-.024414.146485-.016276.301106-.04069.463867-.073242.764978-.21159 1.485186-.512693 2.160645-.90332s1.322425-.830076 1.940918-1.31836c.309246-.227866.467936-.423176.476074-.585937.008138-.162762-.118-.431314-.378418-.805664-.227866-.325523-.415038-.667316-.561523-1.025391-.162761-.390627-.146486-.77311.048828-1.147461.097657-.162761.195312-.317382.292969-.463867.065104-.130209.138346-.252278.219726-.366211 0-.016276-.004069-.032552-.012207-.048828s-.012207-.032552-.012207-.048828c0-.032553-.008138-.056966-.024414-.073242zm8.251953 2.01416c1.220709-.203452 2.400711-.549314 3.540039-1.037598 1.139329-.488284 1.493329-.480146 1.062012.024414s-1.017249.952147-1.757813 1.342774c-.740563.390626-1.627599.712075-2.661132.964355-1.033534.25228-1.985673.439452-2.856446.561523-.870772.122071-1.5096.199382-1.916504.231934-.406903.032552-.748696.195311-1.02539.488281-1.0905 1.139329-2.327467 2.099606-3.710938 2.88086-.748701.423179-1.538081.732421-2.368164.927734-.927739.195313-1.692705-.065101-2.294922-.78125-.830082-.992844-1.03353-2.099603-.610351-3.320313.227866-.618492.520831-1.204424.878906-1.757812 1.123053-1.643888 2.530916-2.994786 4.223633-4.052734.390627-.244142.805662-.439453 1.245117-.585938.244142-.097657.484211-.109864.720215-.036621s.427245.272622.57373.598145c0 .016276.008138.04069.024414.073242 0 .032552.008138.065104.024415.097656.146485.325522.341795.439454.585937.341797.113933-.032552.227864-.073242.341797-.12207l.390625-.146485c.439455-.130209.830076-.118002 1.171875.036621.341798.154623.606282.390624.793457.708008s.280762.655109.280762 1.013184c-.032553.325522-.08138.659178-.146485 1.000976-.032552.113933-.056966.236002-.073242.366211-.016276.097657 0 .187174.048828.268555.048829.08138.113932.130208.195313.146484.992843.048829 2.099603-.028482 3.320312-.231933zm5.111531-.378418h.134277c.024414 0 .036621-.008138.036621-.024414l.634766-.439454c.325522-.244141.65104-.480142.976562-.708007 1.204433-.813806 2.408848-1.611325 3.613282-2.392578.341798-.195314.69173-.374349 1.049804-.53711.032553 0 .065104-.008138.097657-.024414.37435-.162761.728351-.162761 1.062011 0 .333661.162761.581868.447589.744629.854492.113933.325523.105795.626627-.024414.903321-.130209.211589-.260416.4069-.390625.585937-.032552.065105-.073242.12207-.12207.170899l-.341797.488281c-.358075.537112-.724282 1.066078-1.098633 1.586914-.29297.406903-.244142.789386.146484 1.147461.065105.08138.113933.16276.146485.24414l.048828.097657c.032552.08138.024414.166829-.024414.256347-.048828.089519-.12207.134278-.219727.134278h-.097656c-.227866.016276-.431314-.016276-.610351-.097657-.309247-.179037-.549316-.40283-.720215-.671386-.1709-.268556-.297038-.557453-.378418-.866699-.048829-.179038-.040691-.36621.024414-.561524l.195312-.634766.146485-.390625c.032552-.130209-.016276-.170898-.146485-.12207-.048828.016276-.105794.04069-.170898.073242-.162761.065105-.317382.146484-.463867.244141-2.89715 1.969411-5.615222 4.158517-8.154297 6.567383-.472008.455731-.952146.903318-1.44043 1.342773-.146485.113933-.313313.146485-.500488.097656-.187176-.048828-.354003-.162759-.500488-.341796-.341799-.390627-.415041-.797524-.219727-1.220704.162761-.325522.358072-.626626.585937-.90332 2.360038-3.271501 4.720041-6.534814 7.080079-9.790039.113932-.146485.252277-.268554.415039-.366211.048828-.016276.105794-.020345.170898-.012207.065105.008138.12207.028483.170899.061035.260418.162761.431314.362141.512695.598145.08138.236004.056967.467935-.073242.695801l-1.171875 1.904296c-.162762.227866-.317382.463866-.463868.708008-.113932.179038-.227864.36621-.341796.561524-.146486.211589-.28483.423176-.415039.634765-.081381.130209-.048829.179037.097656.146485zm5.526569 18.310547c.585941-.325523 1.147459-.699868 1.684571-1.123047 1.546231-1.22071 2.954095-2.579745 4.223633-4.077149.423179-.50456.830076-1.01725 1.220703-1.538086.146485-.195313.292968-.382486.439453-.561523.048828-.065105.12207-.166829.219726-.305176.097657-.138347.20345-.280761.317383-.427246s.211588-.276692.292969-.390625.113932-.16276.097656-.146484c-1.041672.634768-2.132156 1.371252-3.271484 2.209472-1.139329.838221-2.221675 1.741532-3.247071 2.709961-1.025395.96843-1.879879 1.965327-2.563476 2.990723-.032552.048828-.073242.105794-.12207.170898-.097657.146485-.195312.301106-.292969.463867-.097657.162762-.16276.309245-.195313.439454 0 .097656.04069.142415.122071.134277.08138-.008138.187174-.044759.317382-.109863.130209-.065105.260417-.134277.390625-.20752.130209-.073242.227865-.134277.292969-.183105zm8.203125-22.753907c.71615-.276694 1.481116-.358073 2.294922-.24414.976568.097656 1.839189.528967 2.587891 1.293945.130209.162761.219726.349934.268555.561523 0 .032553-.012207.073242-.036621.122071-.024415.048828-.052897.089518-.08545.12207l-.024414.024414c-.016276.016276-.032552.020345-.048828.012207l-.073242-.036621c-.032552-.016276-.056966-.032552-.073242-.048828-.569665-.358075-1.127113-.553385-1.672364-.585938-.54525-.032552-1.086423.016276-1.623535.146485-.423179.097657-.821938.244139-1.196289.439453-2.164724 1.074224-3.881829 2.620433-5.151367 4.638672 0 .016276-.008138.032552-.024414.048828-.016276.032552-.032552.073242-.048828.12207-.065105.162761-.138346.333658-.219727.512696-.130209.227865-.223795.467934-.280761.720214-.056967.25228-.00407.541177.158691.8667.390627.146485.744627.187174 1.062012.12207.317384-.065105.622557-.16276.915527-.292969.016276 0 .04069-.008138.073242-.024414.846359-.341798 1.676428-.724282 2.490235-1.147461 1.708993-.944015 3.308098-2.010085 4.797363-3.198242s2.901198-2.465813 4.23584-3.833008c.29297-.309246.585936-.602212.878906-.878906.097657-.081381.215657-.118001.354004-.109863s.264485.069172.378418.183105c.276694.244142.520832.504556.732422.78125.048828.081381.085449.174967.109863.280762s.028483.199381.012207.280762c-.065104.29297-.170898.577798-.317383.854492-.927739 1.969411-1.953119 3.873688-3.076172 5.71289-.08138.162762-.154622.333658-.219726.512696l-.048828.146484c-.032553.130209.024413.179037.170898.146484.097657-.032552.187174-.065104.268555-.097656.276694-.065104.537108-.146484.78125-.24414.179037-.081381.504555-.227864.976562-.439454.732426-.341798 3.076152-1.700834 7.03125-4.077148.569665-.016276.821941.146483.756836.488281-.195313.406903-.8789 1.041663-2.050781 1.904297-1.171881.862635-2.47802 1.721187-3.918457 2.575684-1.440437.854496-2.624507 1.501462-3.552246 1.940918-.439455.211589-.716145.349934-.830078.415039-.146485.08138-.28483.16276-.415039.24414-.227866.130209-.463866.252278-.708008.366211-.683597.309247-1.212563.781247-1.586914 1.416016-1.546232 2.343762-3.255199 4.565419-5.126953 6.665039-1.171881 1.334642-2.465814 2.563471-3.881836 3.686523-.748702.602217-1.570634 1.106769-2.465821 1.513672-.341798.146485-.699867.252279-1.074218.317383-.585941.081381-1.086424-.048826-1.501465-.390625-.415041-.341798-.720214-.821937-.915528-1.44043-.065104-.179037-.085449-.370278-.061035-.57373.024415-.203452.069173-.386555.134278-.549316.244142-.634769.553383-1.212563.927734-1.733399.618493-.813806 1.285804-1.570634 2.001953-2.270508 1.562508-1.497403 3.263337-2.823887 5.102539-3.979492 1.627613-1.025396 3.279614-2.026362 4.956055-3.00293.602216-.309246 1.082355-.748695 1.44043-1.318359.634768-1.074224 1.277666-2.15657 1.928711-3.24707l.292968-.439453c.097657-.146485.048829-.244141-.146484-.292969-.032552-.016276-.065104-.024414-.097656-.024414-.032553 0-.056966.008138-.073243.024414l-.439453.292969c-.146485.097656-.301106.20345-.463867.317382-.374351.244142-.756834.48828-1.147461.732422-.960291.667321-1.944982 1.302081-2.954101 1.904297-.813806.455732-1.676428.846353-2.587891 1.171875-.016276.016276-.04069.024414-.073242.024414-.748702.309247-1.570634.390626-2.46582.244141-.488284-.081381-.919595-.317381-1.293946-.708008-.423179-.488284-.732421-1.033526-.927734-1.635742-.081381-.195314-.113933-.390624-.097656-.585938.032552-.699873.203449-1.350908.512695-1.953125 1.464851-2.571627 3.613267-4.402663 6.445312-5.493164zm22.738484.097657c.21159 0 .455728.056965.732422.170898.195313.081381.415038.252277.65918.512695.29297.390627.439453.748697.439453 1.074219v.097656c0 .358075-.179035.675455-.53711.952149-.520835.325522-1.041664.602212-1.5625.830078-.37435.162761-.862627.32552-1.464843.488281-.764978.162761-1.375324.244141-1.831055.244141-.50456 0-.911457-.089518-1.220703-.268555h-.073242c-.195314.081381-.610349.415036-1.245117 1.000977-.292971.341798-.504557.602212-.634766.78125-.374351.569664-.561524.984699-.561524 1.245117 0 .309246.170897.520833.512696.634765.309246.065105.65104.097657 1.02539.097657.944016 0 2.685535-.309242 5.22461-.927735 2.425142-.667321 4.500317-1.407873 6.225586-2.221679 1.546231-.781254 2.376301-1.171875 2.490234-1.171875.081381-.016276.170898-.024414.268555-.024414.211589 0 .349934.073241.415039.219726.016276.065105.024414.105794.024414.12207v.024414c-.455732.42318-.878904.764973-1.269531 1.025391-1.676441 1.106776-3.629547 2.083329-5.859375 2.929688-.79753.309246-1.652014.594074-2.563477.854492-1.269538.358075-1.993814.537109-2.172851.537109-.781254.146485-1.481117.219727-2.09961.219727h-.073242c-.992844 0-1.741534-.211587-2.246094-.634766-.29297-.227866-.52897-.48828-.708008-.78125-.325522-.537112-.488281-1.074216-.488281-1.611328v-.048828c0-.927739.415035-1.798499 1.245117-2.612305.21159-.244142.504556-.52897.878907-.854492.732425-.634769 1.472978-1.163735 2.221679-1.586914 1.676441-.878911 3.092442-1.318359 4.248047-1.318359zm-3.613281 3.076171c0 .048829.048828.073243.146484.073243.423179 0 1.188146-.187173 2.294922-.561524.537112-.211589.927733-.398762 1.171875-.561523.260418-.21159.390625-.366211.390625-.463867 0-.032553-.056965-.056967-.170898-.073243-.472008.016276-1.391595.309242-2.758789.878907-.71615.341798-1.074219.577798-1.074219.708007zm29.827553 15.844727c-3.40171 0-5.525712-.878897-6.37207-2.636719-.276694-.537112-.415039-1.074216-.415039-1.611328 0-1.220709.78938-2.490228 2.368164-3.808594 2.278657-1.936858 5.38735-3.759757 9.326172-5.46875 5.07815-2.197276 10.286431-3.702795 15.625-4.516601 1.627612-.260418 3.344717-.431315 5.151367-.512695l2.880859-.170899c.683598 0 1.196288.219724 1.538086.65918v.024414c.065105.08138.097657.16276.097657.24414 0 .195314-.089518.317383-.268555.366211-.048829 0-.105794.008138-.170899.024414-.065104.016277-.138346.024414-.219726.024414h-.53711c-1.660164 0-3.621407.150552-5.883789.451661-2.262381.301108-4.467762.72835-6.616211 1.281738-5.631538 1.432299-10.953751 3.621404-15.966796 6.567383-2.490247 1.481127-4.182939 2.807611-5.078125 3.979492-.634769.862634-.952149 1.489256-.952149 1.879883s.244138.683593.732422.878906l.048828.024414c.813806.358075 2.067049.537109 3.759766.537109 2.034515 0 4.451483-.333655 7.250976-1.000976 4.801457-1.123053 9.749324-2.937813 14.84375-5.444336 4.671248-2.294933 8.829735-4.91535 12.475586-7.861328 3.40171-2.750665 6.038402-5.777978 7.910157-9.082031.813806-1.432299 1.375323-2.962232 1.68457-4.589844.097657-.553388.146484-1.106768.146484-1.660156 0-2.067068-.618483-3.808587-1.855469-5.22461-.830082-.927739-1.770014-1.599119-2.819824-2.01416s-2.062983-.622559-3.039551-.622559c-.390626 0-.789386.024414-1.196289.073243-2.962254.423179-6.13605 1.912422-9.521484 4.467773-4.231792 3.173844-7.95083 6.90102-11.157227 11.181641-.618492.813806-1.18001 1.668289-1.68457 2.563476-.634769 1.106777-1.098631 1.660157-1.391601 1.660157-.244142 0-.447591-.097656-.610352-.292969-.21159-.276694-.317383-.553384-.317383-.830078 0-.406903.333656-1.066077 1.000977-1.977539 1.334642-1.888031 2.872712-4.630516 4.614258-8.22754 1.139328-2.294933 2.132157-4.654935 2.978515-7.080078.439456-1.285813.65918-2.400711.65918-3.344726 0-.537112-.31738-.854492-.952149-.952149l-.195312-.024414c-.260418 0-.520832.024414-.78125.073243-2.246105.439455-4.890935 1.806629-7.93457 4.101562-1.936859 1.481127-3.800447 3.157543-5.590821 5.029297-1.790373 1.871754-3.332513 3.792308-4.626465 5.761719-1.293951 1.969411-2.152504 3.832999-2.575683 5.59082-.097657.130209-.292967.195312-.585938.195312-.29297 0-.581867-.052896-.866699-.158691s-.476074-.248209-.57373-.427246c-.097657-.179037-.146485-.398762-.146485-.65918 0-1.318366 1.155588-3.39354 3.466797-6.225586 2.669284-3.2715 5.834943-6.396469 9.497071-9.375 3.841165-3.141291 6.892892-4.947914 9.155273-5.419922.21159-.048828.423176-.073242.634766-.073242.309246 0 .618488.048828.927734.146485 1.0905.325522 1.822915 1.017247 2.197266 2.075195.195313.50456.292968 1.025388.292968 1.5625 0 .260418-.024413.520832-.073242.78125-.179037 1.106776-.463865 2.180984-.854492 3.222656-1.106776 2.734389-1.660156 4.199218-1.660156 4.394531 0 .097657.040689.146485.12207.146485.097657 0 .301105-.138345.610352-.415039l.585937-.53711c2.148448-2.148448 4.622382-4.093415 7.421875-5.834961 2.39259-1.497403 4.695627-2.408852 6.90918-2.734375.488283-.065104.960284-.097656 1.416015-.097656 1.969411 0 3.776034.634759 5.419922 1.904297 2.067068 1.562508 3.417966 3.605131 4.052735 6.12793.211589.87891.317382 1.765946.317382 2.661133 0 .927739-.113931 1.855464-.341796 2.783203-.42318 1.67644-1.098629 3.238925-2.026368 4.6875-1.578784 2.522799-3.483061 4.76887-5.71289 6.738281-2.636732 2.376314-5.485011 4.475902-8.544922 6.298828-5.240912 3.173844-10.782848 5.696605-16.625977 7.568359-3.19012 1.025396-6.453434 1.717121-9.790039 2.075196-.537112.065104-1.066078.097656-1.586914.097656zm48.61739-8.032227c-.325522 0-.618488-.089517-.878906-.268554-.358075-.244142-.618489-.577798-.78125-1.000977s-.195313-.838214-.097656-1.245117c.065104-.244142.138346-.480142.219726-.708008l.146485-.439453c0-.016276-.008138-.036621-.024414-.061035-.016277-.024414-.032552-.044759-.048829-.061035-.016276-.016276-.04069-.028483-.073242-.036621s-.056966-.012207-.073242-.012207c-.016276.016276-.032552.024414-.048828.024414-.309246.130209-.61035.268554-.90332.415039-.862635.423179-1.741532.789386-2.636719 1.098633-.585941.179037-1.188148.260416-1.806641.24414-.472007-.016276-.866697-.179035-1.184082-.488281-.317384-.309246-.528971-.683592-.634765-1.123047-.105795-.439455-.061037-.862628.134277-1.269531.032552-.390627.354001-.935869.964355-1.635742.610355-.699874 1.456701-1.338702 2.539063-1.916504 1.082362-.577803 2.242018-.931803 3.479004-1.062012.472007-.081381.93587-.089519 1.391601-.024414.455732.065104.878905.244139 1.269532.537109.227865.146485.36621.305175.415039.476075.048828.170899.052897.321451.012207.45166-.040691.130209-.093587.211588-.158692.24414-.276694-.016276-.52897-.04069-.756836-.073242-.244141-.032552-.5249-.048828-.842285-.048828-.317384 0-.736488.073241-1.257324.219727-.79753.227865-1.590979.520831-2.380371.878906s-1.513669.801592-2.172852 1.330566-1.18408 1.159665-1.574707 1.89209c-.065104.113933-.052897.195312.036621.244141.089519.048828.207519.077311.354004.085449s.288899.008138.427246 0 .231934-.020345.280762-.036621c.634769-.179038 1.253252-.390624 1.855469-.634766 1.334642-.569664 2.608229-1.236975 3.820801-2.001953 1.212571-.764978 2.355951-1.635737 3.430175-2.612305.179038-.179037.36621-.341796.561524-.488281.08138-.065104.170898-.097656.268555-.097656.097656 0 .195312.032552.292968.097656.244142.195314.423177.431314.53711.708008.08138.21159.056966.4069-.073243.585937-.130209.162762-.276691.317383-.439453.463868-.065104.048828-.130208.105794-.195312.170898-1.171881 1.188157-2.205399 2.482089-3.100586 3.881836-.016276.032552-.032552.056966-.048828.073242-.146485.21159-.280761.435383-.402832.671387s-.215657.484211-.280762.744629c-.016276.08138.004069.146484.061035.195312.056967.048829.126139.065105.20752.048828 2.848321-1.302089 5.082186-2.591953 6.70166-3.869628 1.619474-1.277676 2.591958-1.949056 2.91748-2.014161.325523-.065104.537109-.056966.634766.024414.097657.081381.097657.333657 0 .756836-3.076187 2.457695-5.220534 4.113766-6.433105 4.968262-1.212572.854497-1.940917 1.322428-2.185059 1.403809-.016276 0-.032552.008138-.048828.024414-.227866.065104-.459797.130208-.695801.195312-.236004.065105-.476073.089519-.720215.073242zm18.441609-5.224609v.12207c-.016276.097657-.024414.195312-.024414.292969s.040689.179036.12207.244141c.081381.065104.16276.08138.244141.048828.439455-.195314 1.163732-.585935 2.172851-1.171875 1.00912-.585941 1.883948-1.066079 2.624512-1.44043s1.338702-.598144 1.794434-.671387c.455731-.073242.260421.260413-.585938 1.000977-.846358.740564-2.807602 2.185048-5.883789 4.333496-.341799.179037-.683592.349934-1.025391.512695-.472007.195314-.862628.056969-1.171875-.415039-.358074-.537112-.439454-1.09863-.24414-1.68457.097657-.358075.211588-.708006.341797-1.049805.113933-.260418.211588-.52897.292968-.805664.048829-.195313.048829-.390624 0-.585937 0-.048829-.028482-.093587-.085449-.134278-.056966-.04069-.109863-.077311-.158691-.109863-.065105 0-.130208.004069-.195313.012207-.065104.008138-.130208.020345-.195312.036621-.895187.244142-1.725257.618487-2.490235 1.123047-2.262381 1.334642-4.410797 2.832023-6.445312 4.492188-.455732.374351-.919594.724282-1.391602 1.049804-.065104.032553-.130208.073242-.195312.122071-.113933.08138-.264485.101725-.45166.061035-.187176-.04069-.32959-.126139-.427246-.256348-.520836-.58594-.602216-1.18001-.244141-1.782226.29297-.520836.618488-1.017251.976562-1.489258 1.757822-2.360038 3.531893-4.72004 5.322266-7.080078.065105-.097657.12207-.170899.170899-.219727l.109863-.146484c.024414-.032552.044759-.061035.061035-.085449.016276-.024415.048828-.061035.097656-.109864l.244141-.24414c.113933-.113933.28076-.150554.500488-.109864.219728.040691.386556.126139.500488.256348.244142.325522.313315.622557.20752.891113s-.264485.533039-.476074.793457c-.048829.048829-.097656.105794-.146485.170899l-.878906 1.171875c-.179037.244142-.362141.492349-.549316.744629-.187176.25228-.419107.557452-.695801.915527-.146485.21159-.276692.439452-.390625.683594-.032552.048828-.065104.105794-.097656.170898l.012207.024414c.008138.016276.020345.036621.036621.061035.016276.024415.032552.036621.048828.036621.016276.016277.04069.032553.073242.048829s.056966.024414.073242.024414c.244142-.097657.480142-.211588.708008-.341797.439455-.276694.887042-.553384 1.342774-.830078.439455-.276694.887042-.545246 1.342773-.805664.683597-.406903 1.407874-.716145 2.172852-.927735.602216-.162761 1.159665-.101726 1.672363.183106s.874836.736488 1.086426 1.35498c.179037.50456.211589 1.009112.097656 1.513672zm5.624226 4.663086c-.520836 0-.952147-.138345-1.293946-.415039-.341798-.276694-.590005-.618488-.744628-1.025391-.154624-.406903-.20752-.821938-.158692-1.245117.065105-.390627.187174-.756834.366211-1.098633.276694-.537112.585936-1.041664.927734-1.513672 1.171881-1.578783 2.490227-3.035475 3.955079-4.370117.162761-.130209.333658-.252278.512695-.366211.032552-.032552.073242-.065104.12207-.097656.097657-.065104.215657-.093587.354004-.085449s.264485.052897.378418.134277c.520836.423179.569664.862628.146484 1.31836-1.204433 1.204433-2.343744 2.465813-3.417968 3.784179-.032553.048829-.073242.097656-.122071.146485-.358074.423179-.69173.862628-1.000976 1.318359-.309247.455731-.561523.960284-.756836 1.513672-.016276.08138.008138.16276.073242.24414.065105.081381.146484.122071.244141.122071h.219726c.195314 0 .382486-.016276.561524-.048828.716149-.162762 1.416012-.341796 2.099609-.53711 1.546232-.455731 3.035475-1.000973 4.467774-1.635742 1.432298-.634769 2.709955-1.228838 3.833007-1.782226.862635-.42318 1.578774-.764973 2.148438-1.025391.113933-.032552.24414-.065104.390625-.097656.146485-.032553.276692-.036622.390625-.012207.113933.024414.170898.093586.170898.207519-.048828.325523-.467932.752764-1.257324 1.281738s-1.790358 1.094561-3.00293 1.696778c-1.212571.602216-2.465813 1.175941-3.759765 1.721191s-2.469884.988768-3.527832 1.330567c-1.057948.341798-1.831053.520833-2.319336.537109zm7.763672-13.061523c-.065105-.032553-.130208-.056967-.195313-.073243-.097657-.016276-.179036-.048828-.244141-.097656-.179037-.179037-.28483-.386555-.317382-.622558-.032553-.236004.024413-.435384.170898-.598145.488284-.537112 1.074215-.935871 1.757813-1.196289.341798-.113933.634764-.040691.878906.219727.276694.244141.382487.537107.317383.878906-.016276.065104-.04069.130208-.073243.195312-.032552.065105-.073241.105794-.12207.122071-.553388.309246-1.09863.602212-1.635742.878906zm11.703327 2.734375c.21159 0 .455728.056965.732422.170898.195313.081381.415038.252277.65918.512695.29297.390627.439453.748697.439453 1.074219v.097656c0 .358075-.179035.675455-.53711.952149-.520836.325522-1.041664.602212-1.5625.830078-.37435.162761-.862627.32552-1.464843.488281-.764978.162761-1.375324.244141-1.831055.244141-.50456 0-.911457-.089518-1.220703-.268555h-.073242c-.195314.081381-.610349.415036-1.245118 1.000977-.29297.341798-.504556.602212-.634765.78125-.374351.569664-.561524.984699-.561524 1.245117 0 .309246.170897.520833.512696.634765.309246.065105.651039.097657 1.02539.097657.944015 0 2.685535-.309242 5.22461-.927735 2.425142-.667321 4.500317-1.407873 6.225586-2.221679 1.546231-.781254 2.376301-1.171875 2.490234-1.171875.081381-.016276.170898-.024414.268555-.024414.211589 0 .349934.073241.415039.219726.016276.065105.024414.105794.024414.12207v.024414c-.455732.42318-.878904.764973-1.269531 1.025391-1.676441 1.106776-3.629547 2.083329-5.859375 2.929688-.79753.309246-1.652014.594074-2.563477.854492-1.269538.358075-1.993814.537109-2.172852.537109-.781253.146485-1.481116.219727-2.099609.219727h-.073242c-.992844 0-1.741534-.211587-2.246094-.634766-.29297-.227866-.52897-.48828-.708008-.78125-.325522-.537112-.488281-1.074216-.488281-1.611328v-.048828c0-.927739.415035-1.798499 1.245117-2.612305.21159-.244142.504556-.52897.878907-.854492.732425-.634769 1.472978-1.163735 2.221679-1.586914 1.676441-.878911 3.092442-1.318359 4.248047-1.318359zm-3.613281 3.076171c0 .048829.048827.073243.146484.073243.423179 0 1.188146-.187173 2.294922-.561524.537112-.211589.927733-.398762 1.171875-.561523.260418-.21159.390625-.366211.390625-.463867 0-.032553-.056966-.056967-.170898-.073243-.472008.016276-1.391595.309242-2.758789.878907-.71615.341798-1.074219.577798-1.074219.708007zm19.882038-7.080078h.048828c.048829 0 .097656-.016276.146485-.048828 3.564471-2.425142 6.827784-5.216455 9.790039-8.374023.08138-.097657.146484-.211588.195312-.341797 0-.016276-.008138-.036621-.024414-.061035s-.04069-.044759-.073242-.061035c-.016276-.016277-.04069-.032552-.073242-.048829-.032552-.016276-.056966-.024414-.073242-.024414-.130209.065105-.252278.130208-.366211.195313-.341799.179037-.667316.374348-.976563.585937-3.125015 2.294934-5.981432 4.874661-8.569336 7.739258-.048828.065105-.089518.130208-.12207.195313-.016276.048828-.032552.089518-.048828.12207-.113933.195313-.065105.236003.146484.12207zm-9.643554 17.456055c-.781254.016276-1.3916-.358069-1.831055-1.123047-.276694-.472007-.415039-.968422-.415039-1.489258 0-.667321.113931-1.310218.341797-1.928711.390627-1.123052.887041-2.189122 1.489257-3.198242.374351-.618492.756834-1.228838 1.147461-1.831055l.439454-.683593.292968-.439453c.309247-.358075.528971-.77311.65918-1.245118.016276-.097656.061035-.183105.134277-.256347.073243-.073243.150553-.142415.231934-.20752.439455-.341798.8138-.740557 1.123047-1.196289l.292969-.390625c1.513679-1.920582 3.100577-3.763826 4.760742-5.529785 1.660164-1.765959 3.409821-3.446444 5.249023-5.041504 1.627612-1.432299 3.369131-2.709955 5.22461-3.833008.683597-.406903 1.399735-.73242 2.148437-.976562.50456-.146485.919595-.032554 1.245117.341797.634769.667321.70801 1.383459.219727 2.148437-.683597.976568-1.448564 1.879879-2.294922 2.709961-2.750665 2.815769-5.737289 5.371082-8.959961 7.666016-2.181001 1.562508-4.386382 3.100578-6.616211 4.614258-.439455.29297-.813801.651039-1.123047 1.074218-1.188157 1.578784-2.278641 3.21451-3.271484 4.907227-.585941 1.041672-1.041665 2.132156-1.367188 3.271484-.065104.244142-.08138.496418-.048828.756836 0 .065105.028483.12207.085449.170899.056967.048828.109863.08138.158692.097656h.12207c.29297.048828.577798.032552.854492-.048828.79753-.276694 1.578772-.602212 2.34375-.976563 1.936859-.944015 3.719068-1.957188 5.34668-3.039551 1.627612-1.082362 3.271476-2.282708 4.931641-3.601074.423179-.325522.744627-.476074.964355-.45166s.345866.126139.378418.305176-.016275.333658-.146484.463867c-.097657.146485-.297037.36621-.598145.65918s-.618488.594074-.952148.90332c-.333661.309246-.590006.545247-.769043.708008-.016276.016276-.04069.032552-.073242.048828-2.555352 2.278657-5.371079 4.182935-8.447266 5.712891-.309246.146485-.634764.276692-.976563.390625-.227865.08138-.44759.170898-.659179.268554-.472008.195314-1.01725.284831-1.635742.268555zm5.990436.512695c.292971.032553.565592.012208.817871-.061035.25228-.073242.500488-.166829.744629-.280762l.146485-.048828c.927739-.358074 1.676429-.944006 2.246093-1.757812.016277-.048829.032552-.105794.048829-.170899.016276-.065104.016276-.12207 0-.170898-.032553-.065105-.08138-.101725-.146485-.109863-.065104-.008138-.130208.004069-.195312.036621l-1.074219.634765c-.813806.472008-1.619462.944008-2.416992 1.416016-.113933.065104-.20345.146484-.268555.244141l-.024414.024414c-.016276.016276-.024414.04069-.024414.073242v.073242c.016276.016276.032552.028483.048828.036621l.073242.036621c.016276 0 .024414.008138.024414.024414zm-.048828 1.635742c-.097657 0-.195312 0-.292969 0-.227865-.016276-.44759-.040689-.659179-.073242-.846359-.130209-1.375325-.634761-1.586914-1.513672-.081381-.37435-.000001-.683592.24414-.927734.488284-.439455 1.000974-.838214 1.538086-1.196289 1.057948-.667321 2.124018-1.310218 3.198242-1.928711.179038-.097657.349935-.195312.512696-.292969.032552-.016276.056966-.024414.073242-.024414.537112-.325522 1.090492-.626626 1.660156-.90332.341799-.162761.594075-.370279.756836-.622559s.28483-.549314.366211-.891113c.227866-1.0905.48828-2.172846.78125-3.24707.227866-.960292.585935-1.871741 1.074219-2.734375.87891-1.497404 2.164705-2.441405 3.857422-2.832032.390627-.097656.77311-.065104 1.147461.097657.244142.113933.431314.292967.561523.537109.048828.130209.052897.264485.012207.402832s-.118001.223796-.231933.256348c-.113933.032552-.236002.065104-.366211.097656-.195314.032552-.390624.08138-.585938.146484-1.774097.651045-2.994788 1.847322-3.662109 3.588868-.29297.813806-.545247 1.635738-.756836 2.46582 0 .065104-.008138.12207-.024414.170898-.146485.618493.065101.90739.634765.8667.569665-.040691 1.342769-.264484 2.319336-.671387.976568-.406903 1.99381-.870766 3.051758-1.391602 1.497403-.748701 2.742508-1.285805 3.735352-1.611328.423179-.113933.626627.089516.610351.610352-.325522.260418-1.155592.732418-2.490234 1.416015-1.334642.683598-2.677402 1.354978-4.02832 2.014161-1.350919.659183-2.229816 1.086424-2.636719 1.281738-.472008.227866-.927732.472004-1.367188.732422-.130209.065104-.252278.12207-.366211.170898-.244141.130209-.4069.32552-.488281.585938-.048828.113932-.089518.219726-.12207.317382-.113933.406904-.252278.797525-.415039 1.171875-.406903.927739-.944007 1.704913-1.611328 2.331543-.667321.626631-1.489253 1.078287-2.465821 1.354981-.58594.146485-1.18001.227864-1.782226.24414-.065105 0-.130208 0-.195313 0z" fill="#fff" fill-rule="evenodd" transform="translate(-130 -311)"/></svg>