<svg height="73" viewBox="0 0 354 73" width="354" xmlns="http://www.w3.org/2000/svg"><path d="m236.945312 4.02539062c-1.239589.06640659-2.490228.13281217-3.751953.19921876-2.921889.13281316-5.86587.33202992-8.832031.59765624l-.796875.06640626c-4.161479.35416843-8.345031.78580474-12.550781 1.29492187-5.64456.66406582-11.289034 1.44986525-16.933594 2.35742187-4.072937.61979477-8.140279 1.31705342-12.202148 2.09179688-4.06187.7747435-8.118144 1.6712189-12.168946 2.6894531-1.970062.5091172-3.929026 1.062497-5.876953 1.6601563-.398439.1328131-.80794.2656243-1.228515.3984375-1.372403.3984395-2.750319.907549-4.133789 1.5273437-1.383471.6197948-1.931317 1.1510395-1.643555 1.59375.287762.4427106.962885.8300765 2.02539 1.1621094.066407.0221355.14388.0442707.232422.0664063l.996094.3320312c.531253.1770842 1.062497.3652334 1.59375.5644531.420575.1549487.652995.4648415.697266.9296875.022135.0664066.022135.1494136 0 .2490235-.022136.0996098-.066406.1826168-.132813.2490234-.066406.0442711-.149413.0885414-.249023.1328125s-.182617.0664062-.249024.0664062c-1.726571-.2656263-3.320305-.7747358-4.78125-1.5273437-1.151047-.5976592-1.7819-1.5826754-1.892578-2.9550781-.044271-.5533882.143878-1.0514301.564453-1.4941406.486982-.5312527 1.029294-.9739566 1.626953-1.328125 1.106777-.5976593 2.246739-1.1399716 3.419922-1.6269532 1.084641-.464846 2.191401-.8632796 3.320313-1.1953125s2.257807-.6529932 3.386719-.9628906h.066406c3.652362-.9960987 7.304669-1.84830375 10.957031-2.55664062 4.936223-.97396321 9.861304-1.84830342 14.775391-2.62304688 4.936222-.75260793 9.850236-1.39452859 14.742187-1.92578125 3.098974-.30989738 6.197901-.58658732 9.296875-.83007813 1.88152-.13281316 3.774079-.28775953 5.677735-.46484374 1.128912-.08854211 2.257806-.1438801 3.386718-.16601563.486982-.02213553.973956-.03320313 1.460938-.03320313.885421-.04427105 1.770829-.07747384 2.65625-.09960937 3.16538-.13281316 6.330713-.25455674 9.496094-.36523437.907556-.04427106 1.792964-.01106827 2.65625.09960937.64193.08854211 1.029296.46484043 1.162109 1.12890625 0 .06640658-.027669.14941356-.083008.24902344-.055339.09960987-.11621.19368445-.182617.28222656s-.132812.1328125-.199219.1328125c-1.084641-.13281316-2.213536-.14388076-3.386718-.03320312-.951828.0885421-1.925777.1106773-2.921876.06640624zm-79.953124 64.24804688c-.243491-.1992197-.392904-.4537745-.448243-.7636719s.005533-.5976549.182617-.8632812c.132814-.2213553.276692-.4427073.431641-.6640625.022136-.0221356.033203-.0442707.033203-.0664063 3.3646-4.9362226 6.77342-9.8502359 10.226563-14.7421875 3.453142-4.8919515 6.983706-9.7284917 10.591797-14.5097656 3.076838-4.028666 6.1979-8.0351363 9.363281-12.0195312.464846-.5755238.918617-1.1510388 1.361328-1.7265625 1.48308-1.8815199 2.977206-3.7408763 4.482422-5.578125l1.859375-2.2578125c.354168-.4648461.730467-.9186176 1.128906-1.3613282.265626-.3098974.54785-.4482423.84668-.415039.298829.0332033.514648.1936834.647461.4814453.221355.5976592.166017 1.2063771-.166016 1.8261719-.287762.4869816-.61979.9628883-.996094 1.4277343-.464846.5976593-.918617 1.1842419-1.361328 1.7597657-1.726571 2.2135527-3.464184 4.4270722-5.21289 6.640625-4.117208 5.1575778-8.206686 10.3372135-12.268555 15.5390625-4.061869 5.2018489-8.040671 10.4700254-11.936524 15.8046874-1.527351 2.1028751-3.032544 4.2167863-4.515624 6.3417969l-2.65625 3.71875c-.287762.376304-.597655.7526023-.929688 1.1289063-.044271.0885421-.099609.1660153-.166016.2324218-.022135.0221356-.04427.038737-.066406.0498047-.022135.0110678-.055338.0166016-.099609.0166016zm46.69408-32.2070313c-.022135 0 .27669-.2379533.896484-.7138671.619795-.4759139 1.460933-1.1123007 2.523438-1.9091797 1.638029-1.2395896 3.43098-2.6064379 5.378906-4.100586 1.947927-1.4941481 3.630201-2.7945908 5.046875-3.9013672 1.638029-1.261725 3.143223-2.6562423 4.515625-4.1835937.641931-.7304724 1.261716-1.4941366 1.859375-2.2910156.044271-.0664066.127278-.193684.249024-.381836.121745-.1881519.232421-.3873687.332031-.5976562s.138346-.3873691.116211-.53125c-.022136-.1438809-.143879-.2158203-.365235-.2158203-1.173182.1106776-2.562166.7304631-4.166992 1.859375-1.604825 1.1289119-3.237296 2.4902264-4.897461 4.0839844-1.660164 1.5937579-3.176425 3.1542892-4.548828 4.6816406-1.372402 1.5273514-2.423824 2.7447871-3.154297 3.6523437-.177084.1992198-.509112.5533829-.996093 1.0625-.464846.5091172-.946287 1.0458956-1.444336 1.6103516-.49805.5644559-.890949 1.029295-1.178711 1.3945312s-.3431.5257164-.166016.4814453zm19.523438-20.6523437c.686201-.0442711 1.294919.1162091 1.826171.4814453.531253.3652362.913085.8245415 1.145508 1.3779297s.22689 1.1178357-.016601 1.6933594c-.464846 1.0625053-1.073564 2.0364539-1.826172 2.921875-1.283861 1.5052158-2.678378 2.8886655-4.183594 4.1503906-.332033.2656263-.686196.5644515-1.0625.8964844-1.748707 1.4609448-3.884753 3.2206928-6.408203 5.2792969-2.52345 2.058604-5.063464 4.0507716-7.620117 5.9765624-2.556654 1.9257909-4.753572 3.408849-6.590821 4.4492188-.509117.6197948-.890949 1.0957015-1.145507 1.4277344-.254559.3320329-.453776.5921214-.597657.7802734-.14388.188152-.293293.381835-.448242.5810547-.132813.1770842-.33203.431639-.597656.7636719s-.641925.8190072-1.128906 1.4609375c-.022136.044271-.02767.0885414-.016602.1328125.011068.044271.016602.099609.016602.1660156.022135.0664066.04427.1217446.066406.1660156h.066406c.066407 0 .110677-.0110676.132813-.0332031.531252-.3984395 1.051429-.7858054 1.560547-1.1621094l1.261718-.9296875c.863286-.6419303 1.74316-1.2506481 2.639649-1.8261718.896489-.5755238 1.820633-1.1067684 2.772461-1.59375.796879-.3984395 1.626949-.7083323 2.490234-.9296875.619795-.1549487 1.184242-.1272797 1.693359.0830078.509118.2102875.918619.5035788 1.228516.8798828.39844.464846.592123.9462865.581055 1.4443359s-.110676.9628885-.298828 1.3945313c-.188152.4316427-.3597.7802721-.514649 1.0458984-.022135.0442711-.04427.0774738-.066406.0996094-.442711.796879-.90755 1.5826784-1.394531 2.3574219-.309898.5312526-.608723 1.0514297-.896485 1.5605468-.066406.1328132-.099609.2877596-.099609.4648438 0 .0221355.016601.0442707.049805.0664062.033203.0221356.066406.0387369.099609.0498047s.060872.0166016.083008.0166016c.022135-.0221356.055338-.0332031.099609-.0332031.376304-.1328132.752603-.276692 1.128906-.4316407 1.416674-.7083369 3.132152-1.5494743 5.146485-2.5234375 2.213553-1.0625053 4.083977-1.9700483 5.611328-2.7226562.951828-.4427106 1.532877-.6363935 1.743164-.5810547.210288.0553388.160483.271157-.149414.6474609-.309897.376304-.785804.8079403-1.427734 1.2949219-1.792978 1.2617251-3.989896 2.639641-6.590821 4.1337891-2.600924 1.4941481-4.454747 2.540036-5.561523 3.1376953-.708337.3763039-1.438798.6972643-2.191406.9628906-.863286.2656263-1.527342-.0221312-1.992188-.8632813-.398439-.7083368-.398439-1.3945279 0-2.0585937.376304-.5976592.76367-1.1953095 1.162109-1.7929687.243491-.332033.475911-.6751285.697266-1.0292969.39844-.5312527.774738-1.073565 1.128906-1.6269531.39844-.6197948.819009-1.2285127 1.261719-1.8261719.486982-.6419303.857746-1.1787088 1.112305-1.6103516.254558-.4316428.254558-.6640623 0-.6972656-.254559-.0332033-.913081.2379528-1.975586.8134766-.619795.3320329-1.106769.5976552-1.460938.7968749l-.265625.1328126c-2.036468 1.1289118-3.951163 2.4238208-5.74414 3.8847656-4.117208 3.1653804-7.946597 6.6516736-11.488282 10.4589844-.597659.6640658-1.217444 1.3059864-1.859375 1.9257812l-.199218.1992188c-.177084.1549486-.376301.2102866-.597657.1660156-.221355-.0442711-.409504-.1770823-.564453-.3984375-.154948-.1992198-.287759-.4205717-.398437-.6640625-.154949-.3541685-.154949-.7083316 0-1.0625.132813-.2213553.276692-.4427073.43164-.6640625 1.483081-1.9921975 2.955071-3.9954327 4.416016-6.0097657 2.899754-4.0950725 5.910141-8.1126105 9.03125-12.0527343.354169-.420575.697264-.8522114 1.029297-1.2949219 2.036469-2.5234501 4.089508-5.0413286 6.15918-7.5537109 2.069671-2.5123824 4.200184-4.9749229 6.391601-7.3876953 1.792978-2.014333 3.657868-3.8128177 5.594727-5.3955079 1.936858-1.5826902 4.166979-2.8609977 6.690429-3.8349609.154949-.0442711.293294-.0774738.41504-.0996094.121745-.0221355.226887-.0332031.315429-.0332031zm6.651111 25.1347656c.287762 0 .61979.0774732.996094.2324219.265627.1106776.564452.3430972.896485.6972656.398439.5312527.597656 1.018227.597656 1.4609375v.1328125c0 .4869816-.243487.9186179-.730469 1.2949219-.708337.4427105-1.416663.8190089-2.125 1.1289063-.509117.2213552-1.173173.4427072-1.992187.6640624-1.04037.2213553-1.87044.3320313-2.490235.3320313-.686201 0-1.239581-.1217436-1.660156-.3652344h-.099609c-.265627.1106777-.830074.5644492-1.69336 1.3613281-.398439.4648461-.686197.8190092-.863281 1.0625-.509117.7747435-.763672 1.339191-.763672 1.6933594 0 .420575.23242.7083326.697266.8632813.420575.0885421.885414.1328125 1.394531.1328125 1.283861 0 3.652326-.4205687 7.105469-1.2617188 3.298193-.9075566 6.120431-1.914708 8.466797-3.0214844 2.102875-1.0625053 3.23177-1.59375 3.386718-1.59375.110678-.0221355.232422-.0332031.365235-.0332031.287762 0 .475911.0996084.564453.2988281.022135.0885422.033203.1438801.033203.1660157v.0332031c-.619795.5755237-1.19531 1.0403628-1.726563 1.3945312-2.279959 1.5052159-4.936182 2.8333276-7.96875 3.984375-1.08464.4205751-2.246738.807941-3.486328 1.1621094-1.726571.4869816-2.711587.7304688-2.955078.7304688-1.062505.1992197-2.014318.2988281-2.855469.2988281h-.099609c-1.350267 0-2.368486-.2877575-3.054687-.8632813-.39844-.3098973-.7194-.6640605-.962891-1.0625-.442711-.7304724-.664063-1.4609338-.664063-2.1914062v-.0664062c0-1.2617251.564448-2.4459581 1.69336-3.5527344.287762-.3320329.686195-.7193989 1.195312-1.1621094.996099-.8632856 2.00325-1.5826794 3.021485-2.1582031 2.279959-1.1953185 4.205721-1.7929688 5.777343-1.7929688zm-4.914062 4.1835938c0 .0664066.066406.0996093.199219.0996093.575523 0 1.615878-.2545547 3.121093-.7636718.730473-.2877619 1.261718-.5423166 1.59375-.7636719.354169-.2877619.53125-.4980462.53125-.6308594 0-.044271-.077473-.0774738-.232421-.0996093-.641931.0221355-1.892569.420569-3.751954 1.1953124-.973963.4648461-1.460937.7858065-1.460937.9628907zm46.936989 1.7597656v.0664063c0 .0221355.011068.0498045.033203.0830078.022136.0332033.044271.0719398.066407.1162109.110677.0885421.21582.1162111.315429.0830078.09961-.0332033.193685-.0830075.282227-.1494141.022136-.0221355.055338-.0442707.099609-.0664062l.53125-.3320312c.332033-.2213553.664061-.4205721.996094-.5976563.774744-.3984395 1.560543-.7636702 2.357422-1.0957031.708337-.2656264 1.38346-.1438828 2.025391.3652344.973963.7526079 1.438802 1.7044213 1.394531 2.8554687-.022136.420575-.077474.8411437-.166016 1.2617187-.044271.1770843-.077474.3541658-.099609.53125 0 .0442711-.011068.0885415-.033203.1328126-.022136.1106776-.02767.2213536-.016602.3320312s.07194.1992184.182617.265625c.332033.1106776.846677.0000017 1.543946-.3320312.697269-.332033 1.455399-.7747369 2.274414-1.328125.819014-.5533882 1.593746-1.0957005 2.324218-1.6269532.730473-.5312526 1.283853-.907551 1.660157-1.1289062l.199218-.1328125c.177085-.1106777.365234-.2213536.564454-.3320313.199219-.1106776.376301-.1660156.53125-.1660156.154948 0 .254557.0996084.298828.2988281.066406.4427106-.254554 1.0458946-.962891 1.8095703s-1.599278 1.5494752-2.672851 2.3574219c-1.073574.8079468-2.119461 1.5218068-3.137696 2.1416016-1.018234.6197947-1.815101 1.0292959-2.390625 1.2285156-.951827.2656263-1.704424-.0774692-2.257812-1.0292969-.39844-.6862013-.531251-1.38346-.398438-2.0917968.110678-.5533882.243489-1.1067681.398438-1.6601563.044271-.2213553.088541-.4316396.132812-.6308594.044271-.1328131.066406-.2656243.066406-.3984375 0-.1328131-.066405-.2324215-.199218-.2988281-.132813-.0442711-.265625-.0608725-.398438-.0498047s-.254556.0387368-.365234.0830078c-.774744.376304-1.52734.7968727-2.257813 1.2617188-2.457043 1.6158935-4.759103 3.4199119-6.90625 5.4121094l-.796875.6640624c-.132813.0885422-.298827.1162112-.498047.0830079-.199219-.0332033-.365233-.1051427-.498046-.2158203-.177085-.1992198-.343099-.4205717-.498047-.6640626-.309898-.420575-.354168-.8411437-.132813-1.2617187.265627-.3984395.542317-.8079406.830078-1.2285156l.464844-.6640625.597656-.8632813c.730473-.9739632 1.350258-2.0032498 1.859375-3.0878906.110678-.1992197.05534-.3430985-.166015-.4316406-.044271-.0221356-.088542-.0387369-.132813-.0498047s-.077474-.005534-.099609.0166016c-.177084.0885421-.343098.1660152-.498047.2324218-.464846.1992198-.90755.4316393-1.328125.6972656-2.988296 1.9479265-5.777331 4.106108-8.367188 6.4746094-.199219.1770842-.387368.3541658-.564453.53125-.265626.2213553-.520181.4537748-.763672.6972656-.221355.1770843-.459308.2324223-.713867.1660157-.254558-.0664066-.481444-.2434882-.680664-.53125-.44271-.6419303-.486981-1.228513-.132812-1.7597657l1.660156-2.2578124c2.346366-3.0989739 4.681629-6.1868336 7.005859-9.2636719.221356-.2877619.453775-.5644518.697266-.8300781.066407-.0442711.121745-.0885415.166016-.1328126.110677-.1106776.26009-.1660156.448242-.1660156s.370767.0664056.547851.1992188c.619795.5091171.752606 1.0514294.398438 1.6269531l-1.328125 1.9921875c-.287762.3984395-.564452.796873-.830078 1.1953125-.022136.0442711-.038737.0885414-.049805.1328125s-.016602.0774738-.016602.0996094c.132814.1992197.298828.2434901.498047.1328125.287762-.1549487.57552-.3209627.863282-.4980469.531252-.2877619 1.062497-.586587 1.59375-.8964844.398439-.1992197.80794-.3652337 1.228515-.4980468.752608-.2213553 1.405596-.1549497 1.958985.1992187.553388.3541684.940754.8964807 1.162109 1.6269531.044271.2213553.066406.47591.066406.7636719 0 .1549487.011068.3320303.033203.53125zm27.203847 8.8652344c-.442711 0-.841144-.1217436-1.195313-.3652344-.486981-.3320329-.841145-.7858044-1.0625-1.3613281s-.265626-1.1399712-.132812-1.6933594c.088542-.3320329.18815-.6529932.298828-.9628906l.199218-.5976563c0-.0221355-.011067-.0498045-.033203-.0830078-.022135-.0332033-.04427-.0608723-.066406-.0830078-.022135-.0221355-.055338-.0387369-.099609-.0498047s-.077474-.0166016-.09961-.0166016c-.022135.0221356-.04427.0332032-.066406.0332032-.420575.1770842-.830076.3652334-1.228516.5644531-1.173182.5755237-2.368483 1.0735656-3.585937 1.4941406-.796879.2434908-1.615881.3541668-2.457031.3320313-.641931-.0221356-1.178709-.2434875-1.610352-.6640625s-.7194-.9296845-.863281-1.5273438c-.143881-.5976592-.083009-1.1731743.182617-1.7265625.044271-.5312526.481441-1.2727817 1.311524-2.2246094.830082-.9518276 1.981112-1.820634 3.453125-2.6064453 1.472012-.7858112 3.049145-1.2672517 4.731445-1.4443359.64193-.1106776 1.272783-.1217452 1.892578-.0332031s1.19531.3320292 1.726562.7304687c.309898.1992198.498047.4150379.564454.647461.066406.232423.07194.4371736.016601.6142578s-.127278.2877602-.21582.3320312c-.376304-.0221355-.7194-.0553383-1.029297-.0996094-.332033-.044271-.713865-.0664062-1.145508-.0664062s-1.001624.0996084-1.709961.2988281c-1.084641.3098974-2.163731.7083309-3.237304 1.1953125-1.073574.4869816-2.05859 1.0901657-2.955079 1.8095703-.896488.7194047-1.610348 1.5771435-2.141601 2.5732422-.088542.1549487-.071941.2656247.049805.3320313.121745.0664066.282225.1051431.481445.1162109s.392903.0110678.581055 0 .315429-.0276691.381835-.0498047c.863286-.2434908 1.704423-.5312483 2.523438-.8632812 1.815113-.7747435 3.547192-1.6822865 5.196289-2.7226563s3.204094-2.2246027 4.665039-3.5527343c.243491-.2434909.498046-.4648428.763672-.6640626.110678-.0885421.232421-.1328124.365234-.1328124.132814 0 .265625.0442703.398438.1328124.332033.2656264.57552.5865867.730469.9628907.110677.2877618.077474.5533842-.09961.796875-.177084.2213552-.376301.4316396-.597656.6308593-.088542.0664066-.177083.1438798-.265625.2324219-1.593758 1.6158935-2.999343 3.3756415-4.216797 5.2792969-.022135.0442711-.044271.0774738-.066406.0996094-.19922.2877618-.381835.5921208-.547852.9130859-.166016.3209652-.293294.6585269-.381836 1.0126953-.022135.1106777.005534.1992184.083008.265625.077475.0664066.171549.0885418.282227.0664063 3.873717-1.7708422 6.911773-3.5250564 9.114258-5.2626953s3.525062-2.6507157 3.967773-2.7392578c.442711-.0885422.730468-.0774746.863281.0332031.132813.1106776.132813.4537731 0 1.0292969-4.183614 3.3424646-7.099926 5.5947207-8.749023 6.7568359s-2.639647 1.798502-2.97168 1.9091797c-.022135 0-.044271.0110676-.066406.0332031-.309898.0885421-.625324.1770829-.946289.265625s-.647459.1217449-.979492.0996094zm38.326893-30.9453125c-.066407-.1106777-.132812-.1715494-.199219-.1826172s-.154947.0055336-.265625.0498047c-.796879.420575-1.549476.9020155-2.257813 1.4443359-.708336.5423204-1.394527 1.1012341-2.058593 1.6767578-1.23959 1.0846409-2.43489 2.2190696-3.585938 3.4033203-1.151047 1.1842508-2.29101 2.3740175-3.419922 3.569336v.0332031l-.083007.0830078c-.033204.0332033-.049805.0608723-.049805.0830078 0 .0221356-.011068.0442707-.033203.0664063 0 .0664066-.005534.1328121-.016602.1992187s-.005534.1328122.016602.1992188c.066406.0885421.138346.1383463.21582.149414.077474.0110678.171549-.0055336.282227-.0498046 3.253922-1.8815199 6.175768-4.1725126 8.765625-6.8730469.64193-.6862014 1.250648-1.4166628 1.826171-2.1914063.19922-.2434908.387369-.4869779.564454-.7304687.132813-.1770842.232421-.3652334.298828-.5644531 0-.0442711.011067-.0885415.033203-.1328125v-.0664063c0-.0221355-.011068-.0553383-.033203-.0996094zm-18.095703 28.4550781c.686201 0 1.339189-.0608718 1.958984-.1826172s1.217445-.2600904 1.792969-.4150391l.265625-.0664062c1.815113-.5312527 3.525057-1.3004507 5.129883-2.3076172 1.604825-1.0071665 3.159823-2.0862573 4.665039-3.2373047.420575-.3320329.841143-.6529932 1.261718-.9628906.332033-.2213553.669595-.3818354 1.012696-.4814453.3431-.0996099.564452-.0774747.664062.0664062.09961.143881-.038735.4482399-.415039.913086-1.217454 1.3724027-2.484694 2.6507102-3.801758 3.8349609s-2.744784 2.1969359-4.283203 3.0380859c-1.538419.8411501-3.270498 1.4388004-5.196289 1.7929688-.686201.1328132-1.38346.166016-2.091797.0996094-1.571622-.0885421-2.77799-.8411388-3.61914-2.2578125-.686202-1.0846409-.874351-2.2135358-.564454-3.3867188.022136-.0885421.044271-.1660153.066407-.2324219.243491-.7526079.309896-1.189778.199218-1.3115234-.110677-.1217454-.553381.0165996-1.328125.4150391-1.970061.9296921-3.563795 2.2910066-4.78125 4.0839843-.619794.8854211-1.28385 1.7486938-1.992187 2.5898438-.265626.3320329-.542316.6640608-.830078.9960938-.110678.1328131-.254557.1826173-.431641.149414s-.343098-.1383455-.498047-.3154297c-.44271-.5312526-.542319-1.0182269-.298828-1.4609375.022136-.0221355.044271-.0553383.066406-.0996094l.199219-.3320312c3.010432-4.2057502 6.137028-8.3118289 9.379883-12.3183594 3.242855-4.0065304 6.657209-7.869122 10.243164-11.5878906 1.283861-1.3502672 2.62304-2.6451761 4.017578-3.8847656 1.084641-.9075566 2.191401-1.7708293 3.320313-2.5898438.309897-.2213552.608722-.4427072.896484-.6640625.708337-.4869816 1.472001-.8632799 2.291016-1.1289062.752608-.2213553 1.438799-.0885441 2.058593.3984375 1.106777.8632855 1.50521 1.9036397 1.195313 3.1210937-.154949.4869816-.365233.9518207-.630859 1.3945313-.885421 1.4609448-1.947911 2.7779889-3.1875 3.9511718-1.505216 1.4830804-3.121085 2.8443949-4.847657 4.0839844-2.32423 1.7044356-4.770169 3.2428317-7.33789 4.6152344-1.062506.5533882-2.158198 1.0624977-3.28711 1.5273438-.066406.0221355-.132812.0553383-.199218.0996093-.996099.3984395-1.704425 1.0846306-2.125 2.0585938 0 .0221355.005533.0553383.016601.0996093.011068.0442711.027669.0774739.049805.0996094.044271.0442711.088541.0774739.132812.0996094s.088542.0332031.132813.0332031c.044271-.0221355.099609-.0442707.166015-.0664062.509118-.1549487 1.00716-.3430979 1.494141-.5644531 2.147146-.9075567 4.338531-1.6933561 6.574219-2.3574219.774743-.2213553 1.350258.0885374 1.726562.9296875.044271.0664066.060873.1494135.049805.2490234s-.038737.1715493-.083008.2158203c-.265626.1992198-.553384.3652337-.863281.4980469-.64193.2877619-1.283851.5644518-1.925781.8300781-.951828.3984395-1.892574.796873-2.822266 1.1953125-.686201.3541685-1.433264.9684201-2.241211 1.8427735-.807947.8743533-1.444333 1.6435513-1.90918 2.3076171-.177084.2434909-.3763.70833-.597656 1.3945313-.221355.6862013-.326497 1.3447234-.315429 1.9755859.011067.6308626.282223 1.0016271.813476 1.1123047.19922.0442711.365234.0664063.498047.0664063.066407.0221355.121745.0332031.166016.0332031zm16.51244 1.7265625c-.708337 0-1.29492-.1881492-1.759766-.5644531-.464846-.376304-.802408-.8411431-1.012695-1.3945313-.210288-.5533882-.282227-1.1178356-.215821-1.6933594.088542-.5312526.254556-1.0292945.498047-1.4941406.376304-.7304724.796873-1.4166634 1.261719-2.0585937 1.593758-2.1471462 3.386709-4.1282462 5.378906-5.9433594.221356-.1770842.453775-.3430982.697266-.4980469.044271-.044271.099609-.0885414.166016-.1328125.132813-.0885421.293293-.1272787.481445-.1162109s.3597.0719395.514648.1826172c.708337.5755237.774743 1.173174.199219 1.7929687-1.638029 1.638029-3.187493 3.3535067-4.648437 5.1464844-.044272.0664066-.09961.1328122-.166016.1992187-.486982.5755238-.940753 1.173174-1.361328 1.7929688s-.763671 1.3059858-1.029297 2.0585938c-.022136.1106776.011067.2213536.099609.3320312s.199218.1660156.332032.1660156h.298828c.265626 0 .520181-.0221352.763672-.0664062.973963-.2213553 1.925776-.4648424 2.855468-.7304688 2.102875-.6197947 4.128246-1.3613238 6.076172-2.2246094 1.947927-.8632855 3.685539-1.6712201 5.212891-2.4238281 1.173183-.5755237 2.147131-1.0403628 2.921875-1.3945312.154948-.0442711.33203-.0885415.53125-.1328125.199219-.0442711.376301-.0498049.53125-.0166016.154948.0332033.232422.1272779.232422.2822266-.066407.4427105-.636388 1.0237594-1.709961 1.743164-1.073573.7194047-2.434888 1.4886027-4.083985 2.3076172-1.649096.8190145-3.353507 1.5992802-5.113281 2.3408203-1.759774.7415402-3.359042 1.3447243-4.797851 1.8095703-1.43881.4648461-2.490232.7083333-3.154297.7304688zm10.558593-17.7636719c-.088542-.044271-.177083-.0774738-.265625-.0996093-.132813-.0221356-.243489-.066406-.332031-.1328126-.243491-.2434908-.387369-.5257145-.43164-.8466796-.044272-.3209652.033202-.5921213.232421-.8134766.664066-.7304724 1.460933-1.2727847 2.390625-1.6269531.464846-.1549487.86328-.0553403 1.195313.2988281.376304.3320329.520183.7304664.431641 1.1953125-.022136.0885421-.055339.1770829-.09961.265625s-.099609.1438801-.166015.1660156c-.752608.420575-1.494137.8190086-2.22461 1.1953125zm21.692128 11.421875v.1660157c-.022136.1328131-.033203.2656243-.033203.3984374 0 .1328132.055338.2434892.166015.3320313.110678.0885421.221354.1106773.332032.0664063.597659-.2656264 1.582675-.7968711 2.955078-1.59375 1.372402-.796879 2.562169-1.4498673 3.569336-1.9589844 1.007166-.5091172 1.820635-.8134761 2.440429-.913086.619795-.0996098.354173.3541617-.796875 1.3613282-1.151047 1.0071665-3.818338 2.971665-8.001953 5.8935546-.464846.2434909-.929685.4759104-1.394531.6972657-.64193.2656263-1.173175.0774771-1.59375-.5644531-.486982-.7304725-.597658-1.4941367-.332031-2.2910157.132813-.4869816.287759-.9628883.464843-1.4277343.154949-.3541685.28776-.7193992.398438-1.0957032.066407-.2656263.066407-.5312486 0-.796875 0-.0664066-.038737-.1272783-.116211-.1826172-.077474-.0553388-.149414-.105143-.21582-.149414-.088542 0-.177083.0055338-.265625.0166015-.088542.0110678-.177083.0276692-.265625.0498047-1.217454.3320329-2.346349.8411424-3.386719 1.5273438-3.076838 1.8151132-5.998684 3.8515512-8.765625 6.109375-.619795.5091171-1.250648.9850238-1.892578 1.4277344-.088542.044271-.177083.099609-.265625.1660156-.154949.1106776-.359699.1383466-.614258.0830078s-.448241-.1715486-.581055-.3486328c-.708337-.796879-.819012-1.6048136-.332031-2.4238282.39844-.7083368.841144-1.3834603 1.328125-2.0253906 2.390637-3.2096514 4.803373-6.4192548 7.238281-9.6289062.088542-.1328132.166016-.2324216.232422-.2988282l.149414-.1992187c.033204-.0442711.060873-.0830076.083008-.1162109.022136-.0332033.066406-.0830075.132813-.1494141l.332031-.3320313c.154949-.1549486.381834-.2047528.680664-.149414s.525715.1715486.680664.3486328c.332033.4427105.426107.8466779.282227 1.2119141-.143881.3652362-.3597.7249331-.647461 1.0791015-.066407.0664066-.132813.1438798-.199219.2324219l-1.195313 1.59375c-.24349.3320329-.492511.6695946-.74707 1.0126953s-.569985.7581356-.946289 1.2451172c-.19922.2877619-.376301.5976546-.53125.9296875-.044271.0664066-.088541.1438798-.132813.2324219l.016602.0332031c.011068.0221355.027669.0498045.049805.0830078.022135.0332033.04427.0498047.066406.0498047.022136.0221355.055338.0442707.099609.0664062.044271.0221356.077474.0332032.09961.0332032.332033-.1328132.652993-.2877596.96289-.4648438.59766-.3763039 1.206377-.7526023 1.826172-1.1289062.597659-.376304 1.206377-.7415347 1.826172-1.0957032.929692-.5533881 1.914708-.9739568 2.955078-1.2617187.819015-.2213553 1.577145-.1383483 2.274414.2490234.697269.3873718 1.189778 1.0016234 1.477539 1.8427735.243491.6862013.287762 1.3723924.132813 2.0585937zm5.322987 23.109375c.796879-.4427105 1.560543-.95182 2.291015-1.5273437 2.102875-1.6601646 4.01757-3.5084534 5.744141-5.5449219.575524-.6862013 1.128904-1.38346 1.660156-2.0917969.19922-.2656263.398437-.520181.597656-.7636718.066407-.0885422.166015-.2268871.298829-.4150391.132813-.188152.276692-.381835.43164-.5810547.154949-.1992197.28776-.3763013.398438-.53125.110677-.1549487.154948-.2213543.132812-.1992188-1.416674.8632856-2.899732 1.8649032-4.449219 3.0048829-1.549486 1.1399796-3.021477 2.368483-4.416015 3.6855468-1.394538 1.3170639-2.556636 2.6728446-3.486328 4.0673829-.044271.0664065-.099609.1438797-.166016.2324218-.132813.1992198-.265624.4095041-.398437.6308594-.132814.2213553-.221354.420572-.265625.5976562 0 .1328132.055338.193685.166015.1826172.110678-.0110677.254557-.0608719.431641-.149414s.354166-.1826167.53125-.2822266.309895-.1826168.398437-.2490234zm11.15625-30.9453125c.973963-.3763039 2.014317-.4869799 3.121093-.3320312 1.328132.1328131 2.501297.7193958 3.519532 1.7597656.177084.2213553.298828.47591.365234.7636719 0 .044271-.016601.099609-.049805.1660156-.033203.0664066-.071939.1217446-.116211.1660156l-.033203.0332031c-.022135.0221356-.04427.0276694-.066406.0166016l-.099609-.0498047c-.044271-.0221355-.077474-.0442707-.09961-.0664062-.774743-.4869816-1.532874-.752604-2.274414-.796875-.74154-.0442711-1.477535.0221345-2.208008.1992187-.575523.1328132-1.117835.3320299-1.626953.5976563-2.944025 1.4609448-5.279288 3.5637883-7.005859 6.3085937 0 .0221356-.011068.0442707-.033203.0664063-.022136.044271-.044271.099609-.066406.1660156-.088542.2213553-.188151.4537748-.298829.6972656-.177084.3098974-.304361.6363915-.381835.9794922-.077475.3431007-.005535.7360004.21582 1.1787109.531253.1992198 1.012693.2545578 1.444336.1660157s.846678-.2213533 1.245117-.3984375c.022136 0 .055338-.0110676.099609-.0332032 1.151048-.464846 2.279943-.9850231 3.386719-1.5605468 2.32423-1.2838606 4.499013-2.7337159 6.524414-4.3496094s3.945629-3.3535063 5.760742-5.2128906c.39844-.420575.796873-.8190086 1.195313-1.1953125.132813-.1106777.293293-.1604819.481445-.1494141s.3597.0940748.514649.2490234c.376304.332033.708332.6861961.996093 1.0625.066407.1106777.116211.2379551.149414.381836.033204.1438809.038738.2711583.016602.3818359-.088542.3984395-.232421.7858054-.431641 1.1621094-1.261725 2.6783988-2.656242 5.2682167-4.183593 7.7695313-.110678.2213552-.210286.4537748-.298829.6972656l-.066406.1992187c-.044271.1770842.033202.2434898.232422.1992188.132813-.0442711.254557-.0885415.365234-.1328125.376304-.0885421.730468-.1992181 1.0625-.3320313.243491-.1106776.686195-.3098944 1.328125-.5976562.996099-.4648461 4.183567-2.3131349 9.5625-5.5449219.774744-.0221355 1.117839.1992164 1.029297.6640625-.265626.5533882-1.195304 1.4166608-2.789062 2.5898437-1.593758 1.173183-3.370108 2.3408146-5.329102 3.5029297-1.958994 1.1621152-3.569329 2.0419892-4.831054 2.6396485-.59766.2877618-.973958.475911-1.128907.5644531-.199219.1106776-.387369.2213536-.564453.3320313-.309897.1770842-.630857.3430981-.96289.4980468-.929693.420575-1.649086 1.0624957-2.158204 1.9257813-2.102875 3.1875159-4.42707 6.2089701-6.972656 9.0644531-1.593758 1.8151132-3.353506 3.4863205-5.279297 5.0136719-1.018234.8190145-2.136061 1.5052055-3.353515 2.0585937-.464846.1992198-.951821.3430985-1.460938.4316406-.796879.1106777-1.477536-.0664039-2.041992-.53125-.564456-.464846-.979491-1.1178343-1.245117-1.9589843-.088542-.2434908-.116211-.5035794-.083008-.7802735s.094075-.525715.182617-.7470703c.332033-.8632855.752602-1.649085 1.261719-2.3574219.84115-1.1067763 1.748693-2.1360629 2.722656-3.0878906 2.125011-2.0364685 4.438139-3.8404869 6.939453-5.4121094 2.213553-1.3945382 4.460275-2.7558527 6.740235-4.0839843.819014-.420575 1.472003-1.0182253 1.958984-1.7929688.863286-1.4609448 1.737626-2.9329353 2.623047-4.4160156l.398437-.5976563c.132814-.1992197.066408-.3320309-.199218-.3984374-.044271-.0221356-.088542-.0332032-.132813-.0332032s-.077474.0110676-.099609.0332032l-.597656.3984374c-.19922.1328132-.409504.276692-.63086.4316407-.509117.3320329-1.029294.6640608-1.560547.9960937-1.305996.9075566-2.645175 1.7708293-4.017578 2.5898438-1.106776.6197947-2.279941 1.1510394-3.519531 1.59375-.022136.0221355-.055338.0332031-.099609.0332031-1.018235.420575-2.136062.531251-3.353516.3320313-.664066-.1106777-1.250648-.431638-1.759766-.9628907-.575523-.6640658-.996092-1.4055948-1.261718-2.2246093-.110678-.2656264-.154948-.5312487-.132813-.796875.044271-.9518277.276691-1.8372355.697266-2.65625 1.992197-3.4974134 4.914043-5.9876228 8.765625-7.4707032zm51.585427 5.0800782c-.022136-.0221356-.033203-.0442708-.033203-.0664063-.022136-.0442711-.055339-.0774738-.09961-.0996094-.022135-.044271-.055338-.07194-.099609-.0830078s-.077474-.0166015-.09961-.0166015c-.951827.3098973-1.726559.841142-2.324218 1.59375-.022136.044271-.033203.0940752-.033203.149414s.005533.1106768.016601.1660156c.011068.0553389.038737.0940754.083008.116211.575524.3320329 1.062498.3209653 1.460937-.0332032.509118-.4869816.885416-1.0624966 1.128907-1.7265624zm-4.216797-1.2617188c-.022136 0-.044271-.0110676-.066406-.0332031-.044272-.0442711-.088542-.0774739-.132813-.0996094-.088542 0-.177083.0221352-.265625.0664063-.686201.420575-1.322588.8964817-1.90918 1.4277343-.586591.5312527-1.156572 1.0957002-1.709961 1.6933594-.708336.7747435-1.372392 1.6048133-1.992187 2.4902344-.597659.8854211-.985025 1.8593697-1.162109 2.921875-.022136.2213552.055337.4261058.232421.6142578.177085.188152.365234.2822265.564454.2822265.044271-.0221355.099609-.0332031.166015-.0332031.19922-.0221355.409504-.0553383.63086-.0996093 1.040369-.2877619 2.019852-.697263 2.938476-1.2285157.918624-.5312526 1.798498-1.1289029 2.639649-1.7929687.420575-.3098974.636393-.5755198.64746-.796875.011068-.2213553-.16048-.586586-.514648-1.0957032-.309897-.4427105-.564452-.9075496-.763672-1.3945312-.221355-.5312527-.19922-1.0514297.066406-1.5605469.132814-.2213552.265625-.4316396.398438-.6308593.088542-.1770843.18815-.3430982.298828-.4980469 0-.0221356-.005534-.0442707-.016602-.0664063-.011067-.0221355-.016601-.0442707-.016601-.0664062 0-.0442711-.011068-.0774739-.033203-.0996094zm11.222656 2.7392578c1.660165-.2766941 3.264966-.747067 4.814453-1.4111328s2.030928-.6529982 1.444336.0332031c-.586591.6862014-1.383458 1.2949192-2.390625 1.8261719-1.007166.5312527-2.213535.9684228-3.619141 1.3115234-1.405606.3431007-2.700514.5976555-3.884765.7636719-1.184251.1660165-2.053057.2711586-2.606445.3154297-.553389.0442711-1.018228.265623-1.394532.6640625-1.48308 1.5494869-3.165355 2.8554634-5.046875 3.9179687-1.018234.5755238-2.091791.9960925-3.220703 1.2617188-1.261725.2656263-2.302079-.0885368-3.121094-1.0625-1.128912-1.3502672-1.405601-2.8554604-.830078-4.515625.309898-.84115.708331-1.6380171 1.195313-2.390625 1.527351-2.2356883 3.442046-4.0729095 5.74414-5.5117188.531253-.3320329 1.095701-.5976552 1.69336-.796875.332033-.1328131.658527-.1494145.979492-.0498046.320965.0996098.581054.370766.780273.8134765 0 .0221356.011068.0553383.033204.0996094 0 .0442711.011067.0885414.033203.1328125.199219.4427105.464842.5976569.796875.4648437.154948-.044271.309895-.099609.464843-.1660156l.53125-.1992187c.59766-.1770842 1.128904-.1604828 1.59375.0498047s.824543.5312478 1.079102.9628906.381836.8909481.381836 1.3779297c-.044271.4427105-.110677.896482-.199219 1.3613281-.044271.1549487-.077474.3209627-.099609.4980469-.022136.1328131-.000001.2545567.066406.3652343.066407.1106777.154947.1770833.265625.1992188 1.350267.0664066 2.85546-.0387356 4.515625-.3154297zm25.576893-17.9130859c-1.372403.7747434-2.562169 1.6269485-3.569336 2.5566406-1.007166.9296921-1.997716 1.9368435-2.971679 3.0214844-.332033.3541684-.675129.7083315-1.029297 1.0625-.221356.2434908-.442708.4980455-.664063.7636719l-.199219.265625c-.022135.044271-.132811.154947-.332031.3320312-.221355.2434908-.486977.5312483-.796875.8632812-.309897.332033-.569986.6308581-.780273.8964844-.210288.2656264-.293295.4095051-.249024.4316406.022136 0 .160481-.1051421.415039-.3154296.254559-.2102875.542316-.4593085.863282-.7470704.320965-.2877618.592121-.531249.813476-.7304687s.343099-.3098957.365235-.3320313c1.328131-.9960987 2.694979-2.0585881 4.100585-3.1874999 1.405606-1.1289119 2.717117-2.2578069 3.934571-3.3867188.022135-.0221355.083007-.1106763.182617-.265625s.204752-.3320303.31543-.53125c.110677-.1992197.18815-.3818351.232422-.5478516.044271-.1660164.022135-.2711586-.066407-.3154296-.088542-.0442711-.276691.0110669-.564453.1660156zm-30.779297 40.1757812v.4648438c0 .0664066.033203.1383459.09961.2158203.066406.0774743.143879.1383461.232422.1826172.088542.044271.166015.0553386.232421.0332031.110678-.0664066.232422-.1328122.365235-.1992187.354168-.1770843.686196-.3873686.996094-.6308594.84115-.752608 1.604814-1.5605426 2.291015-2.4238282.686201-.8632855 1.328122-1.7708285 1.925781-2.7226562 1.925791-3.1211094 3.552728-6.3860507 4.88086-9.7949219.464846-1.2395895.90755-2.5012956 1.328125-3.7851562.132813-.420575.210286-.8522114.232422-1.2949219 0-.0664066-.022136-.1328122-.066407-.1992188-.044271-.0664065-.099609-.1328121-.166015-.1992187v-.0332031h-.083008c-.033203 0-.066406.0055338-.099609.0166015-.033204.0110678-.060873.0276692-.083008.0498047-.066407.0664066-.121745.1328122-.166016.1992188-.265626.2213552-.509113.47591-.730469.7636718-2.479179 3.1432449-4.803374 6.4081862-6.972656 9.7949219-1.438809 2.2578238-2.611975 4.6484249-3.519531 7.171875-.19922.6197948-.376301 1.2063775-.53125 1.7597657-.066407.2213552-.121745.4316396-.166016.6308593zm18.69336-22.3125c2.235688-.0221355 4.43814-.2877578 6.607422-.796875.287761-.0664066.652992-.1549473 1.095703-.265625.376304-.1106776.730467-.210286 1.0625-.2988281s.61979-.1549477.863281-.1992188c.309897-.044271.38737.0885402.232422.3984376-.154949.3098973-.597653.6917295-1.328125 1.1455078-.730473.4537783-1.80403.8577456-3.220703 1.211914-.309898.0885421-.608723.1660153-.896485.2324219-1.217454.3320329-2.440423.5810539-3.668945.7470703-1.228522.1660165-2.484694.0719419-3.768555-.2822266-.177084-.044271-.348632-.016602-.514648.0830079-.166017.0996098-.271159.2268872-.31543.3818359-.597659 2.8776186-1.471999 5.6334504-2.623047 8.2675781-1.151047 2.6341278-2.457024 5.212878-3.917968 7.7363282-.996099 1.7929777-2.213535 3.4420497-3.652344 4.9472656-.774744.8632855-1.671219 1.5716118-2.689453 2.125-1.23959.5533882-2.246741.2766982-3.021485-.8300781-.796879-1.2838606-1.018231-2.6562427-.664062-4.1171876.332033-1.3945382.785804-2.7447851 1.361328-4.0507812 1.151047-2.6119922 2.523429-5.1022017 4.117187-7.4707031 3.652362-5.4010687 7.647765-10.536434 11.986329-15.40625.177084-.2213553.387368-.47591.630859-.7636719 1.394538-1.593758 3.132151-3.5139862 5.212891-5.7607422 2.080739-2.246756 3.82942-3.9013619 5.246093-4.9638672 1.173183-.8190145 2.368484-1.6048139 3.585938-2.3574218.619795-.3541685 1.261715-.6640612 1.925781-.9296875.730472-.2656264 1.383461-.11068 1.958984.4648437.774744.8190145.896487 1.7154899.365235 2.6894531-.509117.9296922-1.151038 1.7708296-1.925781 2.5234375l-1.16211 1.1621094c-1.328132 1.3281316-2.689446 2.6009054-4.083984 3.8183594-2.457044 2.058604-4.936186 4.095042-7.4375 6.109375l-3.121094 2.5234375c-.110678.1106776-.232421.210286-.365234.2988281l-.863282.7304688c-.044271.044271-.07194.1162104-.083007.2158203-.011068.0996098-.005534.1826168.016601.2490234.022136.0664066.07194.1272784.149414.1826172.077475.0553388.160482.0940754.249024.1162109.24349.0885421.498045.1328125.763672.1328125zm38.23777 8.4335938c-.44271 0-.841144-.1217436-1.195312-.3652344-.486982-.3320329-.841145-.7858044-1.0625-1.3613281-.221356-.5755237-.265626-1.1399712-.132813-1.6933594.088542-.3320329.188151-.6529932.298828-.9628906.066407-.1992198.132813-.3984365.199219-.5976563 0-.0221355-.011067-.0498045-.033203-.0830078s-.044271-.0608723-.066406-.0830078c-.022136-.0221355-.055339-.0387369-.09961-.0498047s-.077473-.0166016-.099609-.0166016c-.022136.0221356-.044271.0332032-.066406.0332032-.420575.1770842-.830076.3652334-1.228516.5644531-1.173183.5755237-2.368483 1.0735656-3.585937 1.4941406-.796879.2434908-1.615882.3541668-2.457032.3320313-.64193-.0221356-1.178708-.2434875-1.610351-.6640625s-.719401-.9296845-.863281-1.5273438c-.143881-.5976592-.08301-1.1731743.182617-1.7265625.044271-.5312526.481441-1.2727817 1.311523-2.2246094.830082-.9518276 1.981113-1.820634 3.453125-2.6064453 1.472013-.7858112 3.049145-1.2672517 4.731446-1.4443359.64193-.1106776 1.272783-.1217452 1.892578-.0332031.619794.0885421 1.195309.3320292 1.726562.7304687.309898.1992198.498047.4150379.564453.647461.066407.232423.071941.4371736.016602.6142578s-.127278.2877602-.21582.3320312c-.376304-.0221355-.7194-.0553383-1.029297-.0996094-.332033-.044271-.713865-.0664062-1.145508-.0664062s-1.001624.0996084-1.709961.2988281c-1.084641.3098974-2.163732.7083309-3.237305 1.1953125s-2.058589 1.0901657-2.955078 1.8095703c-.896489.7194047-1.610349 1.5771435-2.141601 2.5732422-.088543.1549487-.071941.2656247.049804.3320313.121746.0664066.282226.1051431.481446.1162109.199219.0110678.392902.0110678.581054 0s.31543-.0276691.381836-.0498047c.863286-.2434908 1.704423-.5312483 2.523438-.8632812 1.815113-.7747435 3.547192-1.6822865 5.196289-2.7226563 1.649096-1.0403698 3.204094-2.2246027 4.665039-3.5527343.243491-.2434909.498045-.4648428.763672-.6640626.110677-.0885421.232421-.1328124.365234-.1328124s.265624.0442703.398438.1328124c.332032.2656264.57552.5865867.730468.9628907.110678.2877618.077475.5533842-.099609.796875-.177084.2213552-.376301.4316396-.597656.6308593-.088542.0664066-.177083.1438798-.265625.2324219-1.593758 1.6158935-2.999343 3.3756415-4.216797 5.2792969-.022136.0442711-.044271.0774738-.066406.0996094-.19922.2877618-.381836.5921208-.547852.9130859-.166017.3209652-.293294.6585269-.381836 1.0126953-.022136.1106777.005533.1992184.083008.265625.077474.0664066.171549.0885418.282226.0664063 3.873718-1.7708422 6.911773-3.5250564 9.114258-5.2626953s3.525063-2.6507157 3.967774-2.7392578c.44271-.0885422.730468-.0774746.863281.0332031.132813.1106776.132813.4537731 0 1.0292969-4.183615 3.3424646-7.099927 5.5947207-8.749024 6.7568359-1.649096 1.1621152-2.639646 1.798502-2.971679 1.9091797-.022136 0-.044271.0110676-.066406.0332031-.309898.0885421-.625324.1770829-.94629.265625-.320965.0885421-.647459.1217449-.979492.0996094z" fill="#fff" fill-rule="evenodd" transform="translate(-155 -2)"/></svg>