<?xml version="1.0" encoding="UTF-8"?>
<svg width="525px" height="188px" viewBox="0 0 525 188" version="1.1" xmlns="http://www.w3.org/2000/svg" xmlns:xlink="http://www.w3.org/1999/xlink">
    <!-- Generator: Sketch 53.2 (72643) - https://sketchapp.com -->
    <title>2019</title>
    <desc>Created with Sketch.</desc>
    <g id="Page-1" stroke="none" stroke-width="1" fill="none" fill-rule="evenodd" fill-opacity="0">
        <g id="home_desktop-2of2" transform="translate(-111.000000, -12065.000000)" fill="#FFFFFF" fill-rule="nonzero" stroke="#BBBBBB" stroke-width="2">
            <g id="Section-31---2018" transform="translate(0.000000, 11695.000000)">
                <path d="M238.046,527.338 L238.046,553 L115.742,553 L124.751,543.991 C143.315093,525.426907 157.783948,510.412057 168.158,498.946 C178.532052,487.479943 187.222465,475.877559 194.2295,464.1385 C201.236535,452.399441 204.74,441.252053 204.74,430.696 C204.74,419.593944 201.464033,411.131029 194.912,405.307 C188.359967,399.482971 180.352047,396.571 170.888,396.571 C163.425963,396.571 157.192525,398.117985 152.1875,401.212 C147.182475,404.306015 143.542511,408.218976 141.2675,412.951 C138.992489,417.683024 137.855,422.414976 137.855,427.147 C137.855,438.795058 141.403965,448.349963 148.502,455.812 L132.395,470.554 C126.38897,466.913982 121.520519,460.771543 117.7895,452.1265 C114.058481,443.481457 112.193,435.337038 112.193,427.693 C112.193,417.68295 114.695475,408.355543 119.7005,399.7105 C124.705525,391.065457 131.939953,384.149526 141.404,378.9625 C150.868047,373.775474 162.151934,371.182 175.256,371.182 C186.358056,371.182 196.231457,373.775474 204.8765,378.9625 C213.521543,384.149526 220.209976,391.110956 224.942,399.847 C229.674024,408.583044 232.04,418.137948 232.04,428.512 C232.04,438.886052 229.583025,449.259948 224.669,459.634 C219.754975,470.008052 213.703536,479.744955 206.5145,488.845 C199.325464,497.945045 189.72506,509.228933 177.713,522.697 L173.618,527.338 L238.046,527.338 Z M330.608826,553.819 C315.866752,553.819 302.808383,550.133537 291.433326,542.7625 C280.058269,535.391463 271.185858,524.790069 264.815826,510.958 C258.445794,497.125931 255.260826,480.928093 255.260826,462.364 C255.260826,432.697852 261.949259,410.084578 275.326326,394.5235 C288.703393,378.962422 307.130709,371.272999 330.608826,371.455 C345.3509,371.455 358.409269,375.094964 369.784326,382.375 C381.159383,389.655036 390.031794,400.210931 396.401826,414.043 C402.771858,427.875069 405.956826,443.981908 405.956826,462.364 C405.956826,481.292095 402.771858,497.671931 396.401826,511.504 C390.031794,525.336069 381.159383,535.891964 369.784326,543.172 C358.409269,550.452036 345.3509,554.001001 330.608826,553.819 Z M330.335826,528.43 C345.805903,528.43 357.681285,522.42406 365.962326,510.412 C374.243367,498.39994 378.474825,482.202102 378.656826,461.818 C378.474825,441.979901 374.243367,426.191559 365.962326,414.4525 C357.681285,402.713441 345.805903,396.844 330.335826,396.844 C315.04775,396.844 303.308867,402.758941 295.118826,414.589 C286.928785,426.419059 282.742827,442.3439 282.560826,462.364 C282.742827,482.566101 286.928785,498.62744 295.118826,510.5485 C303.308867,522.46956 315.04775,528.43 330.335826,528.43 Z M473.130652,373.366 L473.130652,553 L446.376652,553 L446.376652,398.755 L425.901652,398.755 L425.901652,373.366 L473.130652,373.366 Z M570.334478,374.185 C582.346538,374.185 593.266429,376.869473 603.094478,382.2385 C612.922527,387.607527 620.65745,395.069452 626.299478,404.6245 C631.941506,414.179548 634.762478,425.053939 634.762478,437.248 C634.762478,454.902088 630.53102,470.917928 622.067978,485.296 C613.604936,499.674072 603.18554,512.186447 590.809478,522.8335 C578.433416,533.480553 563.236568,544.718941 545.218478,556.549 L527.473478,536.893 C543.307557,528.88496 557.04842,520.285546 568.696478,511.0945 C580.344536,501.903454 589.171448,492.758045 595.177478,483.658 C586.623435,490.574035 575.430547,494.032 561.598478,494.032 C552.316432,494.032 543.535019,491.529525 535.253978,486.5245 C526.972937,481.519475 520.284503,474.694543 515.188478,466.0495 C510.092453,457.404457 507.544478,447.713054 507.544478,436.975 C507.544478,424.598938 510.456449,413.633548 516.280478,404.0785 C522.104507,394.523452 529.79393,387.152526 539.348978,381.9655 C548.904026,376.778474 559.232422,374.185 570.334478,374.185 Z M534.844478,435.337 C534.844478,446.075054 538.347943,454.810966 545.354978,461.545 C552.362013,468.279034 561.052426,471.646 571.426478,471.646 C581.982531,471.646 590.672944,468.506531 597.497978,462.2275 C604.323012,455.948469 607.735478,447.986048 607.735478,438.34 L607.735478,433.153 C607.371476,423.506952 603.731513,415.271534 596.815478,408.4465 C589.899443,401.621466 581.436528,398.209 571.426478,398.209 C561.052426,398.209 552.362013,401.666965 545.354978,408.583 C538.347943,415.499035 534.844478,424.416945 534.844478,435.337 Z" id="2019"></path>
            </g>
        </g>
    </g>
</svg>