<?xml version="1.0" encoding="UTF-8"?>
<svg width="607px" height="120px" viewBox="0 0 607 120" version="1.1" xmlns="http://www.w3.org/2000/svg" xmlns:xlink="http://www.w3.org/1999/xlink">
    <!-- Generator: Sketch 52.5 (67469) - http://www.bohemiancoding.com/sketch -->
    <title>The Isle of Man</title>
    <desc>Created with Sketch.</desc>
    <g id="Page-1" stroke="none" stroke-width="1" fill="none" fill-rule="evenodd">
        <g id="home_desktop-1of2" transform="translate(-334.000000, -9392.000000)" fill="#FFFFFF">
            <g id="Section-9---The-Isle-of-Man" transform="translate(-245.000000, 8942.000000)">
                <g id="Group-2">
                    <g id="Group-3" transform="translate(579.000000, 450.000000)">
                        <path d="M120.507812,2.97851563 C118.684887,3.07617236 116.845712,3.17382764 114.990234,3.27148438 C110.693338,3.46679785 106.363954,3.75976367 102.001953,4.15039063 L100.830078,4.24804688 C94.7102559,4.76888281 88.5579736,5.40364209 82.3730469,6.15234375 C74.0722241,7.12891113 65.7715259,8.28449854 57.4707031,9.61914063 C51.4810898,10.5306035 45.4997043,11.5559839 39.5263672,12.6953125 C33.55303,13.8346411 27.5879204,15.1529873 21.6308594,16.6503906 C18.7337095,17.3990923 15.8528789,18.2128862 12.9882812,19.0917969 C12.4023408,19.2871104 11.8001333,19.4824209 11.1816406,19.6777344 C9.16340137,20.2636748 7.13705444,21.0123652 5.10253906,21.9238281 C3.06802368,22.835291 2.26236768,23.6165332 2.68554687,24.2675781 C3.10872607,24.918623 4.10155469,25.4882788 5.6640625,25.9765625 C5.76171924,26.0091147 5.87565039,26.0416665 6.00585937,26.0742188 L7.47070312,26.5625 C8.25195703,26.822918 9.03319922,27.0996079 9.81445312,27.3925781 C10.4329458,27.6204438 10.7747393,28.0761685 10.8398437,28.7597656 C10.872396,28.8574224 10.872396,28.9794915 10.8398437,29.1259766 C10.8072915,29.2724617 10.742188,29.3945308 10.6445312,29.4921875 C10.5468745,29.557292 10.4248054,29.6223955 10.2783203,29.6875 C10.1318352,29.7526045 10.0097661,29.7851563 9.91210937,29.7851563 C7.37303418,29.3945293 5.02930762,28.6458389 2.88085937,27.5390625 C1.18814258,26.6601519 0.26041748,25.2115986 0.09765625,23.1933594 C0.0325517578,22.3795532 0.309241699,21.6471387 0.927734375,20.9960938 C1.64388379,20.2148398 2.44140186,19.5638047 3.3203125,19.0429688 C4.9479248,18.1640581 6.62434033,17.36654 8.34960937,16.6503906 C9.94466943,15.9667935 11.5722573,15.3808618 13.2324219,14.8925781 C14.8925864,14.4042944 16.5527261,13.9322939 18.2128906,13.4765625 L18.3105469,13.4765625 C23.6816675,12.0117114 29.0527075,10.7584688 34.4238281,9.71679688 C41.682979,8.28449805 48.9257451,6.99870361 56.1523437,5.859375 C63.4114946,4.75259863 70.6379849,3.80859766 77.8320312,3.02734375 C82.3893457,2.5716123 86.9465918,2.16471533 91.5039062,1.80664063 C94.2708472,1.61132715 97.0540225,1.38346484 99.8535156,1.12304688 C101.51368,0.992837891 103.17382,0.911458496 104.833984,0.87890625 C105.550134,0.846354004 106.266272,0.830078125 106.982422,0.830078125 C108.284512,0.764973633 109.586582,0.716145996 110.888672,0.68359375 C115.543643,0.488280273 120.198544,0.309245605 124.853516,0.146484375 C126.188158,0.0813798828 127.490228,0.13020752 128.759766,0.29296875 C129.703781,0.423177734 130.273437,0.976557617 130.46875,1.953125 C130.46875,2.05078174 130.42806,2.17285083 130.34668,2.31933594 C130.265299,2.46582104 130.175782,2.60416602 130.078125,2.734375 C129.980468,2.86458398 129.882813,2.9296875 129.785156,2.9296875 C128.190096,2.73437402 126.529957,2.71809814 124.804687,2.88085938 C123.404941,3.01106836 121.972664,3.04362012 120.507812,2.97851563 Z M2.9296875,97.4609375 C2.57161279,97.1679673 2.35188843,96.7936221 2.27050781,96.3378906 C2.1891272,95.8821592 2.27864453,95.4589863 2.5390625,95.0683594 C2.73437598,94.7428369 2.9459624,94.4173193 3.17382812,94.0917969 C3.20638037,94.0592446 3.22265625,94.0266929 3.22265625,93.9941406 C8.17059766,86.7349897 13.1835684,79.5084995 18.2617187,72.3144531 C23.3398691,65.1204067 28.5318745,58.0078477 33.8378906,50.9765625 C38.3626528,45.0520537 42.9524507,39.1601855 47.6074219,33.3007813 C48.291019,32.4544229 48.9583301,31.6080771 49.609375,30.7617188 C51.7903755,27.9947778 53.9876191,25.2604302 56.2011719,22.5585938 L58.9355469,19.2382813 C59.4563828,18.5546841 60.0097627,17.887373 60.5957031,17.2363281 C60.9863301,16.7805967 61.401365,16.5771482 61.8408203,16.6259766 C62.2802756,16.6748049 62.5976553,16.9108052 62.7929687,17.3339844 C63.1184912,18.212895 63.0371118,19.1080684 62.5488281,20.0195313 C62.1256489,20.7356807 61.6373726,21.4355435 61.0839844,22.1191406 C60.4003872,22.9980513 59.7330762,23.8606729 59.0820312,24.7070313 C56.5429561,27.9622559 53.9876431,31.2174316 51.4160156,34.4726563 C45.3612979,42.0573296 39.3473606,49.6744409 33.3740234,57.3242188 C27.4006863,64.9739966 21.5495078,72.7213149 15.8203125,80.5664063 C13.5742075,83.6588696 11.360688,86.7675625 9.1796875,89.8925781 L5.2734375,95.3613281 C4.8502583,95.9147163 4.39453369,96.4680962 3.90625,97.0214844 C3.84114551,97.1516934 3.75976611,97.2656245 3.66210937,97.3632813 C3.62955713,97.3958335 3.59700537,97.4202473 3.56445312,97.4365234 C3.53190088,97.4527996 3.48307324,97.4609375 3.41796875,97.4609375 L2.9296875,97.4609375 Z M71.5974531,50.0976563 C71.5649009,50.0976563 72.0043496,49.7477249 72.9158125,49.0478516 C73.8272754,48.3479783 75.0642422,47.4121152 76.62675,46.2402344 C79.0356162,44.4173086 81.6723086,42.4072375 84.5369062,40.2099609 C87.4015039,38.0126843 89.8754375,36.1002686 91.9587812,34.4726563 C94.3676475,32.6171782 96.581167,30.5664175 98.5994062,28.3203125 C99.5434214,27.2460884 100.454871,26.1230527 101.333781,24.9511719 C101.398886,24.8535151 101.520955,24.6663425 101.699992,24.3896484 C101.87903,24.1129543 102.041788,23.8199885 102.188273,23.5107422 C102.334759,23.2014958 102.391724,22.9410818 102.359172,22.7294922 C102.32662,22.5179026 102.147585,22.4121094 101.822062,22.4121094 C100.096793,22.5748706 98.0541707,23.4863198 95.6941328,25.1464844 C93.334095,26.8066489 90.9334028,28.808582 88.4919844,31.1523438 C86.0505659,33.4961055 83.8207705,35.7910044 81.8025312,38.0371094 C79.784292,40.2832144 78.2380835,42.073561 77.1638594,43.4082031 C76.9034414,43.7011733 76.415165,44.2220015 75.6990156,44.9707031 C75.0154185,45.7194048 74.3074177,46.5087849 73.5749922,47.3388672 C72.8425667,48.1689495 72.2647729,48.8525364 71.8415937,49.3896484 C71.4184146,49.9267605 71.3370352,50.1627607 71.5974531,50.0976563 Z M100.308391,19.7265625 C101.31751,19.661458 102.212684,19.8974583 102.993937,20.4345703 C103.775191,20.9716824 104.336709,21.6471313 104.678508,22.4609375 C105.020306,23.2747437 105.012168,24.1048135 104.654094,24.9511719 C103.970497,26.5136797 103.075323,27.945957 101.968547,29.2480469 C100.080517,31.4615996 98.0297559,33.4960845 95.8162031,35.3515625 C95.3279194,35.7421895 94.8070913,36.1816382 94.2537031,36.6699219 C91.6820757,38.8183701 88.5408311,41.4062349 84.829875,44.4335938 C81.1189189,47.4609526 77.3836047,50.3906108 73.6238203,53.2226563 C69.8640359,56.0547017 66.6332739,58.2356694 63.9314375,59.765625 C63.1827358,60.6770879 62.621218,61.3769507 62.2468672,61.8652344 C61.8725164,62.3535181 61.5795505,62.7360012 61.3679609,63.0126953 C61.1563713,63.2893894 60.936647,63.5742173 60.7087812,63.8671875 C60.5134678,64.1276055 60.220502,64.5019507 59.829875,64.9902344 C59.439248,65.4785181 58.8858682,66.1946567 58.1697187,67.1386719 C58.1371665,67.2037764 58.1290286,67.2688799 58.1453047,67.3339844 C58.1615808,67.3990889 58.1697187,67.4804683 58.1697187,67.578125 C58.202271,67.6757817 58.2348228,67.7571611 58.267375,67.8222656 L58.3650312,67.8222656 C58.462688,67.8222656 58.5277915,67.8059897 58.5603437,67.7734375 C59.3415977,67.1874971 60.106564,66.6178413 60.8552656,66.0644531 L62.7107344,64.6972656 C63.980272,63.7532505 65.2742043,62.8580771 66.5925703,62.0117188 C67.9109363,61.1653604 69.2699722,60.3841182 70.6697187,59.6679688 C71.8415996,59.0820283 73.0622905,58.6263037 74.3318281,58.3007813 C75.243291,58.0729155 76.0733608,58.1136052 76.8220625,58.4228516 C77.5707642,58.7320979 78.1729717,59.1634087 78.6287031,59.7167969 C79.2146436,60.400394 79.4994714,61.1083948 79.4831953,61.8408203 C79.4669192,62.5732458 79.3204363,63.2568328 79.0437422,63.8916016 C78.7670481,64.5263704 78.514772,65.0390605 78.2869062,65.4296875 C78.254354,65.494792 78.2218022,65.5436196 78.18925,65.5761719 C77.5382051,66.7480527 76.8546182,67.9036401 76.1384687,69.0429688 C75.6827373,69.8242227 75.2432886,70.589189 74.8201094,71.3378906 C74.7224526,71.5332041 74.673625,71.7610664 74.673625,72.0214844 C74.673625,72.0540366 74.6980388,72.0865884 74.7468672,72.1191406 C74.7956956,72.1516929 74.8445232,72.1761067 74.8933516,72.1923828 C74.9421799,72.2086589 74.9828696,72.2167969 75.0154219,72.2167969 C75.0479741,72.1842446 75.0968018,72.1679688 75.1619062,72.1679688 C75.7152944,71.9726553 76.2686743,71.7610688 76.8220625,71.5332031 C78.9054062,70.4915313 81.4281675,69.2545645 84.3904219,67.8222656 C87.6456465,66.2597578 90.39627,64.9251357 92.642375,63.8183594 C94.0421216,63.1673145 94.8966052,62.8824866 95.2058516,62.9638672 C95.5150979,63.0452478 95.4418564,63.3626274 94.986125,63.9160156 C94.5303936,64.4694038 93.8305308,65.1041631 92.8865156,65.8203125 C90.2497837,67.6757905 87.0190217,69.7021375 83.1941328,71.8994141 C79.3692439,74.0966907 76.6430342,75.6347612 75.0154219,76.5136719 C73.97375,77.0670601 72.899542,77.5390605 71.7927656,77.9296875 C70.523228,78.3203145 69.5466753,77.8971416 68.8630781,76.6601563 C68.2771377,75.6184844 68.2771377,74.6093799 68.8630781,73.6328125 C69.4164663,72.7539019 69.9861221,71.8750044 70.5720625,70.9960938 C70.9301372,70.5078101 71.2719307,70.0032578 71.5974531,69.4824219 C72.1833936,68.701168 72.7367734,67.9036499 73.2576094,67.0898438 C73.8435498,66.1783809 74.4620332,65.2832075 75.1130781,64.4042969 C75.8292275,63.4602817 76.3744695,62.6709016 76.7488203,62.0361328 C77.1231711,61.401364 77.1231711,61.0595706 76.7488203,61.0107422 C76.3744695,60.9619138 75.4060547,61.3606729 73.8435469,62.2070313 C72.932084,62.6953149 72.2159453,63.085936 71.6951094,63.3789063 L71.3044844,63.5742188 C68.3096777,65.2343833 65.4939507,67.1386611 62.8572187,69.2871094 C56.802501,73.9420806 51.1710469,79.0689824 45.9626875,84.6679688 C45.0837769,85.6445361 44.1723276,86.5885371 43.2283125,87.5 L42.9353437,87.7929688 C42.6749258,88.0208345 42.38196,88.1022139 42.0564375,88.0371094 C41.730915,87.9720049 41.4542251,87.7766943 41.2263594,87.4511719 C40.9984937,87.1582017 40.8031831,86.8326841 40.6404219,86.4746094 C40.4125562,85.9537734 40.4125562,85.4329453 40.6404219,84.9121094 C40.8357354,84.5865869 41.0473218,84.2610693 41.2751875,83.9355469 C43.456188,81.0058447 45.6208799,78.0599106 47.7693281,75.0976563 C52.0336724,69.0754907 56.4607114,63.1673467 61.0505781,57.3730469 C61.5714141,56.7545542 62.0759663,56.1197949 62.56425,55.46875 C65.5590566,51.7577939 68.5782322,48.0550315 71.6218672,44.3603516 C74.6655022,40.6656716 77.7986089,37.0442886 81.0212812,33.4960938 C83.6580132,30.5338394 86.4004988,27.889009 89.2488203,25.5615234 C92.0971418,23.2340378 95.3767314,21.3541738 99.0876875,19.921875 C99.3155532,19.8567705 99.5190017,19.8079429 99.6980391,19.7753906 C99.8770764,19.7428384 100.031697,19.7265625 100.161906,19.7265625 L100.308391,19.7265625 Z M110.089437,56.6894531 C110.512617,56.6894531 111.000893,56.8033843 111.554281,57.03125 C111.944908,57.1940112 112.384357,57.5358047 112.872641,58.0566406 C113.458581,58.8378945 113.751547,59.5540332 113.751547,60.2050781 L113.751547,60.4003906 C113.751547,61.11654 113.393478,61.7512993 112.677328,62.3046875 C111.635656,62.9557324 110.594,63.5091123 109.552328,63.9648438 C108.803626,64.2903662 107.827074,64.6158838 106.622641,64.9414063 C105.092685,65.2669287 103.871994,65.4296875 102.960531,65.4296875 C101.951412,65.4296875 101.137618,65.2506528 100.519125,64.8925781 L100.372641,64.8925781 C99.9820137,65.0553394 99.1519438,65.7226504 97.8824062,66.8945313 C97.2964658,67.5781284 96.873293,68.0989565 96.612875,68.4570313 C95.8641733,69.5963599 95.4898281,70.4264297 95.4898281,70.9472656 C95.4898281,71.5657583 95.8316216,71.9889312 96.5152187,72.2167969 C97.1337114,72.3470059 97.8172983,72.4121094 98.566,72.4121094 C100.45403,72.4121094 103.937068,71.793626 109.015219,70.5566406 C113.865503,69.2219985 118.015853,67.7408936 121.466391,66.1132813 C124.558854,64.5507734 126.218994,63.7695313 126.446859,63.7695313 C126.609621,63.736979 126.788655,63.7207031 126.983969,63.7207031 C127.407148,63.7207031 127.683838,63.867186 127.814047,64.1601563 C127.846599,64.2903652 127.862875,64.3717446 127.862875,64.4042969 L127.862875,64.453125 C126.951412,65.2994834 126.105066,65.9830703 125.323812,66.5039063 C121.970931,68.717459 118.06472,70.6705645 113.605062,72.3632813 C112.010002,72.9817739 110.301035,73.5514297 108.478109,74.0722656 C105.939034,74.788415 104.490481,75.1464844 104.132406,75.1464844 C102.569898,75.4394546 101.170173,75.5859375 99.9331875,75.5859375 L99.7867031,75.5859375 C97.8010161,75.5859375 96.3036353,75.1627646 95.2945156,74.3164063 C94.7085752,73.8606748 94.2365747,73.3398467 93.8785,72.7539063 C93.2274551,71.6796821 92.9019375,70.6054741 92.9019375,69.53125 L92.9019375,69.4335938 C92.9019375,67.5781157 93.7320073,65.8365967 95.3921719,64.2089844 C95.8153511,63.7207007 96.4012827,63.1510449 97.1499844,62.5 C98.6148354,61.2304624 100.09594,60.1725303 101.593344,59.3261719 C104.946225,57.5683506 107.778228,56.6894531 110.089437,56.6894531 Z M102.862875,62.8417969 C102.862875,62.9394536 102.96053,62.9882813 103.155844,62.9882813 C104.002202,62.9882813 105.532135,62.613936 107.745687,61.8652344 C108.819912,61.4420552 109.601154,61.06771 110.089437,60.7421875 C110.610273,60.3190083 110.870687,60.0097666 110.870687,59.8144531 C110.870687,59.7493486 110.756756,59.700521 110.528891,59.6679688 C109.584875,59.700521 107.745701,60.2864526 105.011312,61.4257813 C103.579014,62.1093784 102.862875,62.5813789 102.862875,62.8417969 Z M156.311687,119.580078 C156.083822,119.580078 155.872235,119.53125 155.676922,119.433594 C155.156086,119.205728 154.895672,118.668624 154.895672,117.822266 C154.895672,117.203773 155.69319,116.097013 157.28825,114.501953 C159.339042,112.320953 161.422354,110.156261 163.53825,108.007813 C167.835146,103.580707 172.099427,99.1048403 176.331219,94.5800781 C183.850788,86.3769121 191.321416,78.1575933 198.743328,69.921875 L203.870281,64.2578125 C212.040895,55.1757358 219.934696,45.8659331 227.551922,36.328125 C233.736849,28.8085562 238.082508,22.6725498 240.589031,17.9199219 C240.686688,17.7246084 240.816895,17.2770217 240.979656,16.5771484 C241.142417,15.8772751 241.020348,15.2506538 240.613445,14.6972656 C240.206542,14.1438774 239.286955,13.8671875 237.854656,13.8671875 C235.73876,13.8671875 232.988137,14.2578086 229.602703,15.0390625 C222.01803,16.8619883 213.994021,19.3033701 205.530437,22.3632813 C196.611122,25.5208491 187.854699,29.0527148 179.260906,32.9589844 C173.271293,35.6608208 168.535012,38.3300649 165.051922,40.9667969 C164.042802,41.650394 163.391767,42.1793601 163.098797,42.5537109 C162.805827,42.9280618 162.700033,43.302407 162.781414,43.6767578 C162.862795,44.0511086 163.098795,44.270833 163.489422,44.3359375 C167.5259,45.3125049 172.343561,45.8984365 177.942547,46.09375 C180.676936,46.1914067 183.411283,46.2402344 186.145672,46.2402344 L187.073406,46.2402344 C189.645034,46.2402344 192.216623,46.4843726 194.78825,46.9726563 C196.773937,47.2656265 197.880697,48.0305928 198.108562,49.2675781 L198.108562,49.4140625 C198.108562,49.6744805 197.978355,49.8209634 197.717937,49.8535156 L196.692547,49.9511719 C196.399577,49.9511719 196.106611,49.9186201 195.813641,49.8535156 C194.283685,49.5279932 192.542166,49.3652344 190.589031,49.3652344 L189.514812,49.3652344 L188.342937,49.3164063 L186.292156,49.3164063 C181.669737,49.3164063 177.242698,49.1210957 173.010906,48.7304688 C168.160622,48.3072896 164.596204,47.5585991 162.317547,46.484375 C160.494621,45.7356733 159.395999,44.5556721 159.021648,42.9443359 C158.647298,41.3329998 160.999162,38.7614109 166.077312,35.2294922 C171.155463,31.6975735 183.394924,26.4160508 202.796062,19.3847656 C212.952363,15.7063618 222.24589,12.9557383 230.676922,11.1328125 C232.988131,10.6119766 235.177237,10.416666 237.244305,10.546875 C239.311372,10.677084 240.857581,11.1490845 241.882977,11.9628906 C242.908372,12.7766968 243.600097,13.6555942 243.958172,14.5996094 C244.316247,15.5436245 244.495281,16.3736943 244.495281,17.0898438 C244.495281,18.4570381 244.039557,20.0195225 243.128094,21.7773438 C240.621571,26.1393447 236.731636,31.6568677 231.458172,38.3300781 C222.376095,49.821021 211.780498,62.0767578 199.671062,75.0976563 C189.05903,86.4909424 177.633363,98.3072305 165.393719,110.546875 C161.715315,114.225279 159.192554,116.780592 157.825359,118.212891 C156.979001,119.124354 156.474449,119.580078 156.311687,119.580078 Z M214.237266,84.6191406 C214.823206,84.6842451 215.368448,84.6435554 215.873008,84.4970703 C216.377568,84.3505852 216.873982,84.1634126 217.362266,83.9355469 L217.655234,83.8378906 C219.510712,83.1217412 221.008093,81.9498779 222.147422,80.3222656 C222.179974,80.2246089 222.212526,80.1106777 222.245078,79.9804688 C222.27763,79.8502598 222.27763,79.7363286 222.245078,79.6386719 C222.179974,79.5084629 222.082318,79.4352214 221.952109,79.4189453 C221.8219,79.4026692 221.691693,79.427083 221.561484,79.4921875 L219.413047,80.7617188 C217.785435,81.7057339 216.174123,82.6497349 214.579062,83.59375 C214.351197,83.723959 214.172162,83.8867178 214.041953,84.0820313 L213.993125,84.1308594 C213.960573,84.1634116 213.944297,84.2122393 213.944297,84.2773438 L213.944297,84.4238281 C213.976849,84.4563804 214.009401,84.4807942 214.041953,84.4970703 L214.188437,84.5703125 C214.22099,84.5703125 214.237266,84.5865884 214.237266,84.6191406 Z M213.553672,87.890625 C213.09794,87.8580728 212.658492,87.8092451 212.235312,87.7441406 C210.542596,87.4837227 209.484664,86.4746182 209.061484,84.7167969 C208.898723,83.9680952 209.061482,83.3496118 209.549766,82.8613281 C210.526333,81.9824175 211.551713,81.1848994 212.625937,80.46875 C214.741833,79.1341079 216.873974,77.8483135 219.022422,76.6113281 C219.380497,76.4160146 219.72229,76.2207041 220.047812,76.0253906 C220.112917,75.9928384 220.161745,75.9765625 220.194297,75.9765625 C221.268521,75.3255176 222.375281,74.7233101 223.514609,74.1699219 C224.198207,73.8443994 224.702759,73.4293645 225.028281,72.9248047 C225.353804,72.4202449 225.597942,71.8261753 225.760703,71.1425781 C226.216435,68.9615776 226.737263,66.7968857 227.323203,64.6484375 C227.778935,62.727855 228.495073,60.9049565 229.471641,59.1796875 C231.229462,56.1848809 233.801051,54.2968789 237.186484,53.515625 C237.967738,53.3203115 238.732705,53.385415 239.481406,53.7109375 C239.96969,53.9388032 240.344035,54.2968726 240.604453,54.7851563 C240.70211,55.0455742 240.710248,55.3141262 240.628867,55.5908203 C240.547487,55.8675144 240.392866,56.0384111 240.165,56.1035156 C239.937134,56.1686201 239.692996,56.2337236 239.432578,56.2988281 C239.041951,56.3639326 238.65133,56.4615879 238.260703,56.5917969 C234.712508,57.8938867 232.271126,60.2864409 230.936484,63.7695313 C230.350544,65.3971436 229.845992,67.0410073 229.422812,68.7011719 C229.422812,68.8313809 229.406537,68.945312 229.373984,69.0429688 C229.081014,70.2799541 229.504187,70.8577478 230.643516,70.7763672 C231.782844,70.6949866 233.329053,70.2473999 235.282187,69.4335938 C237.235322,68.6197876 239.269807,67.6920625 241.385703,66.6503906 C244.38051,65.1529873 246.870719,64.0787793 248.856406,63.4277344 C249.702765,63.1998687 250.109662,63.6067656 250.077109,64.6484375 C249.426064,65.1692734 247.765925,66.1132744 245.096641,67.4804688 C242.427356,68.8476631 239.741836,70.1904231 237.04,71.5087891 C234.338164,72.827155 232.580369,73.6816387 231.766562,74.0722656 C230.822547,74.5279971 229.911098,75.0162734 229.032187,75.5371094 C228.77177,75.6673184 228.527631,75.7812495 228.299766,75.8789063 C227.811482,76.1393242 227.485964,76.5299453 227.323203,77.0507813 C227.225546,77.278647 227.144167,77.4902334 227.079062,77.6855469 C226.851197,78.499353 226.574507,79.2805952 226.248984,80.0292969 C225.435178,81.8847749 224.36097,83.4391213 223.026328,84.6923828 C221.691686,85.9456443 220.047822,86.8489556 218.094687,87.4023438 C216.922807,87.695314 215.734667,87.8580728 214.530234,87.890625 L213.553672,87.890625 Z M268.598391,48.6816406 L268.696047,48.6816406 C268.793704,48.6816406 268.891359,48.6490889 268.989016,48.5839844 C276.117958,43.7336997 282.644585,38.1510732 288.569094,31.8359375 C288.731855,31.640624 288.862062,31.4127617 288.959719,31.1523438 C288.959719,31.1197915 288.943443,31.0791018 288.910891,31.0302734 C288.878338,30.9814451 288.829511,30.9407554 288.764406,30.9082031 C288.731854,30.8756509 288.683026,30.8430991 288.617922,30.8105469 C288.552817,30.7779946 288.50399,30.7617188 288.471437,30.7617188 C288.21102,30.8919277 287.966881,31.0221348 287.739016,31.1523438 C287.055418,31.5104185 286.404383,31.9010396 285.785891,32.3242188 C279.535859,36.9140854 273.823026,42.0735391 268.647219,47.8027344 C268.549562,47.9329434 268.468183,48.0631504 268.403078,48.1933594 C268.370526,48.2910161 268.337974,48.3723955 268.305422,48.4375 C268.077556,48.828127 268.175211,48.9095063 268.598391,48.6816406 Z M249.311281,83.59375 C247.748773,83.6263022 246.528083,82.8776118 245.649172,81.3476563 C245.095784,80.4036411 244.819094,79.4108125 244.819094,78.3691406 C244.819094,77.0344985 245.046956,75.7487041 245.502688,74.5117188 C246.283941,72.2656138 247.27677,70.1334736 248.481203,68.1152344 C249.229905,66.878249 249.994871,65.6575581 250.776125,64.453125 L251.655031,63.0859375 L252.240969,62.2070313 C252.859461,61.4908818 253.29891,60.660812 253.559328,59.7167969 C253.59188,59.5214834 253.681398,59.3505867 253.827883,59.2041016 C253.974368,59.0576165 254.128989,58.9192715 254.29175,58.7890625 C255.170661,58.1054653 255.919351,57.3079473 256.537844,56.3964844 L257.123781,55.6152344 C260.15114,51.7740693 263.324937,48.0875828 266.645266,44.5556641 C269.965595,41.0237454 273.464909,37.6627764 277.143312,34.4726563 C280.398537,31.6080586 283.881575,29.0527456 287.592531,26.8066406 C288.959726,25.9928345 290.392003,25.3417993 291.889406,24.8535156 C292.898526,24.5605454 293.728596,24.7884077 294.379641,25.5371094 C295.649178,26.8717515 295.795661,28.3040288 294.819094,29.8339844 C293.451899,31.7871191 291.921967,33.5937417 290.22925,35.2539063 C284.72792,40.8854448 278.754673,45.9960708 272.309328,50.5859375 C267.947327,53.7109531 263.536564,56.7870942 259.076906,59.8144531 C258.197996,60.4003936 257.449305,61.1165322 256.830812,61.9628906 C254.454499,65.1204585 252.273531,68.3919102 250.287844,71.7773438 C249.115963,73.8606875 248.204514,76.0416553 247.553469,78.3203125 C247.42326,78.8085962 247.390708,79.3131484 247.455813,79.8339844 C247.455813,79.9641934 247.512778,80.0781245 247.626711,80.1757813 C247.740644,80.273438 247.846437,80.3385415 247.944094,80.3710938 L248.188234,80.3710938 C248.774175,80.4687505 249.343831,80.4361987 249.897219,80.2734375 C251.492279,79.7200493 253.054763,79.0690142 254.584719,78.3203125 C258.458436,76.4322822 262.022854,74.4059353 265.278078,72.2412109 C268.533303,70.0764866 271.82103,67.6757944 275.141359,65.0390625 C275.987718,64.3880176 276.630615,64.0869138 277.07007,64.1357422 C277.509526,64.1845706 277.761802,64.388019 277.826906,64.7460938 C277.892011,65.1041685 277.794355,65.4134102 277.533937,65.6738281 C277.338624,65.9667983 276.939865,66.4062471 276.337648,66.9921875 C275.735432,67.5781279 275.100673,68.1803354 274.433352,68.7988281 C273.766031,69.4173208 273.25334,69.8893213 272.895266,70.2148438 C272.862713,70.247396 272.813886,70.2799478 272.748781,70.3125 C267.638079,74.8698145 262.006625,78.6783701 255.85425,81.7382813 C255.235757,82.0312515 254.584722,82.2916655 253.901125,82.5195313 C253.445394,82.6822925 253.005945,82.8613271 252.582766,83.0566406 C251.63875,83.4472676 250.548267,83.6263022 249.311281,83.59375 Z M292.539594,56.6894531 C292.962773,56.6894531 293.451049,56.8033843 294.004437,57.03125 C294.395064,57.1940112 294.834513,57.5358047 295.322797,58.0566406 C295.908737,58.8378945 296.201703,59.5540332 296.201703,60.2050781 L296.201703,60.4003906 C296.201703,61.11654 295.843634,61.7512993 295.127484,62.3046875 C294.085813,62.9557324 293.044156,63.5091123 292.002484,63.9648438 C291.253783,64.2903662 290.27723,64.6158838 289.072797,64.9414063 C287.542841,65.2669287 286.32215,65.4296875 285.410687,65.4296875 C284.401568,65.4296875 283.587774,65.2506528 282.969281,64.8925781 L282.822797,64.8925781 C282.43217,65.0553394 281.6021,65.7226504 280.332562,66.8945313 C279.746622,67.5781284 279.323449,68.0989565 279.063031,68.4570313 C278.31433,69.5963599 277.939984,70.4264297 277.939984,70.9472656 C277.939984,71.5657583 278.281778,71.9889312 278.965375,72.2167969 C279.583868,72.3470059 280.267455,72.4121094 281.016156,72.4121094 C282.904187,72.4121094 286.387225,71.793626 291.465375,70.5566406 C296.31566,69.2219985 300.466009,67.7408936 303.916547,66.1132813 C307.00901,64.5507734 308.66915,63.7695313 308.897016,63.7695313 C309.059777,63.736979 309.238812,63.7207031 309.434125,63.7207031 C309.857304,63.7207031 310.133994,63.867186 310.264203,64.1601563 C310.296755,64.2903652 310.313031,64.3717446 310.313031,64.4042969 L310.313031,64.453125 C309.401568,65.2994834 308.555223,65.9830703 307.773969,66.5039063 C304.421087,68.717459 300.514876,70.6705645 296.055219,72.3632813 C294.460159,72.9817739 292.751191,73.5514297 290.928266,74.0722656 C288.38919,74.788415 286.940637,75.1464844 286.582562,75.1464844 C285.020055,75.4394546 283.620329,75.5859375 282.383344,75.5859375 L282.236859,75.5859375 C280.251172,75.5859375 278.753792,75.1627646 277.744672,74.3164063 C277.158731,73.8606748 276.686731,73.3398467 276.328656,72.7539063 C275.677611,71.6796821 275.352094,70.6054741 275.352094,69.53125 L275.352094,69.4335938 C275.352094,67.5781157 276.182164,65.8365967 277.842328,64.2089844 C278.265507,63.7207007 278.851439,63.1510449 279.600141,62.5 C281.064992,61.2304624 282.546097,60.1725303 284.0435,59.3261719 C287.396381,57.5683506 290.228384,56.6894531 292.539594,56.6894531 Z M285.313031,62.8417969 C285.313031,62.9394536 285.410687,62.9882813 285.606,62.9882813 C286.452358,62.9882813 287.982291,62.613936 290.195844,61.8652344 C291.270068,61.4420552 292.05131,61.06771 292.539594,60.7421875 C293.06043,60.3190083 293.320844,60.0097666 293.320844,59.8144531 C293.320844,59.7493486 293.206913,59.700521 292.979047,59.6679688 C292.035032,59.700521 290.195857,60.2864526 287.461469,61.4257813 C286.02917,62.1093784 285.313031,62.5813789 285.313031,62.8417969 Z M351.945438,63.9648438 C351.912885,63.9322915 351.896609,63.8997397 351.896609,63.8671875 C351.864057,63.802083 351.815229,63.7532554 351.750125,63.7207031 C351.717573,63.6555986 351.668745,63.6149089 351.603641,63.5986328 C351.538536,63.5823567 351.489708,63.5742188 351.457156,63.5742188 C350.05741,64.0299502 348.918098,64.8111924 348.039188,65.9179688 C348.006635,65.9830732 347.990359,66.0563147 347.990359,66.1376953 C347.990359,66.2190759 347.998497,66.3004553 348.014773,66.3818359 C348.03105,66.4632166 348.071739,66.5201821 348.136844,66.5527344 C348.983202,67.0410181 349.699341,67.0247422 350.285281,66.5039063 C351.033983,65.7877568 351.587363,64.9414111 351.945438,63.9648438 Z M345.744266,62.109375 C345.711713,62.109375 345.679162,62.0930991 345.646609,62.0605469 C345.581505,61.9954424 345.516401,61.9466147 345.451297,61.9140625 C345.321088,61.9140625 345.190881,61.9466143 345.060672,62.0117188 C344.051552,62.6302114 343.115689,63.3300742 342.253055,64.1113281 C341.39042,64.892582 340.552212,65.7226519 339.738406,66.6015625 C338.696734,67.7408911 337.720182,68.961582 336.808719,70.2636719 C335.929808,71.5657617 335.360152,72.9980391 335.099734,74.5605469 C335.067182,74.8860693 335.181113,75.1871731 335.441531,75.4638672 C335.701949,75.7405613 335.978639,75.8789063 336.271609,75.8789063 C336.336714,75.846354 336.418093,75.8300781 336.51575,75.8300781 C336.80872,75.7975259 337.117962,75.7486982 337.443484,75.6835938 C338.97344,75.2604146 340.413855,74.658207 341.764773,73.8769531 C343.115692,73.0956992 344.409624,72.2168018 345.646609,71.2402344 C346.265102,70.7845029 346.582482,70.3938818 346.598758,70.0683594 C346.615034,69.7428369 346.362758,69.2057329 345.841922,68.4570313 C345.38619,67.8059863 345.011845,67.1223994 344.718875,66.40625 C344.393353,65.6249961 344.425904,64.8600298 344.816531,64.1113281 C345.011845,63.7858057 345.207155,63.476564 345.402469,63.1835938 C345.532678,62.9231758 345.679161,62.6790376 345.841922,62.4511719 C345.841922,62.4186196 345.833784,62.3860679 345.817508,62.3535156 C345.801232,62.3209634 345.793094,62.2884116 345.793094,62.2558594 C345.793094,62.1907549 345.776818,62.1419272 345.744266,62.109375 Z M369.32825,64.0625 C371.606907,63.0859326 372.314908,63.1022085 371.452273,64.1113281 C370.589639,65.1204478 369.417776,66.0156211 367.936648,66.796875 C366.455521,67.5781289 364.68145,68.2210261 362.614383,68.7255859 C360.547315,69.2301458 358.643037,69.604491 356.901492,69.8486328 C355.159947,70.0927747 353.882291,70.2473955 353.068484,70.3125 C352.254678,70.3776045 351.571091,70.7031221 351.017703,71.2890625 C348.836703,73.5677197 346.362769,75.4882734 343.595828,77.0507813 C342.098425,77.8971396 340.519665,78.515623 338.8595,78.90625 C337.004022,79.296877 335.474089,78.7760488 334.269656,77.34375 C332.609492,75.358063 332.202595,73.1445435 333.048953,70.703125 C333.504685,69.4661396 334.090616,68.2942764 334.806766,67.1875 C337.052871,63.8997231 339.868598,61.1979272 343.254031,59.0820313 C344.035285,58.5937476 344.865355,58.2031265 345.744266,57.9101563 C346.232549,57.7148428 346.712688,57.690429 347.184695,57.8369141 C347.656703,57.9833992 348.039186,58.3821582 348.332156,59.0332031 C348.332156,59.0657554 348.348432,59.114583 348.380984,59.1796875 C348.380984,59.244792 348.39726,59.3098955 348.429813,59.375 C348.722783,60.0260449 349.113404,60.2539072 349.601688,60.0585938 C349.829553,59.9934893 350.057416,59.9121099 350.285281,59.8144531 L351.066531,59.5214844 C351.945442,59.2610664 352.726684,59.2854802 353.410281,59.5947266 C354.093878,59.9039729 354.622844,60.3759734 354.997195,61.0107422 C355.371546,61.645511 355.558719,62.32096 355.558719,63.0371094 C355.493614,63.6881543 355.395959,64.3554653 355.26575,65.0390625 C355.200646,65.2669282 355.151818,65.5110664 355.119266,65.7714844 C355.086713,65.9667979 355.119265,66.1458325 355.216922,66.3085938 C355.314579,66.471355 355.444786,66.5690103 355.607547,66.6015625 C357.593234,66.6992192 359.806753,66.5445984 362.248172,66.1376953 C364.68959,65.7307922 367.049593,65.0390674 369.32825,64.0625 Z M399.86125,39.7949219 C397.843011,40.9342505 396.093354,42.1874932 394.612227,43.5546875 C393.131099,44.9218818 391.674408,46.4029868 390.242109,47.9980469 C389.753826,48.5188828 389.249273,49.0397109 388.728438,49.5605469 C388.402915,49.9186216 388.077397,50.2929668 387.751875,50.6835938 L387.458906,51.0742188 C387.426354,51.1393232 387.263595,51.302082 386.970625,51.5625 C386.645103,51.9205747 386.254481,52.3437476 385.79875,52.8320313 C385.343019,53.3203149 384.960535,53.7597637 384.651289,54.1503906 C384.342043,54.5410176 384.219974,54.752604 384.285078,54.7851563 C384.31763,54.7851563 384.521079,54.6305354 384.89543,54.3212891 C385.269781,54.0120427 385.692953,53.6458354 386.164961,53.2226563 C386.636969,52.7994771 387.035728,52.4414077 387.36125,52.1484375 C387.686772,51.8554673 387.865807,51.6927085 387.898359,51.6601563 C389.851494,50.1953052 391.861565,48.6328208 393.928633,46.9726563 C395.9957,45.3124917 397.924392,43.6523521 399.714766,41.9921875 C399.747318,41.9596353 399.836835,41.8294282 399.98332,41.6015625 C400.129805,41.3736968 400.284426,41.1132827 400.447188,40.8203125 C400.609949,40.5273423 400.72388,40.2587903 400.788984,40.0146484 C400.854089,39.7705066 400.821537,39.6158857 400.691328,39.5507813 C400.561119,39.4856768 400.284429,39.5670562 399.86125,39.7949219 Z M354.597578,98.8769531 L354.597578,99.5605469 C354.597578,99.6582036 354.646406,99.7639968 354.744063,99.8779297 C354.841719,99.9918625 354.95565,100.08138 355.085859,100.146484 C355.216068,100.211589 355.33,100.227865 355.427656,100.195313 C355.590417,100.097656 355.769452,100 355.964766,99.9023438 C356.485602,99.6419258 356.973878,99.3326841 357.429609,98.9746094 C358.666595,97.867833 359.78963,96.6796938 360.79875,95.4101563 C361.80787,94.1406187 362.751871,92.8059966 363.630781,91.40625 C366.462827,86.8163833 368.855381,82.014999 370.808516,77.0019531 C371.492113,75.1790273 372.143148,73.3235771 372.761641,71.4355469 C372.956954,70.8170542 373.070885,70.1822949 373.103438,69.53125 C373.103438,69.4335933 373.070886,69.335938 373.005781,69.2382813 C372.940677,69.1406245 372.859297,69.0429692 372.761641,68.9453125 L372.761641,68.8964844 L372.63957,68.8964844 C372.590742,68.8964844 372.541914,68.9046223 372.493086,68.9208984 C372.444258,68.9371746 372.403568,68.9615884 372.371016,68.9941406 C372.273359,69.0917974 372.191979,69.1894526 372.126875,69.2871094 C371.736248,69.6126318 371.378179,69.9869771 371.052656,70.4101563 C367.406805,75.0325752 363.98887,79.8339595 360.79875,84.8144531 C358.682854,88.1347822 356.957611,91.6503721 355.622969,95.3613281 C355.329999,96.272791 355.069584,97.1354126 354.841719,97.9492188 C354.744062,98.2747412 354.662683,98.5839829 354.597578,98.8769531 Z M382.087813,66.0644531 C385.375589,66.0319009 388.614489,65.6412798 391.804609,64.8925781 C392.227789,64.7949214 392.764893,64.6647144 393.415938,64.5019531 C393.969326,64.3391919 394.490154,64.192709 394.978438,64.0625 C395.466721,63.932291 395.889894,63.8346357 396.247969,63.7695313 C396.7037,63.7044268 396.817631,63.8997373 396.589766,64.3554688 C396.3619,64.8112002 395.710865,65.372718 394.636641,66.0400391 C393.562417,66.7073601 391.983656,67.3014297 389.900313,67.8222656 C389.444581,67.9524746 389.005132,68.0664058 388.581953,68.1640625 C386.79158,68.6523462 384.993095,69.0185535 383.186445,69.2626953 C381.379796,69.5068372 379.532483,69.3684922 377.644453,68.8476563 C377.384035,68.7825518 377.131759,68.8232415 376.887617,68.9697266 C376.643475,69.1162117 376.488854,69.3033843 376.42375,69.53125 C375.544839,73.763042 374.259045,77.8157358 372.566328,81.6894531 C370.873611,85.5631704 368.953058,89.3554502 366.804609,93.0664063 C365.339758,95.7031382 363.549412,98.1282441 361.433516,100.341797 C360.294187,101.611334 358.975841,102.652991 357.478438,103.466797 C355.655512,104.280603 354.174407,103.873706 353.035078,102.246094 C351.863197,100.358063 351.53768,98.3398545 352.058516,96.1914063 C352.546799,94.1406147 353.21411,92.1549575 354.060469,90.234375 C355.753186,86.39321 357.771395,82.7311372 360.115156,79.2480469 C365.486277,71.3052988 371.361869,63.753291 377.742109,56.5917969 C378.002527,56.2662744 378.311769,55.8919292 378.669844,55.46875 C380.720635,53.1249883 383.275948,50.3011233 386.335859,46.9970703 C389.395771,43.6930173 391.967359,41.2597734 394.050703,39.6972656 C395.775972,38.4928325 397.533767,37.3372451 399.324141,36.2304688 C400.235604,35.7096328 401.179604,35.2539082 402.156172,34.8632813 C403.230396,34.4726543 404.190673,34.7005166 405.037031,35.546875 C406.17636,36.7513081 406.355395,38.0696543 405.574141,39.5019531 C404.825439,40.8691475 403.881438,42.1061143 402.742109,43.2128906 L401.033125,44.921875 C399.07999,46.8750098 397.078057,48.7467358 395.027266,50.5371094 C391.413966,53.5644683 387.768169,56.55923 384.089766,59.5214844 L379.499922,63.2324219 C379.337161,63.3951831 379.158126,63.541666 378.962813,63.671875 L377.693281,64.7460938 C377.628177,64.8111982 377.587487,64.9169915 377.571211,65.0634766 C377.554935,65.2099617 377.563073,65.3320308 377.595625,65.4296875 C377.628177,65.5273442 377.701419,65.6168616 377.815352,65.6982422 C377.929284,65.7796228 378.051354,65.8365884 378.181563,65.8691406 C378.539637,65.9993496 378.913982,66.0644531 379.304609,66.0644531 L382.087813,66.0644531 Z M424.940922,92.5292969 C424.420086,92.5292969 423.948085,92.1875034 423.524906,91.5039063 C423.264488,91.0481748 423.134281,90.6087261 423.134281,90.1855469 C423.134281,89.7623677 423.29704,89.3554707 423.622563,88.9648438 C424.859548,87.5976494 428.505345,83.7239902 434.560063,77.34375 C440.126497,71.5168979 445.660295,65.6413057 451.161625,59.7167969 C460.927299,49.2349736 470.171998,38.3138589 478.896,26.953125 C483.420762,20.9635117 486.024903,16.6992314 486.7085,14.1601563 L486.757328,13.9648438 C486.757328,13.7695303 486.692225,13.5742197 486.562016,13.3789063 C486.269045,12.9231748 485.34132,12.6953125 483.778813,12.6953125 C482.932454,12.6953125 482.102384,12.7766919 481.288578,12.9394531 C473.443487,14.3066475 463.775615,18.4244448 452.284672,25.2929688 C446.522924,28.7435068 441.054229,32.6985454 435.878422,37.1582031 C432.623197,39.9902485 430.100436,42.8710791 428.310063,45.8007813 C427.366047,47.493498 426.828943,48.5514302 426.698734,48.9746094 C426.373212,49.6907588 426.210453,50.4557251 426.210453,51.2695313 C426.210453,52.3763076 426.61735,53.124998 427.431156,53.515625 C427.724126,53.6132817 428.033368,53.6946611 428.358891,53.7597656 C429.595876,54.1178403 430.344566,54.6874961 430.604984,55.46875 C430.637537,55.5664067 430.653813,55.6803379 430.653813,55.8105469 C430.653813,56.2988306 430.312019,56.5429688 429.628422,56.5429688 C429.433108,56.5429688 429.254074,56.5266929 429.091313,56.4941406 C426.226715,55.8105435 424.517748,53.9062656 423.964359,50.78125 C423.866703,50.2929663 423.817875,49.8046899 423.817875,49.3164063 C423.817875,48.2421821 424.045737,47.18425 424.501469,46.1425781 C426.161633,42.5292788 428.358877,39.4043101 431.093266,36.7675781 C434.315938,33.577458 437.766424,30.6803516 441.444828,28.0761719 C449.647994,22.1842153 458.388141,17.2688999 467.665531,13.3300781 C472.515816,11.2141821 477.007958,9.94466357 481.142094,9.52148438 L482.509281,9.32617188 C484.494968,9.39127637 486.073729,9.92838037 487.245609,10.9375 C488.71046,12.1419331 489.442875,13.639314 489.442875,15.4296875 C489.442875,16.7968818 489.133633,18.0338486 488.515141,19.140625 C483.306781,28.3854629 472.580977,41.9758218 456.337406,59.9121094 C455.328287,61.181647 454.823734,61.8815098 454.823734,62.0117188 C454.823734,62.1093755 454.856286,62.1582031 454.921391,62.1582031 C455.149256,62.1582031 455.68636,61.8977891 456.532719,61.3769531 C463.922079,55.940728 468.951325,52.2786553 471.620609,50.390625 C481.48394,43.2942354 490.598432,37.6790571 498.964359,33.5449219 C500.42921,32.893877 501.942867,32.4056006 503.505375,32.0800781 C503.86345,32.0149736 504.188967,31.9824219 504.481938,31.9824219 C505.784027,31.9824219 506.858235,32.5846294 507.704594,33.7890625 C508.290534,34.6028687 508.5835,35.5305938 508.5835,36.5722656 C508.5835,38.7207139 507.265154,41.8456826 504.628422,45.9472656 C501.470854,50.8626548 498.118023,55.6477632 494.569828,60.3027344 C493.300291,61.9628989 492.307462,63.3544866 491.591313,64.4775391 C490.875163,65.6005916 490.744956,66.1458335 491.200688,66.1132813 C491.298344,66.1132813 491.688965,65.8528672 492.372563,65.3320313 C492.860846,64.9739565 493.511881,64.4694043 494.325688,63.8183594 C503.082242,56.7219697 512.082803,49.96748 521.327641,43.5546875 C526.861522,39.6809702 531.581527,37.0605537 535.487797,35.6933594 C535.813319,35.5957026 536.138837,35.546875 536.464359,35.546875 C537.310718,35.546875 538.059408,35.9212202 538.710453,36.6699219 C539.361498,37.4186235 539.735843,38.3463486 539.8335,39.453125 C539.931157,40.5599014 538.824397,43.0501108 536.513188,46.9238281 C535.569172,48.4537837 534.608896,49.9511646 533.632328,51.4160156 C530.409656,56.3314048 527.675308,60.9537544 525.429203,65.2832031 C522.694814,70.5892192 520.155777,76.9205361 517.812016,84.2773438 C517.779463,84.5377617 517.681808,84.6679688 517.519047,84.6679688 C517.323733,84.6679688 517.063319,84.5540376 516.737797,84.3261719 C516.021647,83.9029927 515.61475,83.3496128 515.517094,82.6660156 C515.419437,81.9824185 515.370609,81.5429697 515.370609,81.3476563 C515.370609,80.0130142 515.940265,77.5553564 517.079594,73.9746094 C518.316579,69.9706831 520.342926,65.6006096 523.158695,60.8642578 C525.974465,56.127906 528.179846,52.5065229 529.774906,50 L535.585453,40.7714844 C535.748214,40.1855439 535.552904,39.9739575 534.999516,40.1367188 C533.567217,40.8203159 532.151215,41.5364546 530.751469,42.2851563 C526.845199,44.5638135 522.108918,47.721334 516.542484,51.7578125 C507.655721,58.2357095 498.980678,65.0064751 490.517094,72.0703125 C485.862123,76.0416865 483.127775,78.0273438 482.313969,78.0273438 C481.825685,78.0273438 481.435064,77.8808608 481.142094,77.5878906 C480.393392,76.8717412 480.019047,76.0416714 480.019047,75.0976563 C480.019047,74.2187456 480.784013,72.7376406 482.313969,70.6542969 C483.323088,69.1568936 486.203919,65.1855791 490.956547,58.7402344 C498.443563,48.7792471 503.179844,41.6178604 505.165531,37.2558594 C505.263188,36.9303369 505.312016,36.6210952 505.312016,36.328125 C505.312016,35.8723936 505.067877,35.6445313 504.579594,35.6445313 C504.416833,35.6445313 504.237798,35.677083 504.042484,35.7421875 C499.647931,37.0768296 493.023648,40.6575229 484.169438,46.484375 C463.92194,59.7982437 444.944266,74.6255693 427.235844,90.9667969 C426.812665,91.3574238 426.413906,91.7154932 426.039555,92.0410156 C425.665204,92.3665381 425.298997,92.5292969 424.940922,92.5292969 Z M551.860641,78.4667969 C551.209596,78.4667969 550.623664,78.2877622 550.102828,77.9296875 C549.386679,77.4414038 548.865851,76.7740928 548.540328,75.9277344 C548.214806,75.081376 548.149702,74.2513062 548.345016,73.4375 C548.475225,72.9492163 548.621708,72.4772158 548.784469,72.0214844 L549.077438,71.1425781 C549.077438,71.1100259 549.061162,71.0693362 549.028609,71.0205078 C548.996057,70.9716794 548.963505,70.9309897 548.930953,70.8984375 C548.898401,70.8658853 548.849573,70.8414714 548.784469,70.8251953 C548.719364,70.8089192 548.670537,70.8007813 548.637984,70.8007813 C548.605432,70.8333335 548.57288,70.8496094 548.540328,70.8496094 C547.921835,71.1100273 547.319628,71.3867173 546.733688,71.6796875 C545.008418,72.5260459 543.250624,73.2584604 541.46025,73.8769531 C540.288369,74.2350278 539.083954,74.3977866 537.846969,74.3652344 C536.902954,74.3326821 536.113573,74.0071646 535.478805,73.3886719 C534.844036,72.7701792 534.420863,72.0214888 534.209273,71.1425781 C533.997684,70.2636675 534.087201,69.4173218 534.477828,68.6035156 C534.542933,67.8222617 535.18583,66.7317778 536.406539,65.3320313 C537.627248,63.9322847 539.31994,62.6546282 541.484664,61.4990234 C543.649388,60.3434187 545.968701,59.635418 548.442672,59.375 C549.386687,59.2122388 550.314412,59.1959629 551.225875,59.3261719 C552.137338,59.4563809 552.983684,59.8144502 553.764938,60.4003906 C554.220669,60.6933608 554.497359,61.0107405 554.595016,61.3525391 C554.692672,61.6943376 554.70081,61.9954414 554.61943,62.2558594 C554.538049,62.5162773 554.432256,62.6790361 554.302047,62.7441406 C553.748659,62.7115884 553.244106,62.6627607 552.788375,62.5976563 C552.300091,62.5325518 551.738573,62.5 551.103805,62.5 C550.469036,62.5 549.630828,62.6464829 548.589156,62.9394531 C546.994096,63.3951846 545.407198,63.9811162 543.828414,64.6972656 C542.24963,65.413415 540.801077,66.3004504 539.482711,67.3583984 C538.164345,68.4163464 537.114551,69.6777271 536.333297,71.1425781 C536.203088,71.3704438 536.227502,71.5332026 536.406539,71.6308594 C536.585576,71.7285161 536.821577,71.7854817 537.114547,71.8017578 C537.407517,71.8180339 537.692345,71.8180339 537.969039,71.8017578 C538.245733,71.7854817 538.432906,71.7610679 538.530563,71.7285156 C539.8001,71.3704409 541.037067,70.9472681 542.2415,70.4589844 C544.910784,69.3196558 547.457959,67.9850337 549.883102,66.4550781 C552.308244,64.9251226 554.595005,63.1836035 556.743453,61.2304688 C557.101528,60.872394 557.475873,60.5468765 557.8665,60.2539063 C558.029261,60.1236973 558.208296,60.0585938 558.403609,60.0585938 C558.598923,60.0585938 558.794233,60.1236973 558.989547,60.2539063 C559.477831,60.6445332 559.8359,61.1165337 560.063766,61.6699219 C560.226527,62.0931011 560.177699,62.4837222 559.917281,62.8417969 C559.656863,63.1673193 559.363897,63.476561 559.038375,63.7695313 C558.908166,63.867188 558.777959,63.9811191 558.64775,64.1113281 C556.303988,66.4876421 554.236952,69.0755068 552.446578,71.875 C552.414026,71.9401045 552.381474,71.9889321 552.348922,72.0214844 C552.055952,72.4446636 551.7874,72.8922502 551.543258,73.3642578 C551.299116,73.8362654 551.111943,74.3326797 550.981734,74.8535156 C550.949182,75.0162769 550.989872,75.1464839 551.103805,75.2441406 C551.217738,75.3417974 551.356083,75.3743491 551.518844,75.3417969 C557.215487,72.7376172 561.683216,70.1578904 564.922164,67.6025391 C568.161113,65.0471877 570.10608,63.7044277 570.757125,63.5742188 C571.40817,63.4440098 571.831343,63.4602856 572.026656,63.6230469 C572.22197,63.7858081 572.22197,64.2903604 572.026656,65.1367188 C565.874282,70.0521079 561.585588,73.3642493 559.160445,75.0732422 C556.735303,76.7822351 555.278612,77.7180981 554.790328,77.8808594 C554.757776,77.8808594 554.725224,77.8971353 554.692672,77.9296875 C554.23694,78.0598965 553.773078,78.1901035 553.30107,78.3203125 C552.829063,78.4505215 552.348924,78.4993491 551.860641,78.4667969 Z M592.159266,68.0175781 C592.159266,68.1152349 592.159266,68.1966143 592.159266,68.2617188 C592.126713,68.4570322 592.110438,68.6523428 592.110438,68.8476563 C592.110438,69.0429697 592.191817,69.2057285 592.354578,69.3359375 C592.517339,69.4661465 592.680098,69.4986982 592.842859,69.4335938 C593.72177,69.0429668 595.170323,68.2617246 597.188563,67.0898438 C599.206802,65.9179629 600.956459,64.957686 602.437586,64.2089844 C603.918713,63.4602827 605.11499,63.012696 606.026453,62.8662109 C606.937916,62.7197258 606.547295,63.3870369 604.854578,64.8681641 C603.161861,66.3492913 599.239375,69.2382598 593.087,73.5351563 C592.403403,73.893231 591.719816,74.2350244 591.036219,74.5605469 C590.092204,74.9511738 589.310961,74.6744839 588.692469,73.7304688 C587.976319,72.6562446 587.813561,71.533209 588.204188,70.3613281 C588.399501,69.6451787 588.627363,68.9453159 588.887781,68.2617188 C589.115647,67.7408828 589.310958,67.2037788 589.473719,66.6503906 C589.571375,66.2597637 589.571375,65.8691426 589.473719,65.4785156 C589.473719,65.3808589 589.416753,65.2913416 589.30282,65.2099609 C589.188887,65.1285803 589.083094,65.0553389 588.985438,64.9902344 C588.855229,64.9902344 588.725021,64.9983723 588.594813,65.0146484 C588.464604,65.0309246 588.334396,65.0553384 588.204188,65.0878906 C586.413814,65.5761743 584.753674,66.3248647 583.223719,67.3339844 C578.698957,70.0032686 574.402125,72.9980303 570.333094,76.3183594 C569.421631,77.067061 568.493906,77.7669238 567.549891,78.4179688 C567.419682,78.4830732 567.289475,78.5644526 567.159266,78.6621094 C566.9314,78.8248706 566.630296,78.8655603 566.255945,78.7841797 C565.881594,78.7027991 565.596767,78.5319023 565.401453,78.2714844 C564.359781,77.0996035 564.197022,75.9114644 564.913172,74.7070313 C565.499112,73.6653594 566.150147,72.6725308 566.866297,71.7285156 C570.381939,67.0084399 573.930081,62.2884351 577.510828,57.5683594 C577.641037,57.3730459 577.754968,57.226563 577.852625,57.1289063 C577.950282,56.9986973 578.023523,56.901042 578.072352,56.8359375 C578.12118,56.770833 578.16187,56.7138674 578.194422,56.6650391 C578.226974,56.6162107 578.292078,56.5429692 578.389734,56.4453125 C578.487391,56.3476558 578.65015,56.184897 578.878016,55.9570313 C579.105881,55.7291655 579.439537,55.6559241 579.878992,55.7373047 C580.318448,55.8186853 580.652103,55.989582 580.879969,56.25 C581.368252,56.9010449 581.506597,57.4951145 581.295008,58.0322266 C581.083418,58.5693386 580.766039,59.0983047 580.342859,59.6191406 C580.245203,59.7167974 580.147547,59.8307285 580.049891,59.9609375 C579.366293,60.8724004 578.780362,61.6536426 578.292078,62.3046875 C577.934003,62.7929712 577.567796,63.2893855 577.193445,63.7939453 C576.819094,64.2985051 576.355232,64.9088506 575.801844,65.625 C575.508874,66.0481792 575.248459,66.5039038 575.020594,66.9921875 C574.955489,67.0898442 574.890386,67.2037754 574.825281,67.3339844 C574.825281,67.3339844 574.833419,67.3502603 574.849695,67.3828125 C574.865971,67.4153647 574.890385,67.4560544 574.922938,67.5048828 C574.95549,67.5537112 574.988042,67.578125 575.020594,67.578125 C575.053146,67.6106772 575.101974,67.643229 575.167078,67.6757813 C575.232183,67.7083335 575.28101,67.7246094 575.313563,67.7246094 C575.801846,67.5292959 576.273847,67.3014336 576.729578,67.0410156 C577.608489,66.4876274 578.503662,65.9342476 579.415125,65.3808594 C580.294036,64.8274712 581.189209,64.2903672 582.100672,63.7695313 C583.467866,62.9557251 584.916419,62.3372417 586.446375,61.9140625 C587.650808,61.58854 588.765706,61.7106091 589.791102,62.2802734 C590.816497,62.8499377 591.540774,63.753249 591.963953,64.9902344 C592.322028,65.999354 592.387131,67.0084585 592.159266,68.0175781 Z" id="The-Isle-of-Man"></path>
                    </g>
                </g>
            </g>
        </g>
    </g>
</svg>