<svg id="Layer_1" data-name="Layer 1" xmlns="http://www.w3.org/2000/svg" viewBox="0 0 15.52 29.12"><defs><style>.cls-1{fill:#fff;}</style></defs><title>arrow-left</title><path class="cls-1" d="M9.48,16a1.34,1.34,0,0,1,.29.39L22.28,28.9A0.92,0.92,0,0,1,22.67,30a0.85,0.85,0,0,1-1.36.39L21,30.06C16.65,25.7,12.19,21.34,7.83,17c-0.78-.78-0.78-1.07,0-1.84C12.19,10.67,16.65,6.31,21,1.85a1.32,1.32,0,0,1,1.07-.39,0.83,0.83,0,0,1,.48,1.36,1.46,1.46,0,0,1-.39.39C18,7.37,13.84,11.45,9.77,15.62c-0.1.1-.19,0.29-0.29,0.39h0Z" transform="translate(-7.25 -1.44)"/></svg>