<?xml version="1.0" encoding="utf-8"?>
<!-- Generated by IcoMoon.io -->
<!DOCTYPE svg PUBLIC "-//W3C//DTD SVG 1.1//EN" "http://www.w3.org/Graphics/SVG/1.1/DTD/svg11.dtd">
<svg version="1.1" xmlns="http://www.w3.org/2000/svg" xmlns:xlink="http://www.w3.org/1999/xlink" width="32" height="32" viewBox="0 0 32 32">
<path fill="#fff" d="M16 21.527c0.097-0.097 0.194-0.194 0.388-0.291 4.17-4.17 8.339-8.339 12.509-12.509 0.291-0.291 0.582-0.582 1.067-0.388 0.582 0.194 0.776 0.873 0.388 1.358-0.097 0.097-0.194 0.194-0.291 0.291-4.364 4.364-8.727 8.824-13.091 13.188-0.776 0.776-1.067 0.776-1.842 0-4.461-4.364-8.824-8.824-13.285-13.188-0.194-0.291-0.485-0.582-0.388-1.067 0.194-0.679 0.873-0.873 1.358-0.485 0.097 0.097 0.291 0.194 0.388 0.388 4.17 4.17 8.242 8.339 12.412 12.412 0.097 0.097 0.291 0.194 0.388 0.291z"></path>
</svg>
