<?xml version="1.0" encoding="utf-8"?>
<!-- Generator: Adobe Illustrator 19.2.1, SVG Export Plug-In . SVG Version: 6.00 Build 0)  -->
<svg version="1.1" id="Layer_1" xmlns="http://www.w3.org/2000/svg" xmlns:xlink="http://www.w3.org/1999/xlink" x="0px" y="0px"
	 viewBox="0 0 32 32" style="enable-background:new 0 0 32 32;" xml:space="preserve">
<style type="text/css">
	.st0{fill:#FFFFFF;}
</style>
<path class="st0" d="M16,10.5c-0.1,0.1-0.2,0.2-0.4,0.3c-4.2,4.2-8.3,8.3-12.5,12.5c-0.3,0.3-0.6,0.6-1.1,0.4
	c-0.6-0.2-0.8-0.9-0.4-1.4c0.1-0.1,0.2-0.2,0.3-0.3c4.4-4.4,8.7-8.8,13.1-13.2c0.8-0.8,1.1-0.8,1.8,0c4.5,4.4,8.8,8.8,13.3,13.2
	c0.2,0.3,0.5,0.6,0.4,1.1c-0.2,0.7-0.9,0.9-1.4,0.5c-0.1-0.1-0.3-0.2-0.4-0.4c-4.2-4.2-8.2-8.3-12.4-12.4
	C16.3,10.7,16.1,10.6,16,10.5L16,10.5z"/>
</svg>
