<svg id="Layer_1" data-name="Layer 1" xmlns="http://www.w3.org/2000/svg" viewBox="0 0 15.52 29.12"><defs><style>.cls-1{fill:#fff;}</style></defs><title>arrow-right</title><path class="cls-1" d="M21,16a1.34,1.34,0,0,1-.29-0.39L8.23,3.1A0.92,0.92,0,0,1,7.84,2,0.85,0.85,0,0,1,9.2,1.64L9.49,1.93C13.85,6.3,18.31,10.66,22.68,15c0.78,0.78.78,1.07,0,1.84-4.36,4.46-8.82,8.82-13.19,13.28a1.32,1.32,0,0,1-1.07.39,0.83,0.83,0,0,1-.48-1.36,1.46,1.46,0,0,1,.39-0.39c4.17-4.17,8.34-8.24,12.41-12.41,0.1-.1.19-0.29,0.29-0.39h0Z" transform="translate(-7.74 -1.44)"/></svg>