<?xml version="1.0" encoding="utf-8"?>
<!-- Generator: Adobe Illustrator 19.2.1, SVG Export Plug-In . SVG Version: 6.00 Build 0)  -->
<svg version="1.1" id="Layer_1" xmlns="http://www.w3.org/2000/svg" xmlns:xlink="http://www.w3.org/1999/xlink" x="0px" y="0px"
	 viewBox="0 0 32 32" style="enable-background:new 0 0 32 32;" xml:space="preserve">
<path d="M16,0.4c8.6,0,15.6,7,15.6,15.6s-7,15.6-15.6,15.6S0.4,24.6,0.4,16S7.4,0.4,16,0.4z M16,30.9c8.2,0,14.9-6.6,14.9-14.9
	c0-8.2-6.6-14.9-14.9-14.9C7.8,1.1,1.1,7.7,1.1,16S7.8,30.9,16,30.9z"/>
<path d="M18.2,9.8c0.1,0,0.1,0,0.2,0c0.3,0.1,0.4,0.2,0.5,0.4s0.1,0.5-0.1,0.7C18.7,11,18.7,11,18.6,11l-5.3,5.1l5.3,5.1
	c0.1,0.1,0.4,0.4,0.2,0.9c-0.1,0.2-0.3,0.4-0.5,0.4s-0.4,0-0.7-0.1c-0.1-0.1-0.1-0.1-0.1-0.1l-5.7-5.6c-0.1-0.1-0.4-0.4-0.4-0.7
	c0-0.3,0.1-0.4,0.4-0.7l5.7-5.3C17.7,10,17.8,9.8,18.2,9.8L18.2,9.8z M12.8,16.3L12.6,16l0.1-0.1l5.4-5.2c0.1-0.1,0.1-0.1,0.1-0.1
	c0,0-0.1,0-0.1,0.1l-5.7,5.6c-0.1,0.1-0.1,0.1-0.1,0.1c0,0,0.1,0.1,0.1,0.1l5.7,5.5c0,0.1,0,0.1,0,0.1c0.1,0,0-0.1,0-0.1l-5.8-5.6
	l0.2-0.3L12.8,16.3L12.8,16.3z"/>
</svg>
