<?xml version="1.0" encoding="utf-8"?>
<!-- Generated by IcoMoon.io -->
<!DOCTYPE svg PUBLIC "-//W3C//DTD SVG 1.1//EN" "http://www.w3.org/Graphics/SVG/1.1/DTD/svg11.dtd">
<svg version="1.1" xmlns="http://www.w3.org/2000/svg" xmlns:xlink="http://www.w3.org/1999/xlink" width="32" height="32" viewBox="0 0 32 32">
<path d="M16 31.635c-8.621 0-15.635-7.014-15.635-15.635s7.014-15.635 15.635-15.635c8.621 0 15.635 7.014 15.635 15.635s-7.014 15.635-15.635 15.635zM16 1.096c-8.183 0-14.904 6.648-14.904 14.904 0 8.183 6.648 14.904 14.904 14.904 8.183 0 14.904-6.648 14.904-14.904s-6.721-14.904-14.904-14.904z"></path>
<path d="M13.808 22.21c-0.073 0-0.146 0-0.219 0-0.292-0.073-0.438-0.219-0.511-0.438s-0.073-0.511 0.146-0.658c0.073-0.073 0.073-0.146 0.146-0.146l5.333-5.114-5.333-5.114c-0.146-0.146-0.438-0.438-0.219-0.877 0.073-0.219 0.292-0.365 0.511-0.438s0.438 0 0.658 0.146c0.073 0.073 0.146 0.073 0.146 0.146l5.699 5.553c0.146 0.146 0.365 0.365 0.365 0.658s-0.146 0.438-0.365 0.658l-5.699 5.333c-0.146 0.073-0.292 0.292-0.658 0.292zM19.215 15.708l0.219 0.292-0.146 0.146-5.406 5.187c-0.073 0.073-0.073 0.073-0.146 0.146 0 0 0.073 0 0.146-0.073l5.699-5.553c0.073-0.073 0.073-0.073 0.146-0.146 0 0-0.073-0.073-0.146-0.146l-5.699-5.479c0-0.073 0-0.073 0-0.073-0.073 0 0 0.073 0 0.073l5.772 5.626-0.219 0.292-0.219-0.292z"></path>
</svg>
