<?xml version="1.0" encoding="utf-8"?>
<!-- Generated by IcoMoon.io -->
<!DOCTYPE svg PUBLIC "-//W3C//DTD SVG 1.1//EN" "http://www.w3.org/Graphics/SVG/1.1/DTD/svg11.dtd">
<svg version="1.1" xmlns="http://www.w3.org/2000/svg" xmlns:xlink="http://www.w3.org/1999/xlink" width="32" height="32" viewBox="0 0 32 32">
<path fill="#fff" d="M17.939 16c3.2 3.2 6.497 6.497 9.697 9.697-0.679 0.679-1.261 1.261-1.939 1.939-3.2-3.2-6.497-6.497-9.697-9.697-3.2 3.2-6.497 6.497-9.697 9.697-0.679-0.679-1.261-1.261-1.939-1.939 3.2-3.2 6.497-6.497 9.697-9.697-3.2-3.2-6.497-6.497-9.697-9.697 0.679-0.679 1.261-1.261 1.939-1.939 3.2 3.2 6.497 6.497 9.697 9.697 3.2-3.2 6.497-6.497 9.697-9.697 0.679 0.679 1.261 1.261 1.939 1.939-3.2 3.2-6.497 6.497-9.697 9.697z"></path>
</svg>
