<?xml version="1.0" encoding="utf-8"?>
<!-- Generated by IcoMoon.io -->
<!DOCTYPE svg PUBLIC "-//W3C//DTD SVG 1.1//EN" "http://www.w3.org/Graphics/SVG/1.1/DTD/svg11.dtd">
<svg version="1.1" xmlns="http://www.w3.org/2000/svg" xmlns:xlink="http://www.w3.org/1999/xlink" width="32" height="32" viewBox="0 0 32 32">
<path fill="#fff" d="M7.176 16.679c-0.291 0.194-0.485 0.291-0.679 0.388s-0.388 0.097-0.582-0.097c-0.485-0.679-0.97-1.358-1.455-2.036-0.194-0.291-0.097-0.388 0.194-0.582 1.939-1.261 3.782-2.521 5.721-3.782 1.745-1.164 3.491-2.327 5.236-3.588 0.291-0.194 0.485-0.194 0.776 0 1.552 1.067 3.103 2.133 4.752 3.2 0.097 0.097 0.194 0.097 0.291 0.194 0-0.097 0-0.194 0-0.291 0-0.97 0-1.842 0-2.812 0-0.388 0.097-0.485 0.485-0.485 0.776 0 1.552 0 2.327 0 0.388 0 0.485 0.097 0.485 0.485 0 1.745 0 3.394 0 5.139 0 0.194 0.097 0.388 0.194 0.485 0.776 0.485 1.552 1.067 2.327 1.552 0.291 0.194 0.388 0.388 0.097 0.679-0.485 0.582-0.873 1.261-1.358 1.842-0.194 0.291-0.388 0.291-0.679 0.097-0.194-0.097-0.291-0.194-0.485-0.291 0 0 0 0-0.097 0 0 0.097 0 0.291 0 0.388 0 3.2 0 4.364 0 7.564 0 0.485-0.097 0.582-0.582 0.582-1.842 0-3.685 0-5.43 0-0.388 0-0.485-0.097-0.485-0.485 0-2.327 0-2.618 0-5.042 0-0.097 0-0.291 0-0.388-1.455 0-3.006 0-4.558 0 0 0.097 0 0.194 0 0.388 0 2.424 0 2.618 0 5.042 0 0.388-0.097 0.485-0.485 0.485-1.842 0-3.685 0-5.527 0-0.485 0-0.485-0.097-0.485-0.485 0-3.2 0-4.364 0-7.564 0-0.291 0-0.388 0-0.582z"></path>
</svg>
