<?xml version="1.0" encoding="utf-8"?>
<!-- Generated by IcoMoon.io -->
<!DOCTYPE svg PUBLIC "-//W3C//DTD SVG 1.1//EN" "http://www.w3.org/Graphics/SVG/1.1/DTD/svg11.dtd">
<svg version="1.1" xmlns="http://www.w3.org/2000/svg" xmlns:xlink="http://www.w3.org/1999/xlink" width="32" height="32" viewBox="0 0 32 32">
<path fill="#fff" d="M0 17.358c0-0.873 0-1.842 0-2.812 10.667 0 21.333 0 32 0 0 0.97 0 1.842 0 2.812-10.667 0-21.333 0-32 0zM0 4.364c10.667 0 21.333 0 32 0 0 0.97 0 1.842 0 2.812-10.667 0-21.333 0-32 0 0-0.873 0-1.842 0-2.812zM32 27.636c-10.667 0-21.333 0-32 0 0-0.97 0-1.842 0-2.812 10.667 0 21.333 0 32 0 0 0.97 0 1.842 0 2.812z"></path>
</svg>
