<?xml version="1.0" encoding="utf-8"?>
<!-- Generated by IcoMoon.io -->
<!DOCTYPE svg PUBLIC "-//W3C//DTD SVG 1.1//EN" "http://www.w3.org/Graphics/SVG/1.1/DTD/svg11.dtd">
<svg version="1.1" xmlns="http://www.w3.org/2000/svg" xmlns:xlink="http://www.w3.org/1999/xlink" width="32" height="32" viewBox="0 0 32 32">
<path d="M26.667 9.387c-0.789 0.352-1.632 0.587-2.517 0.693 0.907-0.544 1.6-1.397 1.92-2.421-0.843 0.501-1.781 0.864-2.784 1.067-0.8-0.853-1.931-1.387-3.2-1.387-2.421 0-4.373 1.963-4.373 4.373 0 0.341 0.043 0.672 0.117 1.003-3.637-0.181-6.859-1.92-9.024-4.576-0.373 0.651-0.597 1.397-0.597 2.197 0 1.515 0.768 2.859 1.952 3.648-0.715-0.021-1.397-0.224-1.984-0.544 0 0.021 0 0.032 0 0.053 0 2.123 1.504 3.893 3.509 4.288-0.363 0.096-0.757 0.149-1.152 0.149-0.277 0-0.555-0.032-0.821-0.075 0.555 1.739 2.176 3.008 4.085 3.040-1.493 1.173-3.381 1.877-5.44 1.877-0.352 0-0.704-0.021-1.045-0.064 1.941 1.237 4.235 1.963 6.709 1.963 8.053 0 12.448-6.667 12.448-12.448 0-0.192 0-0.373-0.011-0.565 0.875-0.629 1.621-1.397 2.208-2.272z"></path>
</svg>
