<svg id="Layer_1" data-name="Layer 1" xmlns="http://www.w3.org/2000/svg" viewBox="0 0 23.26 23.26"><title>social_instagram</title><path d="M16,7.12c3.11,0,3.47,0,4.7.07a6.44,6.44,0,0,1,2.16.4,3.85,3.85,0,0,1,2.21,2.21,6.43,6.43,0,0,1,.4,2.16c0.06,1.23.07,1.59,0.07,4.7s0,3.47-.07,4.7a6.43,6.43,0,0,1-.4,2.16,3.85,3.85,0,0,1-2.21,2.21,6.43,6.43,0,0,1-2.16.4c-1.23.06-1.59,0.07-4.7,0.07s-3.47,0-4.7-.07a6.43,6.43,0,0,1-2.16-.4,3.85,3.85,0,0,1-2.21-2.21,6.44,6.44,0,0,1-.4-2.16c-0.06-1.23-.07-1.59-0.07-4.7s0-3.47.07-4.7a6.44,6.44,0,0,1,.4-2.16A3.85,3.85,0,0,1,9.14,7.59a6.44,6.44,0,0,1,2.16-.4c1.23-.06,1.59-0.07,4.7-0.07M16,5c-3.16,0-3.55,0-4.79.07a8.54,8.54,0,0,0-2.82.54A5.95,5.95,0,0,0,5,9a8.54,8.54,0,0,0-.54,2.82c-0.06,1.24-.07,1.64-0.07,4.79s0,3.55.07,4.79A8.54,8.54,0,0,0,5,24.27a5.95,5.95,0,0,0,3.4,3.4,8.54,8.54,0,0,0,2.82.54c1.24,0.06,1.64.07,4.79,0.07s3.55,0,4.79-.07a8.54,8.54,0,0,0,2.82-.54,5.95,5.95,0,0,0,3.4-3.4,8.54,8.54,0,0,0,.54-2.82c0.06-1.24.07-1.64,0.07-4.79s0-3.55-.07-4.79A8.54,8.54,0,0,0,27,9a5.95,5.95,0,0,0-3.4-3.4,8.54,8.54,0,0,0-2.82-.54C19.55,5,19.16,5,16,5h0Z" transform="translate(-4.37 -5.02)"/><path d="M16,10.68a6,6,0,1,0,6,6A6,6,0,0,0,16,10.68Zm0,9.85a3.88,3.88,0,1,1,3.88-3.88A3.88,3.88,0,0,1,16,20.53Z" transform="translate(-4.37 -5.02)"/><circle cx="17.84" cy="5.42" r="1.4"/></svg>