<?xml version="1.0" encoding="utf-8"?>
<!-- Generated by IcoMoon.io -->
<!DOCTYPE svg PUBLIC "-//W3C//DTD SVG 1.1//EN" "http://www.w3.org/Graphics/SVG/1.1/DTD/svg11.dtd">
<svg version="1.1" xmlns="http://www.w3.org/2000/svg" xmlns:xlink="http://www.w3.org/1999/xlink" width="32" height="32" viewBox="0 0 32 32">
<path d="M27.829 8.917c0 0.384 0 0.779 0 1.163-0.075 0.32-0.16 0.651-0.224 0.971-0.629 3.136-2.091 5.877-4.032 8.363-2.325 2.987-4.843 5.792-8.277 7.573-0.341 0-0.683 0-1.024 0-1.92-0.683-2.987-2.112-3.541-4.011-0.16-0.555-0.363-1.099-0.544-1.653-0.928-2.901-1.835-5.813-2.795-8.704-0.309-0.928-0.704-1.067-1.611-0.672-0.501 0.224-0.96 0.512-1.429 0.768-0.363-0.416-0.693-0.8-1.024-1.173 0-0.053 0-0.096 0-0.149 0.384-0.395 0.757-0.811 1.152-1.195 1.579-1.589 3.179-3.157 5.28-4.043 1.76-0.747 2.923-0.299 3.595 1.483 0.427 1.12 0.619 2.336 0.907 3.509 0.576 2.325 1.088 4.672 1.749 6.965 0.363 1.237 0.981 1.344 1.749 0.288 0.992-1.365 1.856-2.827 2.667-4.309 0.267-0.491 0.277-1.184 0.235-1.76-0.075-1.067-0.971-1.653-2.016-1.419-0.416 0.096-0.821 0.267-1.227 0.395 0.203-2.4 2.4-4.768 5.077-5.451 0.416-0.107 0.832-0.192 1.248-0.288 0.149 0 0.288 0 0.437 0 0.181 0.043 0.363 0.107 0.544 0.139 1.536 0.213 2.613 1.184 2.944 2.677 0.043 0.181 0.107 0.352 0.16 0.533z"></path>
</svg>
