<?xml version="1.0" encoding="utf-8"?>
<!-- Generated by IcoMoon.io -->
<!DOCTYPE svg PUBLIC "-//W3C//DTD SVG 1.1//EN" "http://www.w3.org/Graphics/SVG/1.1/DTD/svg11.dtd">
<svg version="1.1" xmlns="http://www.w3.org/2000/svg" xmlns:xlink="http://www.w3.org/1999/xlink" width="32" height="32" viewBox="0 0 32 32">
<path d="M21.28 5.451h-10.688c-2.944 0-5.344 2.4-5.344 5.344v10.763c0 2.944 2.4 5.344 5.344 5.344h10.688c2.944 0 5.344-2.4 5.344-5.344v-10.763c-0.011-2.955-2.4-5.344-5.344-5.344zM12.139 22.805h-2.965v-8.949h2.976v8.949zM10.656 12.629h-0.021c-1.003 0-1.643-0.683-1.643-1.547 0-0.875 0.661-1.547 1.685-1.547 1.013 0 1.643 0.672 1.664 1.547 0 0.864-0.651 1.547-1.685 1.547zM22.869 22.805h-2.976v-4.789c0-1.205-0.427-2.027-1.504-2.027-0.821 0-1.312 0.555-1.525 1.088-0.075 0.192-0.096 0.459-0.096 0.725v5.003h-2.976c0 0 0.043-8.107 0-8.949h2.976v1.269c0.395-0.608 1.099-1.483 2.677-1.483 1.963 0 3.424 1.28 3.424 4.032v5.131z"></path>
</svg>
