<?xml version="1.0" encoding="UTF-8"?>
<svg width="507px" height="189px" viewBox="0 0 507 189" version="1.1" xmlns="http://www.w3.org/2000/svg" xmlns:xlink="http://www.w3.org/1999/xlink">
    <!-- Generator: Sketch 53.1 (72631) - https://sketchapp.com -->
    <title>1970</title>
    <desc>Created with Sketch.</desc>
    <g id="Page-1" stroke="none" stroke-width="1" fill="none" fill-rule="evenodd" fill-opacity="0">
        <g id="home_desktop-1of2" transform="translate(-81.000000, -1208.000000)" fill="#7D7D7D" fill-rule="nonzero" stroke="#979797" stroke-width="2.5">
            <g id="Section-1---1970" transform="translate(-1.000000, 900.000000)">
                <path d="M130.698,311.366 L130.698,491 L103.944,491 L103.944,336.755 L83.469,336.755 L83.469,311.366 L130.698,311.366 Z M227.901826,312.185 C239.913886,312.185 250.833777,314.869473 260.661826,320.2385 C270.489875,325.607527 278.224798,333.069452 283.866826,342.6245 C289.508854,352.179548 292.329826,363.053939 292.329826,375.248 C292.329826,392.902088 288.098368,408.917928 279.635326,423.296 C271.172284,437.674072 260.752888,450.186447 248.376826,460.8335 C236.000764,471.480553 220.803916,482.718941 202.785826,494.549 L185.040826,474.893 C200.874905,466.88496 214.615768,458.285546 226.263826,449.0945 C237.911884,439.903454 246.738796,430.758045 252.744826,421.658 C244.190783,428.574035 232.997895,432.032 219.165826,432.032 C209.88378,432.032 201.102367,429.529525 192.821326,424.5245 C184.540285,419.519475 177.851851,412.694543 172.755826,404.0495 C167.659801,395.404457 165.111826,385.713054 165.111826,374.975 C165.111826,362.598938 168.023797,351.633548 173.847826,342.0785 C179.671855,332.523452 187.361278,325.152526 196.916326,319.9655 C206.471374,314.778474 216.79977,312.185 227.901826,312.185 Z M192.411826,373.337 C192.411826,384.075054 195.915291,392.810966 202.922326,399.545 C209.929361,406.279034 218.619774,409.646 228.993826,409.646 C239.549879,409.646 248.240292,406.506531 255.065326,400.2275 C261.89036,393.948469 265.302826,385.986048 265.302826,376.34 L265.302826,371.153 C264.938824,361.506952 261.298861,353.271534 254.382826,346.4465 C247.466791,339.621466 239.003876,336.209 228.993826,336.209 C218.619774,336.209 209.929361,339.666965 202.922326,346.583 C195.915291,353.499035 192.411826,362.416945 192.411826,373.337 Z M423.385652,311.366 L351.313652,491 L321.556652,491 L384.619652,336.755 L305.722652,336.755 L305.722652,311.366 L423.385652,311.366 Z M511.853478,491.819 C497.111404,491.819 484.053035,488.133537 472.677978,480.7625 C461.302921,473.391463 452.43051,462.790069 446.060478,448.958 C439.690446,435.125931 436.505478,418.928093 436.505478,400.364 C436.505478,370.697852 443.193911,348.084578 456.570978,332.5235 C469.948045,316.962422 488.375361,309.272999 511.853478,309.455 C526.595552,309.455 539.653921,313.094964 551.028978,320.375 C562.404035,327.655036 571.276446,338.210931 577.646478,352.043 C584.01651,365.875069 587.201478,381.981908 587.201478,400.364 C587.201478,419.292095 584.01651,435.671931 577.646478,449.504 C571.276446,463.336069 562.404035,473.891964 551.028978,481.172 C539.653921,488.452036 526.595552,492.001001 511.853478,491.819 Z M511.580478,466.43 C527.050555,466.43 538.925937,460.42406 547.206978,448.412 C555.488019,436.39994 559.719477,420.202102 559.901478,399.818 C559.719477,379.979901 555.488019,364.191559 547.206978,352.4525 C538.925937,340.713441 527.050555,334.844 511.580478,334.844 C496.292402,334.844 484.553519,340.758941 476.363478,352.589 C468.173437,364.419059 463.987479,380.3439 463.805478,400.364 C463.987479,420.566101 468.173437,436.62744 476.363478,448.5485 C484.553519,460.46956 496.292402,466.43 511.580478,466.43 Z" id="1970"></path>
            </g>
        </g>
    </g>
</svg>