<?xml version="1.0" encoding="UTF-8"?>
<svg width="495px" height="190px" viewBox="0 0 495 190" version="1.1" xmlns="http://www.w3.org/2000/svg" xmlns:xlink="http://www.w3.org/1999/xlink">
    <!-- Generator: Sketch 53.2 (72643) - https://sketchapp.com -->
    <title>1998</title>
    <desc>Created with Sketch.</desc>
    <g id="Page-1" stroke="none" stroke-width="1" fill="none" fill-rule="evenodd" fill-opacity="0">
        <g id="home_desktop-1of2" transform="translate(-86.000000, -10232.000000)" fill="#FFFFFF" fill-rule="nonzero" stroke="#979797" stroke-width="2.5">
            <g id="Section-10---1998" transform="translate(0.000000, 9903.000000)">
                <g id="Bitmap" transform="translate(73.000000, 1.000000)">
                    <path d="M61.698,332.366 L61.698,512 L34.944,512 L34.944,357.755 L14.469,357.755 L14.469,332.366 L61.698,332.366 Z M158.901826,333.185 C170.913886,333.185 181.833777,335.869473 191.661826,341.2385 C201.489875,346.607527 209.224798,354.069452 214.866826,363.6245 C220.508854,373.179548 223.329826,384.053939 223.329826,396.248 C223.329826,413.902088 219.098368,429.917928 210.635326,444.296 C202.172284,458.674072 191.752888,471.186447 179.376826,481.8335 C167.000764,492.480553 151.803916,503.718941 133.785826,515.549 L116.040826,495.893 C131.874905,487.88496 145.615768,479.285546 157.263826,470.0945 C168.911884,460.903454 177.738796,451.758045 183.744826,442.658 C175.190783,449.574035 163.997895,453.032 150.165826,453.032 C140.88378,453.032 132.102367,450.529525 123.821326,445.5245 C115.540285,440.519475 108.851851,433.694543 103.755826,425.0495 C98.6598005,416.404457 96.111826,406.713054 96.111826,395.975 C96.111826,383.598938 99.0237969,372.633548 104.847826,363.0785 C110.671855,353.523452 118.361278,346.152526 127.916326,340.9655 C137.471374,335.778474 147.79977,333.185 158.901826,333.185 Z M123.411826,394.337 C123.411826,405.075054 126.915291,413.810966 133.922326,420.545 C140.929361,427.279034 149.619774,430.646 159.993826,430.646 C170.549879,430.646 179.240292,427.506531 186.065326,421.2275 C192.89036,414.948469 196.302826,406.986048 196.302826,397.34 L196.302826,392.153 C195.938824,382.506952 192.298861,374.271534 185.382826,367.4465 C178.466791,360.621466 170.003876,357.209 159.993826,357.209 C149.619774,357.209 140.929361,360.666965 133.922326,367.583 C126.915291,374.499035 123.411826,383.416945 123.411826,394.337 Z M301.423652,333.185 C313.435712,333.185 324.355603,335.869473 334.183652,341.2385 C344.011701,346.607527 351.746624,354.069452 357.388652,363.6245 C363.03068,373.179548 365.851652,384.053939 365.851652,396.248 C365.851652,413.902088 361.620194,429.917928 353.157152,444.296 C344.69411,458.674072 334.274714,471.186447 321.898652,481.8335 C309.52259,492.480553 294.325742,503.718941 276.307652,515.549 L258.562652,495.893 C274.396731,487.88496 288.137594,479.285546 299.785652,470.0945 C311.43371,460.903454 320.260622,451.758045 326.266652,442.658 C317.712609,449.574035 306.519721,453.032 292.687652,453.032 C283.405606,453.032 274.624193,450.529525 266.343152,445.5245 C258.062111,440.519475 251.373677,433.694543 246.277652,425.0495 C241.181627,416.404457 238.633652,406.713054 238.633652,395.975 C238.633652,383.598938 241.545623,372.633548 247.369652,363.0785 C253.193681,353.523452 260.883104,346.152526 270.438152,340.9655 C279.9932,335.778474 290.321596,333.185 301.423652,333.185 Z M265.933652,394.337 C265.933652,405.075054 269.437117,413.810966 276.444152,420.545 C283.451187,427.279034 292.1416,430.646 302.515652,430.646 C313.071705,430.646 321.762118,427.506531 328.587152,421.2275 C335.412186,414.948469 338.824652,406.986048 338.824652,397.34 L338.824652,392.153 C338.46065,382.506952 334.820687,374.271534 327.904652,367.4465 C320.988617,360.621466 312.525702,357.209 302.515652,357.209 C292.1416,357.209 283.451187,360.666965 276.444152,367.583 C269.437117,374.499035 265.933652,383.416945 265.933652,394.337 Z M378.425478,455.216 C378.425478,442.657937 381.883443,431.965544 388.799478,423.1385 C395.715513,414.311456 403.99643,407.89602 413.642478,403.892 C407.636448,400.069981 402.995494,395.565526 399.719478,390.3785 C396.443462,385.191474 394.805478,378.867037 394.805478,371.405 C394.805478,363.578961 396.852958,356.526531 400.947978,350.2475 C405.042998,343.968469 410.684942,339.054518 417.873978,335.5055 C425.063014,331.956482 433.116433,330.182 442.034478,330.182 C450.770522,330.182 458.778442,331.956482 466.058478,335.5055 C473.338514,339.054518 479.071457,343.87747 483.257478,349.9745 C487.443499,356.07153 489.536478,362.850963 489.536478,370.313 C489.536478,378.139039 487.898494,384.645474 484.622478,389.8325 C481.346462,395.019526 476.614509,399.705979 470.426478,403.892 C480.254527,408.078021 488.626443,414.584456 495.542478,423.4115 C502.458513,432.238544 505.916478,442.839938 505.916478,455.216 C505.916478,465.590052 503.095506,475.281455 497.453478,484.2905 C491.81145,493.299545 484.076527,500.533973 474.248478,505.994 C464.420429,511.454027 453.591537,514.184 441.761478,514.184 C429.931419,514.184 419.193526,511.499527 409.547478,506.1305 C399.90143,500.761473 392.303006,493.527045 386.751978,484.427 C381.20095,475.326954 378.425478,465.590052 378.425478,455.216 Z M420.467478,374.408 C420.467478,380.050028 422.696956,384.87298 427.155978,388.877 C431.615,392.88102 436.756449,394.883 442.580478,394.883 C448.404507,394.883 453.454957,392.88102 457.731978,388.877 C462.008999,384.87298 464.147478,380.050028 464.147478,374.408 C464.147478,368.037968 462.054499,362.760021 457.868478,358.574 C453.682457,354.387979 448.586508,352.295 442.580478,352.295 C436.574448,352.295 431.3875,354.387979 427.019478,358.574 C422.651456,362.760021 420.467478,368.037968 420.467478,374.408 Z M405.452478,454.124 C405.452478,460.858034 407.090462,467.091471 410.366478,472.8245 C413.642494,478.557529 418.05595,483.152983 423.606978,486.611 C429.158006,490.069017 435.209445,491.798 441.761478,491.798 C448.495512,491.798 454.728949,490.069017 460.461978,486.611 C466.195007,483.152983 470.790461,478.557529 474.248478,472.8245 C477.706495,467.091471 479.435478,460.858034 479.435478,454.124 C479.435478,447.389966 477.797494,441.202028 474.521478,435.56 C471.245462,429.917972 466.741007,425.413517 461.007978,422.0465 C455.274949,418.679483 449.041512,416.996 442.307478,416.996 C435.755445,416.996 429.658506,418.633984 424.016478,421.91 C418.37445,425.186016 413.869995,429.690471 410.502978,435.4235 C407.135961,441.156529 405.452478,447.389966 405.452478,454.124 Z" id="1998"></path>
                </g>
            </g>
        </g>
    </g>
</svg>