<?xml version="1.0" encoding="UTF-8"?>
<svg width="256px" height="58px" viewBox="0 0 256 58" version="1.1" xmlns="http://www.w3.org/2000/svg" xmlns:xlink="http://www.w3.org/1999/xlink">
    <!-- Generator: Sketch 53.2 (72643) - https://sketchapp.com -->
    <title>TheAnniversary</title>
    <desc>Created with Sketch.</desc>
    <g id="Page-1" stroke="none" stroke-width="1" fill="none" fill-rule="evenodd">
        <g id="home_desktop-1of2" transform="translate(-99.000000, -15397.000000)" fill="#000000" fill-rule="nonzero">
            <g id="Section-16---35th-Anniversary" transform="translate(0.000000, 15304.000000)">
                <path d="M159.253906,96.9892578 C158.342443,97.0380862 157.422856,97.0869138 156.495117,97.1357422 C154.346669,97.2333989 152.181977,97.3798818 150.000977,97.5751953 L149.415039,97.6240234 C146.355128,97.8844414 143.278987,98.201821 140.186523,98.5761719 C136.036112,99.0644556 131.885763,99.6422493 127.735352,100.30957 C124.740545,100.765302 121.749852,101.277992 118.763184,101.847656 C115.776515,102.417321 112.79396,103.076494 109.81543,103.825195 C108.366855,104.199546 106.926439,104.606443 105.494141,105.045898 C105.20117,105.143555 104.900067,105.24121 104.59082,105.338867 C103.581701,105.631837 102.568527,106.006183 101.55127,106.461914 C100.534012,106.917646 100.131184,107.308267 100.342773,107.633789 C100.554363,107.959312 101.050777,108.244139 101.832031,108.488281 C101.88086,108.504557 101.937825,108.520833 102.00293,108.537109 L102.735352,108.78125 C103.125979,108.911459 103.5166,109.049804 103.907227,109.196289 C104.216473,109.310222 104.38737,109.538084 104.419922,109.879883 C104.436198,109.928711 104.436198,109.989746 104.419922,110.062988 C104.403646,110.136231 104.371094,110.197265 104.322266,110.246094 C104.273437,110.278646 104.212403,110.311198 104.13916,110.34375 C104.065918,110.376302 104.004883,110.392578 103.956055,110.392578 C102.686517,110.197265 101.514654,109.822919 100.44043,109.269531 C99.5940713,108.830076 99.1302087,108.105799 99.0488281,107.09668 C99.0162759,106.689777 99.1546208,106.323569 99.4638672,105.998047 C99.8219419,105.60742 100.220701,105.281902 100.660156,105.021484 C101.473962,104.582029 102.31217,104.18327 103.174805,103.825195 C103.972335,103.483397 104.786129,103.190431 105.616211,102.946289 C106.446293,102.702147 107.276363,102.466147 108.106445,102.238281 L108.155273,102.238281 C110.840834,101.505856 113.526354,100.879234 116.211914,100.358398 C119.84149,99.642249 123.462873,98.9993518 127.076172,98.4296875 C130.705747,97.8762993 134.318992,97.4042988 137.916016,97.0136719 C140.194673,96.7858062 142.473296,96.5823577 144.751953,96.4033203 C146.135424,96.3056636 147.527011,96.1917324 148.926758,96.0615234 C149.75684,95.9964189 150.58691,95.9557292 151.416992,95.9394531 C151.775067,95.923177 152.133136,95.9150391 152.491211,95.9150391 C153.142256,95.8824868 153.793291,95.858073 154.444336,95.8417969 C156.771822,95.7441401 159.099272,95.6546228 161.426758,95.5732422 C162.094079,95.5406899 162.745114,95.5651038 163.379883,95.6464844 C163.85189,95.7115889 164.136718,95.9882788 164.234375,96.4765625 C164.234375,96.5253909 164.21403,96.5864254 164.17334,96.659668 C164.13265,96.7329105 164.087891,96.802083 164.039062,96.8671875 C163.990234,96.932292 163.941406,96.9648438 163.892578,96.9648438 C163.095048,96.867187 162.264978,96.8590491 161.402344,96.9404297 C160.70247,97.0055342 159.986332,97.0218101 159.253906,96.9892578 Z M100.464844,144.230469 C100.285806,144.083984 100.175944,143.896811 100.135254,143.668945 C100.094564,143.44108 100.139322,143.229493 100.269531,143.03418 C100.367188,142.871418 100.472981,142.70866 100.586914,142.545898 C100.60319,142.529622 100.611328,142.513346 100.611328,142.49707 C103.085299,138.867495 105.591784,135.25425 108.130859,131.657227 C110.669935,128.060203 113.265937,124.503924 115.918945,120.988281 C118.181326,118.026027 120.476225,115.080093 122.803711,112.150391 C123.14551,111.727211 123.479165,111.304039 123.804688,110.880859 C124.895188,109.497389 125.99381,108.130215 127.100586,106.779297 L128.467773,105.119141 C128.728191,104.777342 129.004881,104.443687 129.297852,104.118164 C129.493165,103.890298 129.700682,103.788574 129.92041,103.812988 C130.140138,103.837402 130.298828,103.955403 130.396484,104.166992 C130.559246,104.606448 130.518556,105.054034 130.274414,105.509766 C130.062824,105.86784 129.818686,106.217772 129.541992,106.55957 C129.200194,106.999026 128.866538,107.430336 128.541016,107.853516 C127.271478,109.481128 125.993822,111.108716 124.708008,112.736328 C121.680649,116.528665 118.67368,120.33722 115.687012,124.162109 C112.700343,127.986998 109.774754,131.860657 106.910156,135.783203 C105.787104,137.329435 104.680344,138.883781 103.589844,140.446289 L101.636719,143.180664 C101.425129,143.457358 101.197267,143.734048 100.953125,144.010742 C100.920573,144.075847 100.879883,144.132812 100.831055,144.181641 C100.814779,144.197917 100.798503,144.210124 100.782227,144.218262 C100.76595,144.2264 100.741537,144.230469 100.708984,144.230469 L100.464844,144.230469 Z M133.091023,120.548828 C133.074747,120.548828 133.294471,120.373862 133.750202,120.023926 C134.205934,119.673989 134.824417,119.206058 135.605671,118.620117 C136.810104,117.708654 138.12845,116.703619 139.560749,115.60498 C140.993048,114.506342 142.230015,113.550134 143.271687,112.736328 C144.47612,111.808589 145.58288,110.783209 146.591999,109.660156 C147.064007,109.123044 147.519732,108.561526 147.959187,107.975586 C147.991739,107.926758 148.052774,107.833171 148.142292,107.694824 C148.231811,107.556477 148.31319,107.409994 148.386433,107.255371 C148.459675,107.100748 148.488158,106.970541 148.471882,106.864746 C148.455606,106.758951 148.366089,106.706055 148.203327,106.706055 C147.340693,106.787435 146.319382,107.24316 145.139363,108.073242 C143.959344,108.903324 142.758998,109.904291 141.538288,111.076172 C140.317579,112.248053 139.202681,113.395502 138.193562,114.518555 C137.184442,115.641607 136.411338,116.536781 135.874226,117.204102 C135.744017,117.350587 135.499879,117.611001 135.141804,117.985352 C134.800005,118.359702 134.446005,118.754392 134.079792,119.169434 C133.71358,119.584475 133.424683,119.926268 133.213093,120.194824 C133.001503,120.46338 132.960814,120.58138 133.091023,120.548828 Z M147.446492,105.363281 C147.951051,105.330729 148.398638,105.448729 148.789265,105.717285 C149.179892,105.985841 149.460651,106.323566 149.63155,106.730469 C149.802449,107.137372 149.79838,107.552407 149.619343,107.975586 C149.277544,108.75684 148.829958,109.472979 148.27657,110.124023 C147.332555,111.2308 146.307174,112.248042 145.200398,113.175781 C144.956256,113.371095 144.695842,113.590819 144.419148,113.834961 C143.133334,114.909185 141.562712,116.203117 139.707234,117.716797 C137.851756,119.230476 135.984099,120.695305 134.104206,122.111328 C132.224314,123.527351 130.608933,124.617835 129.258015,125.382812 C128.883664,125.838544 128.602905,126.188475 128.41573,126.432617 C128.228554,126.676759 128.082071,126.868001 127.976277,127.006348 C127.870482,127.144695 127.76062,127.287109 127.646687,127.433594 C127.54903,127.563803 127.402547,127.750975 127.207234,127.995117 C127.01192,128.239259 126.73523,128.597328 126.377156,129.069336 C126.360879,129.101888 126.35681,129.13444 126.364949,129.166992 C126.373087,129.199544 126.377156,129.240234 126.377156,129.289062 C126.393432,129.337891 126.409708,129.378581 126.425984,129.411133 L126.474812,129.411133 C126.52364,129.411133 126.556192,129.402995 126.572468,129.386719 C126.963095,129.093749 127.345578,128.808921 127.719929,128.532227 L128.647663,127.848633 C129.282432,127.376625 129.929398,126.929039 130.588581,126.505859 C131.247764,126.08268 131.927282,125.692059 132.627156,125.333984 C133.213096,125.041014 133.823441,124.813152 134.45821,124.650391 C134.913942,124.536458 135.328977,124.556803 135.703327,124.711426 C136.077678,124.866049 136.378782,125.081704 136.606648,125.358398 C136.899618,125.700197 137.042032,126.054197 137.033894,126.42041 C137.025756,126.786623 136.952514,127.128416 136.814167,127.445801 C136.67582,127.763185 136.549682,128.01953 136.435749,128.214844 C136.419473,128.247396 136.403197,128.27181 136.386921,128.288086 C136.061399,128.874026 135.719605,129.45182 135.361531,130.021484 C135.133665,130.412111 134.91394,130.794594 134.702351,131.168945 C134.653523,131.266602 134.629109,131.380533 134.629109,131.510742 C134.629109,131.527018 134.641316,131.543294 134.66573,131.55957 C134.690144,131.575846 134.714558,131.588053 134.738972,131.596191 C134.763386,131.604329 134.783731,131.608398 134.800007,131.608398 C134.816283,131.592122 134.840697,131.583984 134.873249,131.583984 C135.149943,131.486328 135.426633,131.380534 135.703327,131.266602 C136.744999,130.745766 138.00638,130.127282 139.487507,129.411133 C141.115119,128.629879 142.490431,127.962568 143.613484,127.40918 C144.313357,127.083657 144.740599,126.941243 144.895222,126.981934 C145.049845,127.022624 145.013224,127.181314 144.785359,127.458008 C144.557493,127.734702 144.207562,128.052082 143.735554,128.410156 C142.417188,129.337895 140.801807,130.351069 138.889363,131.449707 C136.976918,132.548345 135.613813,133.317381 134.800007,133.756836 C134.279171,134.03353 133.742067,134.26953 133.188679,134.464844 C132.55391,134.660157 132.065634,134.448571 131.723835,133.830078 C131.430865,133.309242 131.430865,132.80469 131.723835,132.316406 C132.000529,131.876951 132.285357,131.437502 132.578327,130.998047 C132.757365,130.753905 132.928262,130.501629 133.091023,130.241211 C133.383993,129.850584 133.660683,129.451825 133.921101,129.044922 C134.214071,128.58919 134.523313,128.141604 134.848835,127.702148 C135.20691,127.230141 135.479531,126.835451 135.666706,126.518066 C135.853882,126.200682 135.853882,126.029785 135.666706,126.005371 C135.479531,125.980957 134.995324,126.180336 134.21407,126.603516 C133.758338,126.847657 133.400269,127.042968 133.139851,127.189453 L132.944538,127.287109 C131.447135,128.117192 130.039272,129.069331 128.720906,130.143555 C125.693547,132.47104 122.87782,135.034491 120.27364,137.833984 C119.834185,138.322268 119.37846,138.794269 118.906452,139.25 L118.759968,139.396484 C118.629759,139.510417 118.483276,139.551107 118.320515,139.518555 C118.157754,139.486002 118.019409,139.388347 117.905476,139.225586 C117.791543,139.079101 117.693888,138.916342 117.612507,138.737305 C117.498574,138.476887 117.498574,138.216473 117.612507,137.956055 C117.710164,137.793293 117.815957,137.630535 117.92989,137.467773 C119.02039,136.002922 120.102736,134.529955 121.17696,133.048828 C123.309132,130.037745 125.522652,127.083673 127.817585,124.186523 C128.078003,123.877277 128.330279,123.559897 128.574421,123.234375 C130.071825,121.378897 131.581412,119.527516 133.10323,117.680176 C134.625047,115.832836 136.191601,114.022144 137.802937,112.248047 C139.121303,110.76692 140.492546,109.444505 141.916706,108.280762 C143.340867,107.117019 144.980662,106.177087 146.83614,105.460938 C146.950073,105.428385 147.051797,105.403971 147.141316,105.387695 C147.230834,105.371419 147.308145,105.363281 147.373249,105.363281 L147.446492,105.363281 Z M150.629311,123.844727 C150.840901,123.844727 151.085039,123.901692 151.361733,124.015625 C151.557047,124.097006 151.776771,124.267902 152.020913,124.52832 C152.313883,124.918947 152.460366,125.277017 152.460366,125.602539 L152.460366,125.700195 C152.460366,126.05827 152.281331,126.37565 151.923256,126.652344 C151.402421,126.977866 150.881592,127.254556 150.360756,127.482422 C149.986406,127.645183 149.498129,127.807942 148.895913,127.970703 C148.130935,128.133464 147.520589,128.214844 147.064858,128.214844 C146.560298,128.214844 146.153401,128.125326 145.844155,127.946289 L145.770913,127.946289 C145.575599,128.02767 145.160564,128.361325 144.525796,128.947266 C144.232825,129.289064 144.021239,129.549478 143.89103,129.728516 C143.516679,130.29818 143.329506,130.713215 143.329506,130.973633 C143.329506,131.282879 143.500403,131.494466 143.842202,131.608398 C144.151448,131.673503 144.493242,131.706055 144.867592,131.706055 C145.811608,131.706055 147.553127,131.396813 150.092202,130.77832 C152.517344,130.110999 154.592519,129.370447 156.317788,128.556641 C157.864019,127.775387 158.694089,127.384766 158.808022,127.384766 C158.889403,127.36849 158.97892,127.360352 159.076577,127.360352 C159.288166,127.360352 159.426511,127.433593 159.491616,127.580078 C159.507892,127.645183 159.51603,127.685872 159.51603,127.702148 L159.51603,127.726562 C159.060298,128.149742 158.637126,128.491535 158.246499,128.751953 C156.570058,129.858729 154.616953,130.835282 152.387124,131.681641 C151.589594,131.990887 150.73511,132.275715 149.823647,132.536133 C148.554109,132.894208 147.829833,133.073242 147.650796,133.073242 C146.869542,133.219727 146.169679,133.292969 145.551186,133.292969 L145.477944,133.292969 C144.4851,133.292969 143.73641,133.081382 143.23185,132.658203 C142.93888,132.430337 142.70288,132.169923 142.523842,131.876953 C142.19832,131.339841 142.035561,130.802737 142.035561,130.265625 L142.035561,130.216797 C142.035561,129.289058 142.450596,128.418298 143.280678,127.604492 C143.492268,127.36035 143.785234,127.075522 144.159585,126.75 C144.89201,126.115231 145.632563,125.586265 146.381264,125.163086 C148.057705,124.284175 149.473706,123.844727 150.629311,123.844727 Z M147.01603,126.920898 C147.01603,126.969727 147.064858,126.994141 147.162514,126.994141 C147.585693,126.994141 148.35066,126.806968 149.457436,126.432617 C149.994548,126.221028 150.385169,126.033855 150.629311,125.871094 C150.889729,125.659504 151.019936,125.504883 151.019936,125.407227 C151.019936,125.374674 150.962971,125.35026 150.849038,125.333984 C150.37703,125.35026 149.457443,125.643226 148.090249,126.212891 C147.374099,126.554689 147.01603,126.790689 147.01603,126.920898 Z M170.300614,144.035156 C170.089025,144.035156 169.901852,143.913087 169.739091,143.668945 C169.641434,143.506184 169.592607,143.351563 169.592607,143.205078 C169.592607,143.042317 169.65771,142.895834 169.787919,142.765625 C170.145994,142.423826 173.108204,140.006858 178.674638,135.514648 C186.356968,129.297169 190.291662,126.05827 190.478837,125.797852 C190.666013,125.537434 190.63753,125.415365 190.393388,125.431641 C185.185029,126.115238 180.538265,126.920894 176.452958,127.848633 C175.590324,128.060222 174.73584,128.312499 173.889482,128.605469 C173.742997,128.670573 173.580238,128.727539 173.4012,128.776367 C172.994297,128.8903 172.790849,129.150714 172.790849,129.557617 C172.74202,130.094729 172.595538,130.387695 172.351396,130.436523 C172.188635,130.469076 172.074703,130.485352 172.009599,130.485352 C171.798009,130.485352 171.594561,130.403972 171.399247,130.241211 C170.894687,129.86686 170.642411,129.39486 170.642411,128.825195 C170.642411,128.467121 170.797032,128.157879 171.106279,127.897461 C171.643391,127.490558 172.229322,127.197592 172.864091,127.018555 C178.642115,125.35839 185.347777,124.178389 192.981279,123.478516 C193.534667,123.445963 194.014805,123.266929 194.421708,122.941406 C195.740074,121.948563 197.050282,120.947596 198.352372,119.938477 C205.269725,114.63246 212.268353,109.416041 219.348466,104.289062 C221.090011,103.003249 222.823392,101.709316 224.548661,100.407227 C225.606609,99.6259727 226.558748,98.7226614 227.405107,97.6972656 C227.665525,97.4042954 227.852697,97.054364 227.96663,96.6474609 C227.96663,96.2242817 227.315595,95.91504 226.013505,95.7197266 C224.890453,95.5569653 224.035969,95.4755859 223.450029,95.4755859 C220.276185,95.4755859 217.346526,95.7604138 214.660966,96.3300781 C208.801562,97.5345112 203.12128,99.3411338 197.61995,101.75 C192.720837,103.931 188.92042,106.339831 186.218583,108.976562 C184.672352,110.490242 183.899247,111.670243 183.899247,112.516602 C183.899247,112.907229 184.224765,113.192056 184.87581,113.371094 C186.015138,113.696616 187.178864,113.867513 188.367021,113.883789 C189.018066,113.883789 189.669101,113.859375 190.320146,113.810547 C190.580564,113.794271 190.857254,113.782064 191.150224,113.773926 C191.443194,113.765788 191.752436,113.745443 192.077958,113.712891 L193.664872,113.639648 C193.941566,113.639648 194.169429,113.737304 194.348466,113.932617 C194.527503,114.127931 194.617021,114.315103 194.617021,114.494141 C194.617021,114.689454 194.446124,114.852213 194.104325,114.982422 C193.127758,115.291668 191.850102,115.446289 190.271318,115.446289 C187.781071,115.446289 186.002931,115.226565 184.936845,114.787109 C183.870759,114.347654 183.191241,113.879723 182.898271,113.383301 C182.605301,112.886879 182.458818,112.418948 182.458818,111.979492 C182.458818,111.491208 182.536128,111.031415 182.690751,110.600098 C182.845374,110.16878 183.183099,109.652021 183.703935,109.049805 C187.431167,104.752908 193.331173,101.131525 201.40413,98.1855469 C205.521989,96.6555913 209.74558,95.4593142 214.075029,94.5966797 C216.516447,94.0921199 218.941553,93.807292 221.350419,93.7421875 C222.5223,93.7584636 223.686025,93.8154292 224.84163,93.9130859 C226.64828,94.1246755 227.95035,94.6617795 228.74788,95.5244141 C229.089679,95.8987649 229.260575,96.2731101 229.260575,96.6474609 C229.260575,97.444991 228.463057,98.4540955 226.867997,99.6748047 L197.742021,123.014648 L208.533036,122.257812 C214.60403,114.03837 220.561002,106.917673 226.40413,100.895508 C226.957518,100.195635 227.445795,99.8457031 227.868974,99.8457031 C227.982907,99.8457031 228.039872,99.8863928 228.039872,99.9677734 C228.039872,100.130535 227.600424,100.749018 226.721513,101.823242 C221.545706,107.926788 216.540873,114.510381 211.706864,121.574219 C211.576656,121.753256 211.511552,121.940429 211.511552,122.135742 C211.511552,122.31478 211.576656,122.493814 211.706864,122.672852 C211.771969,122.786784 211.804521,122.908854 211.804521,123.039062 C211.739416,123.2181 211.682451,123.323893 211.633622,123.356445 C211.340652,123.50293 211.035479,123.625 210.718095,123.722656 C210.400711,123.820313 210.152503,124.007486 209.973466,124.28418 C207.890122,127.637061 206.775225,130.395823 206.628739,132.560547 L206.653154,132.926758 C206.653154,133.1709 206.726395,133.36621 206.87288,133.512695 C207.100746,133.756837 207.654126,133.878906 208.533036,133.878906 C209.688641,133.878906 210.795401,133.675458 211.853349,133.268555 C213.269372,132.747719 214.559235,131.982752 215.722978,130.973633 C216.886721,129.964513 217.851066,128.817064 218.616044,127.53125 C218.746253,127.31966 218.843908,127.213867 218.909013,127.213867 C218.957841,127.213867 218.982255,127.278971 218.982255,127.40918 C218.982255,127.718426 218.823565,128.243323 218.506181,128.983887 C218.188796,129.72445 217.680175,130.538244 216.980302,131.425293 C216.280429,132.312342 215.352704,133.134274 214.197099,133.891113 C213.041494,134.647953 211.633631,135.197264 209.973466,135.539062 C209.647944,135.604167 209.322426,135.636719 208.996904,135.636719 C207.727366,135.636719 206.775227,135.15658 206.140458,134.196289 C205.603346,133.431311 205.334794,132.56869 205.334794,131.608398 C205.334794,129.931958 205.920726,127.938163 207.092607,125.626953 C207.466958,124.92708 207.65413,124.495769 207.65413,124.333008 C207.65413,124.300456 207.641923,124.271973 207.617509,124.247559 L207.519853,124.149902 C207.479162,124.109212 207.45068,124.088867 207.434404,124.088867 C205.416164,124.170248 203.682783,124.276041 202.234208,124.40625 C200.541491,124.552735 198.873214,124.634115 197.229325,124.650391 C196.28531,124.682943 195.438965,125.000323 194.690263,125.602539 C186.991657,131.592152 179.659373,137.191055 172.693193,142.399414 C171.456207,143.327153 170.756344,143.839843 170.593583,143.9375 C170.577307,143.9375 170.569169,143.945638 170.569169,143.961914 C170.471512,144.010742 170.381995,144.035156 170.300614,144.035156 Z M227.169958,129.508789 L227.169958,129.630859 C227.153681,129.728516 227.145543,129.826171 227.145543,129.923828 C227.145543,130.021485 227.186233,130.102864 227.267614,130.167969 C227.348994,130.233073 227.430374,130.249349 227.511754,130.216797 C227.95121,130.021483 228.675486,129.630862 229.684606,129.044922 C230.693726,128.458981 231.568554,127.978843 232.309118,127.604492 C233.049681,127.230141 233.64782,127.006348 234.103551,126.933105 C234.559283,126.859863 234.363972,127.193518 233.517614,127.934082 C232.671255,128.674646 230.710012,130.11913 227.633825,132.267578 C227.292026,132.446615 226.950233,132.617512 226.608434,132.780273 C226.136427,132.975587 225.745805,132.837242 225.436559,132.365234 C225.078484,131.828122 224.997105,131.266604 225.192419,130.680664 C225.290075,130.322589 225.404006,129.972658 225.534215,129.630859 C225.648148,129.370441 225.745804,129.101889 225.827184,128.825195 C225.876012,128.629882 225.876012,128.434571 225.827184,128.239258 C225.827184,128.190429 225.798701,128.145671 225.741735,128.10498 C225.684768,128.06429 225.631872,128.027669 225.583044,127.995117 C225.517939,127.995117 225.452835,127.999186 225.387731,128.007324 C225.322627,128.015462 225.257523,128.027669 225.192419,128.043945 C224.297232,128.288087 223.467162,128.662432 222.702184,129.166992 C220.439803,130.501634 218.291387,131.999015 216.256872,133.65918 C215.80114,134.033531 215.337278,134.383462 214.86527,134.708984 C214.800166,134.741537 214.735062,134.782226 214.669958,134.831055 C214.556025,134.912435 214.405473,134.93278 214.218297,134.89209 C214.031122,134.8514 213.888708,134.765951 213.791051,134.635742 C213.270215,134.049802 213.188836,133.455732 213.546911,132.853516 C213.839881,132.33268 214.165398,131.836265 214.523473,131.364258 C216.281294,129.00422 218.055365,126.644218 219.845739,124.28418 C219.910843,124.186523 219.967809,124.113281 220.016637,124.064453 L220.126501,123.917969 C220.150915,123.885417 220.17126,123.856934 220.187536,123.83252 C220.203812,123.808105 220.236364,123.771485 220.285192,123.722656 L220.529333,123.478516 C220.643265,123.364583 220.810093,123.327962 221.029821,123.368652 C221.249549,123.409343 221.416376,123.494791 221.530309,123.625 C221.774451,123.950522 221.843623,124.247557 221.737829,124.516113 C221.632034,124.784669 221.473344,125.049152 221.261754,125.30957 C221.212926,125.358399 221.164098,125.415364 221.11527,125.480469 L220.236364,126.652344 C220.057326,126.896486 219.874223,127.144693 219.687047,127.396973 C219.499872,127.649253 219.267941,127.954425 218.991247,128.3125 C218.844762,128.52409 218.714554,128.751952 218.600622,128.996094 C218.568069,129.044922 218.535518,129.101888 218.502965,129.166992 L218.515172,129.191406 C218.52331,129.207682 218.535517,129.228027 218.551794,129.252441 C218.56807,129.276856 218.584346,129.289062 218.600622,129.289062 C218.616898,129.305339 218.641312,129.321615 218.673864,129.337891 C218.706416,129.354167 218.73083,129.362305 218.747106,129.362305 C218.991248,129.264648 219.227248,129.150717 219.455114,129.020508 C219.894569,128.743814 220.342156,128.467124 220.797887,128.19043 C221.237343,127.913736 221.684929,127.645184 222.140661,127.384766 C222.824258,126.977863 223.548534,126.668621 224.313512,126.457031 C224.915729,126.29427 225.473178,126.355305 225.985876,126.640137 C226.498573,126.924969 226.860712,127.376625 227.072301,127.995117 C227.251339,128.499677 227.28389,129.004229 227.169958,129.508789 Z M242.657465,129.508789 L242.657465,129.630859 C242.641189,129.728516 242.633051,129.826171 242.633051,129.923828 C242.633051,130.021485 242.67374,130.102864 242.755121,130.167969 C242.836502,130.233073 242.917881,130.249349 242.999262,130.216797 C243.438717,130.021483 244.162994,129.630862 245.172113,129.044922 C246.181233,128.458981 247.056061,127.978843 247.796625,127.604492 C248.537188,127.230141 249.135327,127.006348 249.591058,126.933105 C250.04679,126.859863 249.851479,127.193518 249.005121,127.934082 C248.158763,128.674646 246.197519,130.11913 243.121332,132.267578 C242.779533,132.446615 242.43774,132.617512 242.095941,132.780273 C241.623934,132.975587 241.233313,132.837242 240.924066,132.365234 C240.565992,131.828122 240.484612,131.266604 240.679926,130.680664 C240.777582,130.322589 240.891514,129.972658 241.021723,129.630859 C241.135655,129.370441 241.233311,129.101889 241.314691,128.825195 C241.36352,128.629882 241.36352,128.434571 241.314691,128.239258 C241.314691,128.190429 241.286208,128.145671 241.229242,128.10498 C241.172276,128.06429 241.119379,128.027669 241.070551,127.995117 C241.005446,127.995117 240.940343,127.999186 240.875238,128.007324 C240.810134,128.015462 240.74503,128.027669 240.679926,128.043945 C239.784739,128.288087 238.954669,128.662432 238.189691,129.166992 C235.92731,130.501634 233.778894,131.999015 231.744379,133.65918 C231.288647,134.033531 230.824785,134.383462 230.352777,134.708984 C230.287673,134.741537 230.222569,134.782226 230.157465,134.831055 C230.043532,134.912435 229.89298,134.93278 229.705805,134.89209 C229.518629,134.8514 229.376215,134.765951 229.278558,134.635742 C228.757723,134.049802 228.676343,133.455732 229.034418,132.853516 C229.327388,132.33268 229.652906,131.836265 230.01098,131.364258 C231.768802,129.00422 233.542872,126.644218 235.333246,124.28418 C235.39835,124.186523 235.455316,124.113281 235.504144,124.064453 L235.614008,123.917969 C235.638422,123.885417 235.658767,123.856934 235.675043,123.83252 C235.691319,123.808105 235.723871,123.771485 235.772699,123.722656 L236.01684,123.478516 C236.130773,123.364583 236.2976,123.327962 236.517328,123.368652 C236.737056,123.409343 236.903883,123.494791 237.017816,123.625 C237.261958,123.950522 237.331131,124.247557 237.225336,124.516113 C237.119541,124.784669 236.960851,125.049152 236.749262,125.30957 C236.700433,125.358399 236.651606,125.415364 236.602777,125.480469 L235.723871,126.652344 C235.544834,126.896486 235.36173,127.144693 235.174555,127.396973 C234.987379,127.649253 234.755448,127.954425 234.478754,128.3125 C234.332269,128.52409 234.202062,128.751952 234.088129,128.996094 C234.055577,129.044922 234.023025,129.101888 233.990473,129.166992 L234.00268,129.191406 C234.010818,129.207682 234.023025,129.228027 234.039301,129.252441 C234.055577,129.276856 234.071853,129.289062 234.088129,129.289062 C234.104405,129.305339 234.128819,129.321615 234.161371,129.337891 C234.193923,129.354167 234.218337,129.362305 234.234613,129.362305 C234.478755,129.264648 234.714755,129.150717 234.942621,129.020508 C235.382076,128.743814 235.829663,128.467124 236.285394,128.19043 C236.72485,127.913736 237.172436,127.645184 237.628168,127.384766 C238.311765,126.977863 239.036042,126.668621 239.801019,126.457031 C240.403236,126.29427 240.960685,126.355305 241.473383,126.640137 C241.986081,126.924969 242.348219,127.376625 242.559808,127.995117 C242.738846,128.499677 242.771398,129.004229 242.657465,129.508789 Z M248.281691,134.171875 C247.760855,134.171875 247.329544,134.03353 246.987745,133.756836 C246.645947,133.480142 246.39774,133.138348 246.243116,132.731445 C246.088493,132.324542 246.035597,131.909507 246.084425,131.486328 C246.149529,131.095701 246.271599,130.729494 246.450636,130.387695 C246.72733,129.850583 247.036572,129.346031 247.37837,128.874023 C248.550251,127.29524 249.868597,125.838548 251.333448,124.503906 C251.49621,124.373697 251.667106,124.251628 251.846144,124.137695 C251.878696,124.105143 251.919386,124.072591 251.968214,124.040039 C252.065871,123.974935 252.183871,123.946452 252.322218,123.95459 C252.460565,123.962728 252.586703,124.007487 252.700636,124.088867 C253.221472,124.512046 253.270299,124.951495 252.84712,125.407227 C251.642687,126.61166 250.503376,127.87304 249.429152,129.191406 C249.396599,129.240235 249.35591,129.289062 249.307081,129.337891 C248.949007,129.76107 248.615351,130.200519 248.306105,130.65625 C247.996858,131.111981 247.744582,131.616534 247.549269,132.169922 C247.532993,132.251302 247.557406,132.332682 247.622511,132.414062 C247.687615,132.495443 247.768995,132.536133 247.866652,132.536133 L248.086378,132.536133 C248.281692,132.536133 248.468864,132.519857 248.647902,132.487305 C249.364051,132.324543 250.063914,132.145509 250.747511,131.950195 C252.293743,131.494464 253.782986,130.949222 255.215284,130.314453 C256.647583,129.679684 257.92524,129.085615 259.048292,128.532227 C259.910927,128.109047 260.627065,127.767254 261.19673,127.506836 C261.310663,127.474284 261.44087,127.441732 261.587355,127.40918 C261.73384,127.376627 261.864047,127.372558 261.97798,127.396973 C262.091913,127.421387 262.148878,127.490559 262.148878,127.604492 C262.10005,127.930015 261.680946,128.357256 260.891554,128.88623 C260.102162,129.415204 259.101195,129.980791 257.888624,130.583008 C256.676053,131.185224 255.42281,131.758949 254.128859,132.304199 C252.834907,132.849449 251.658975,133.292967 250.601027,133.634766 C249.543079,133.976564 248.769974,134.155599 248.281691,134.171875 Z M256.045362,121.110352 C255.980258,121.077799 255.915154,121.053385 255.85005,121.037109 C255.752393,121.020833 255.671014,120.988281 255.605909,120.939453 C255.426872,120.760416 255.321079,120.552898 255.288527,120.316895 C255.255974,120.080891 255.31294,119.881511 255.459425,119.71875 C255.947709,119.181638 256.53364,118.782879 257.217237,118.522461 C257.559036,118.408528 257.852002,118.48177 258.096144,118.742188 C258.372838,118.986329 258.478631,119.279295 258.413527,119.621094 C258.39725,119.686198 258.372837,119.751302 258.340284,119.816406 C258.307732,119.881511 258.267042,119.9222 258.218214,119.938477 C257.664826,120.247723 257.119584,120.540689 256.582472,120.817383 L256.045362,121.110352 Z M259.325838,134.293945 L259.228182,134.245117 C259.163078,134.245117 259.102043,134.23291 259.045077,134.208496 C258.98811,134.184082 258.935214,134.147461 258.886385,134.098633 C258.609691,133.854491 258.422519,133.573732 258.324862,133.256348 C258.227205,132.938963 258.243481,132.593101 258.37369,132.21875 C258.569003,131.63281 258.837555,131.07943 259.179354,130.558594 C260.432615,128.556631 261.799789,126.627939 263.280916,124.772461 C263.443678,124.560871 263.638988,124.373699 263.866854,124.210938 C263.915682,124.162109 263.976717,124.133626 264.049959,124.125488 C264.123202,124.11735 264.184237,124.121419 264.233065,124.137695 C264.444655,124.2028 264.603344,124.353352 264.709139,124.589355 C264.814934,124.825359 264.819003,125.032877 264.721346,125.211914 C264.509757,125.569989 264.281894,125.91992 264.037752,126.261719 C263.614573,126.863935 263.183262,127.474281 262.743807,128.092773 C262.092762,129.020512 261.449865,129.9401 260.815096,130.851562 C260.684887,131.046876 260.562818,131.250324 260.448885,131.461914 C260.432609,131.510742 260.416333,131.551432 260.400057,131.583984 L260.400057,131.64502 C260.400057,131.669434 260.404126,131.689779 260.412264,131.706055 L260.424471,131.730469 C260.440747,131.730469 260.457023,131.738607 260.473299,131.754883 C260.538404,131.771159 260.595369,131.783366 260.644198,131.791504 C260.693026,131.799642 260.733716,131.795573 260.766268,131.779297 C261.075514,131.60026 261.376618,131.413087 261.669588,131.217773 C264.143559,129.541333 266.544251,127.750986 268.871737,125.84668 C268.904289,125.814127 268.944979,125.781576 268.993807,125.749023 L269.677401,125.163086 C270.214513,124.739907 270.62141,124.8457 270.898104,125.480469 C270.930656,125.578125 270.946932,125.671712 270.946932,125.76123 C270.946932,125.850749 270.906242,125.936198 270.824862,126.017578 C268.562481,128.231131 266.137375,130.233064 263.549471,132.023438 C262.686837,132.593102 261.816077,133.146482 260.937166,133.683594 C260.823234,133.764974 260.701165,133.846354 260.570956,133.927734 C260.229157,134.171876 259.814122,134.293945 259.325838,134.293945 Z M278.255728,123.844727 C278.467318,123.844727 278.711456,123.901692 278.98815,124.015625 C279.183464,124.097006 279.403188,124.267902 279.64733,124.52832 C279.9403,124.918947 280.086783,125.277017 280.086783,125.602539 L280.086783,125.700195 C280.086783,126.05827 279.907748,126.37565 279.549674,126.652344 C279.028838,126.977866 278.50801,127.254556 277.987174,127.482422 C277.612823,127.645183 277.124546,127.807942 276.52233,127.970703 C275.757352,128.133464 275.147007,128.214844 274.691275,128.214844 C274.186715,128.214844 273.779818,128.125326 273.470572,127.946289 L273.39733,127.946289 C273.202016,128.02767 272.786981,128.361325 272.152213,128.947266 C271.859242,129.289064 271.647656,129.549478 271.517447,129.728516 C271.143096,130.29818 270.955924,130.713215 270.955924,130.973633 C270.955924,131.282879 271.12682,131.494466 271.468619,131.608398 C271.777865,131.673503 272.119659,131.706055 272.49401,131.706055 C273.438025,131.706055 275.179544,131.396813 277.718619,130.77832 C280.143761,130.110999 282.218936,129.370447 283.944205,128.556641 C285.490437,127.775387 286.320506,127.384766 286.434439,127.384766 C286.51582,127.36849 286.605337,127.360352 286.702994,127.360352 C286.914584,127.360352 287.052928,127.433593 287.118033,127.580078 C287.134309,127.645183 287.142447,127.685872 287.142447,127.702148 L287.142447,127.726562 C286.686716,128.149742 286.263543,128.491535 285.872916,128.751953 C284.196475,129.858729 282.24337,130.835282 280.013541,131.681641 C279.216011,131.990887 278.361527,132.275715 277.450064,132.536133 C276.180527,132.894208 275.45625,133.073242 275.277213,133.073242 C274.495959,133.219727 273.796096,133.292969 273.177603,133.292969 L273.104361,133.292969 C272.111518,133.292969 271.362827,133.081382 270.858267,132.658203 C270.565297,132.430337 270.329297,132.169923 270.15026,131.876953 C269.824737,131.339841 269.661978,130.802737 269.661978,130.265625 L269.661978,130.216797 C269.661978,129.289058 270.077013,128.418298 270.907095,127.604492 C271.118685,127.36035 271.411651,127.075522 271.786002,126.75 C272.518427,126.115231 273.25898,125.586265 274.007681,125.163086 C275.684122,124.284175 277.100124,123.844727 278.255728,123.844727 Z M274.642447,126.920898 C274.642447,126.969727 274.691275,126.994141 274.788931,126.994141 C275.212111,126.994141 275.977077,126.806968 277.083853,126.432617 C277.620965,126.221028 278.011586,126.033855 278.255728,125.871094 C278.516146,125.659504 278.646353,125.504883 278.646353,125.407227 C278.646353,125.374674 278.589388,125.35026 278.475455,125.333984 C278.003447,125.35026 277.08386,125.643226 275.716666,126.212891 C275.000516,126.554689 274.642447,126.790689 274.642447,126.920898 Z M287.786204,128.19043 L287.920482,128.19043 C287.944896,128.19043 287.957103,128.182292 287.957103,128.166016 L288.591868,127.726562 C288.917391,127.482421 289.242908,127.24642 289.568431,127.018555 C290.772864,126.204749 291.977279,125.40723 293.181712,124.625977 C293.523511,124.430663 293.873442,124.251628 294.231517,124.088867 C294.264069,124.088867 294.296621,124.080729 294.329173,124.064453 C294.703524,123.901692 295.057524,123.901692 295.391185,124.064453 C295.724845,124.227214 295.973052,124.512042 296.135814,124.918945 C296.249746,125.244468 296.241608,125.545572 296.111399,125.822266 C295.981191,126.033855 295.850983,126.229166 295.720774,126.408203 C295.688222,126.473308 295.647533,126.530273 295.598704,126.579102 L295.256907,127.067383 C294.898833,127.604495 294.532625,128.133461 294.158274,128.654297 C293.865304,129.0612 293.914132,129.443683 294.304759,129.801758 C294.369863,129.883138 294.418691,129.964518 294.451243,130.045898 L294.500071,130.143555 C294.532624,130.224935 294.524486,130.310384 294.475657,130.399902 C294.426829,130.489421 294.353587,130.53418 294.255931,130.53418 L294.158274,130.53418 C293.930409,130.550456 293.72696,130.517904 293.547923,130.436523 C293.238677,130.257486 292.998607,130.033693 292.827708,129.765137 C292.656809,129.496581 292.530671,129.207684 292.44929,128.898438 C292.400462,128.7194 292.4086,128.532228 292.473704,128.336914 L292.669017,127.702148 L292.815501,127.311523 C292.848053,127.181314 292.799226,127.140625 292.669017,127.189453 C292.620188,127.205729 292.563223,127.230143 292.498118,127.262695 C292.335357,127.3278 292.180736,127.409179 292.034251,127.506836 C289.137101,129.476247 286.419029,131.665353 283.879954,134.074219 C283.407947,134.52995 282.927808,134.977537 282.439524,135.416992 C282.293039,135.530925 282.126212,135.563477 281.939036,135.514648 C281.751861,135.46582 281.585033,135.351889 281.438548,135.172852 C281.096749,134.782225 281.023508,134.375328 281.218821,133.952148 C281.381583,133.626626 281.576893,133.325522 281.804759,133.048828 C284.164797,129.777327 286.524799,126.514014 288.884837,123.258789 C288.99877,123.112304 289.137115,122.990235 289.299876,122.892578 C289.348704,122.876302 289.40567,122.872233 289.470774,122.880371 C289.535879,122.888509 289.592845,122.908854 289.641673,122.941406 C289.902091,123.104167 290.072988,123.303547 290.154368,123.539551 C290.235749,123.775555 290.211335,124.007486 290.081126,124.235352 L288.909251,126.139648 C288.74649,126.367514 288.591869,126.603514 288.445384,126.847656 C288.331451,127.026694 288.21752,127.213866 288.103587,127.40918 C287.957102,127.620769 287.818757,127.832356 287.688548,128.043945 C287.607167,128.174154 287.639719,128.222982 287.786204,128.19043 Z M290.138946,137.80957 C290.431916,137.842123 290.704537,137.821778 290.956817,137.748535 C291.209097,137.675293 291.457304,137.581706 291.701446,137.467773 L291.84793,137.418945 C292.775669,137.060871 293.52436,136.474939 294.094024,135.661133 C294.1103,135.612304 294.126576,135.555339 294.142852,135.490234 C294.159128,135.42513 294.159128,135.368164 294.142852,135.319336 C294.1103,135.254231 294.061472,135.217611 293.996368,135.209473 C293.931263,135.201335 293.86616,135.213542 293.801055,135.246094 L292.726836,135.880859 C291.91303,136.352867 291.107374,136.824867 290.309844,137.296875 C290.195911,137.361979 290.106394,137.443359 290.041289,137.541016 L290.016875,137.56543 C290.000599,137.581706 289.992461,137.60612 289.992461,137.638672 L289.992461,137.711914 C290.008737,137.72819 290.025013,137.740397 290.041289,137.748535 L290.114532,137.785156 C290.130808,137.785156 290.138946,137.793294 290.138946,137.80957 Z M289.797149,139.445312 C289.569283,139.429036 289.349559,139.404623 289.137969,139.37207 C288.291611,139.241861 287.762645,138.737309 287.551055,137.858398 C287.469674,137.484048 287.551054,137.174806 287.795196,136.930664 C288.283479,136.491209 288.79617,136.09245 289.333282,135.734375 C290.39123,135.067054 291.4573,134.424157 292.531524,133.805664 C292.710561,133.708007 292.881458,133.610352 293.044219,133.512695 C293.076771,133.496419 293.101185,133.488281 293.117461,133.488281 C293.654573,133.162759 294.207953,132.861655 294.777618,132.584961 C295.119416,132.4222 295.371692,132.214682 295.534454,131.962402 C295.697215,131.710122 295.819284,131.413088 295.900664,131.071289 C296.12853,129.980789 296.388944,128.898443 296.681914,127.824219 C296.90978,126.863927 297.26785,125.952478 297.756133,125.089844 C298.635044,123.59244 299.920838,122.648439 301.613555,122.257812 C302.004182,122.160156 302.386665,122.192708 302.761016,122.355469 C303.005158,122.469402 303.19233,122.648436 303.322539,122.892578 C303.371368,123.022787 303.375437,123.157063 303.334746,123.29541 C303.294056,123.433757 303.216746,123.519206 303.102813,123.551758 C302.98888,123.58431 302.866811,123.616862 302.736602,123.649414 C302.541288,123.681966 302.345978,123.730794 302.150664,123.795898 C300.376567,124.446943 299.155876,125.64322 298.488555,127.384766 C298.195585,128.198572 297.943309,129.020504 297.731719,129.850586 C297.731719,129.91569 297.723581,129.972656 297.707305,130.021484 C297.56082,130.639977 297.772406,130.928874 298.342071,130.888184 C298.911735,130.847493 299.684839,130.6237 300.661407,130.216797 C301.637974,129.809894 302.655216,129.346031 303.713164,128.825195 C305.210568,128.076494 306.455673,127.53939 307.448516,127.213867 C307.871695,127.099934 308.075144,127.303383 308.058868,127.824219 C307.733345,128.084637 306.903275,128.556637 305.568633,129.240234 C304.233991,129.923832 302.891231,130.595212 301.540313,131.254395 C300.189395,131.913578 299.310497,132.340819 298.903594,132.536133 C298.431587,132.763999 297.975862,133.008137 297.536407,133.268555 C297.406198,133.333659 297.284129,133.390625 297.170196,133.439453 C296.926054,133.569662 296.763295,133.764973 296.681914,134.025391 C296.633086,134.139323 296.592396,134.245117 296.559844,134.342773 C296.445911,134.749677 296.307566,135.140298 296.144805,135.514648 C295.737902,136.442387 295.200798,137.219561 294.533477,137.846191 C293.866156,138.472822 293.044224,138.924478 292.067657,139.201172 C291.481716,139.347657 290.887647,139.429036 290.28543,139.445312 L289.797149,139.445312 Z M313.463367,134.733398 C313.137844,134.733398 312.844879,134.643881 312.584461,134.464844 C312.226386,134.220702 311.965972,133.887046 311.803211,133.463867 C311.640449,133.040688 311.607898,132.625653 311.705554,132.21875 C311.770659,131.974608 311.8439,131.738608 311.925281,131.510742 L312.071765,131.071289 C312.071765,131.055013 312.063627,131.034668 312.047351,131.010254 C312.031075,130.98584 312.014799,130.965495 311.998523,130.949219 C311.982247,130.932943 311.957833,130.920736 311.925281,130.912598 C311.892729,130.90446 311.868315,130.900391 311.852039,130.900391 C311.835763,130.916667 311.819487,130.924805 311.803211,130.924805 C311.493964,131.055014 311.192861,131.193359 310.89989,131.339844 C310.037256,131.763023 309.158358,132.12923 308.263172,132.438477 C307.677231,132.617514 307.075024,132.698893 306.456531,132.682617 C305.984523,132.666341 305.589833,132.503582 305.272449,132.194336 C304.955065,131.88509 304.743478,131.510744 304.637683,131.071289 C304.531889,130.631834 304.576647,130.208661 304.771961,129.801758 C304.804513,129.411131 305.125962,128.865889 305.736316,128.166016 C306.346671,127.466142 307.193016,126.827314 308.275379,126.249512 C309.357741,125.671709 310.517397,125.317709 311.754383,125.1875 C312.22639,125.106119 312.690253,125.097981 313.145984,125.163086 C313.601716,125.22819 314.024888,125.407225 314.415515,125.700195 C314.643381,125.84668 314.781726,126.00537 314.830554,126.17627 C314.879383,126.347169 314.883452,126.497721 314.842761,126.62793 C314.802071,126.758139 314.749175,126.839518 314.68407,126.87207 C314.407376,126.855794 314.1551,126.83138 313.927234,126.798828 C313.683092,126.766276 313.402333,126.75 313.084949,126.75 C312.767565,126.75 312.348461,126.823241 311.827625,126.969727 C311.030095,127.197592 310.236646,127.490558 309.447254,127.848633 C308.657862,128.206708 307.933585,128.650225 307.274402,129.179199 C306.615219,129.708173 306.090322,130.338864 305.699695,131.071289 C305.634591,131.185222 305.646797,131.266601 305.736316,131.31543 C305.825835,131.364258 305.943835,131.392741 306.09032,131.400879 C306.236805,131.409017 306.379219,131.409017 306.517566,131.400879 C306.655913,131.392741 306.749499,131.380534 306.798328,131.364258 C307.433097,131.18522 308.05158,130.973634 308.653797,130.729492 C309.988439,130.159828 311.262026,129.492517 312.474597,128.727539 C313.687169,127.962561 314.830549,127.091802 315.904773,126.115234 C316.083811,125.936197 316.270983,125.773438 316.466297,125.626953 C316.547677,125.561849 316.637195,125.529297 316.734851,125.529297 C316.832508,125.529297 316.930163,125.561849 317.02782,125.626953 C317.271962,125.822267 317.450997,126.058267 317.564929,126.334961 C317.64631,126.546551 317.621896,126.741861 317.491687,126.920898 C317.361478,127.08366 317.214995,127.238281 317.052234,127.384766 C316.98713,127.433594 316.922026,127.49056 316.856922,127.555664 C315.685041,128.743821 314.651522,130.037753 313.756336,131.4375 C313.74006,131.470052 313.723784,131.494466 313.707508,131.510742 C313.561022,131.722332 313.426746,131.946125 313.304675,132.182129 C313.182605,132.418133 313.089018,132.66634 313.023914,132.926758 C313.007638,133.008138 313.027983,133.073242 313.084949,133.12207 C313.141915,133.170899 313.211088,133.187175 313.292468,133.170898 C316.14079,131.868809 318.374654,130.578945 319.994129,129.30127 C321.613603,128.023594 322.586087,127.352214 322.911609,127.287109 C323.237132,127.222005 323.448718,127.230143 323.546375,127.311523 C323.644031,127.392904 323.644031,127.64518 323.546375,128.068359 C320.470187,130.526054 318.32584,132.182125 317.113269,133.036621 C315.900698,133.891118 315.172352,134.359049 314.928211,134.44043 C314.911935,134.44043 314.895659,134.448568 314.879383,134.464844 C314.651517,134.529948 314.419586,134.595052 314.183582,134.660156 C313.947578,134.725261 313.707509,134.749675 313.463367,134.733398 Z M324.385444,128.19043 L324.519722,128.19043 C324.544136,128.19043 324.556343,128.182292 324.556343,128.166016 L325.191108,127.726562 C325.516631,127.482421 325.842148,127.24642 326.167671,127.018555 C327.372104,126.204749 328.576519,125.40723 329.780952,124.625977 C330.122751,124.430663 330.472682,124.251628 330.830757,124.088867 C330.863309,124.088867 330.895861,124.080729 330.928413,124.064453 C331.302764,123.901692 331.656764,123.901692 331.990425,124.064453 C332.324085,124.227214 332.572292,124.512042 332.735054,124.918945 C332.848987,125.244468 332.840849,125.545572 332.71064,125.822266 C332.580431,126.033855 332.450224,126.229166 332.320015,126.408203 C332.287462,126.473308 332.246773,126.530273 332.197944,126.579102 L331.856147,127.067383 C331.498073,127.604495 331.131865,128.133461 330.757515,128.654297 C330.464544,129.0612 330.513372,129.443683 330.903999,129.801758 C330.969104,129.883138 331.017931,129.964518 331.050483,130.045898 L331.099312,130.143555 C331.131864,130.224935 331.123726,130.310384 331.074897,130.399902 C331.026069,130.489421 330.952828,130.53418 330.855171,130.53418 L330.757515,130.53418 C330.529649,130.550456 330.3262,130.517904 330.147163,130.436523 C329.837917,130.257486 329.597848,130.033693 329.426948,129.765137 C329.256049,129.496581 329.129911,129.207684 329.04853,128.898438 C328.999702,128.7194 329.00784,128.532228 329.072944,128.336914 L329.268257,127.702148 L329.414741,127.311523 C329.447293,127.181314 329.398466,127.140625 329.268257,127.189453 C329.219428,127.205729 329.162463,127.230143 329.097358,127.262695 C328.934597,127.3278 328.779976,127.409179 328.633491,127.506836 C325.736341,129.476247 323.01827,131.665353 320.479194,134.074219 C320.007187,134.52995 319.527048,134.977537 319.038765,135.416992 C318.89228,135.530925 318.725452,135.563477 318.538276,135.514648 C318.351101,135.46582 318.184273,135.351889 318.037788,135.172852 C317.69599,134.782225 317.622748,134.375328 317.818062,133.952148 C317.980823,133.626626 318.176133,133.325522 318.403999,133.048828 C320.764037,129.777327 323.124039,126.514014 325.484077,123.258789 C325.59801,123.112304 325.736355,122.990235 325.899116,122.892578 C325.947945,122.876302 326.00491,122.872233 326.070015,122.880371 C326.135119,122.888509 326.192085,122.908854 326.240913,122.941406 C326.501331,123.104167 326.672228,123.303547 326.753608,123.539551 C326.834989,123.775555 326.810575,124.007486 326.680366,124.235352 L325.508491,126.139648 C325.34573,126.367514 325.191109,126.603514 325.044624,126.847656 C324.930691,127.026694 324.81676,127.213866 324.702827,127.40918 C324.556342,127.620769 324.417997,127.832356 324.287788,128.043945 C324.206407,128.174154 324.238959,128.222982 324.385444,128.19043 Z M336.91885,138.712891 C335.61676,140.063809 334.900621,140.796223 334.770412,140.910156 C334.558823,141.138022 334.339098,141.357746 334.111233,141.569336 C333.525292,142.106448 332.98005,142.667966 332.475491,143.253906 C331.629132,144.311854 330.831614,145.3942 330.082912,146.500977 C329.985256,146.631186 329.879462,146.769531 329.76553,146.916016 C329.667873,147.078777 329.610907,147.282225 329.594631,147.526367 C329.594631,147.591472 329.586493,147.656575 329.570217,147.72168 C329.570217,147.737956 329.582424,147.758301 329.606838,147.782715 C329.631252,147.807129 329.659735,147.827474 329.692287,147.84375 C329.72484,147.860026 329.749253,147.876302 329.76553,147.892578 C329.928291,147.92513 330.066636,147.908854 330.180569,147.84375 C330.294502,147.778646 330.392157,147.697266 330.473537,147.599609 C330.473537,147.583333 330.481675,147.575195 330.497951,147.575195 C332.255773,145.719717 334.396051,142.765645 336.91885,138.712891 Z M340.287991,131.266602 C339.815983,131.52702 339.35212,131.779296 338.896389,132.023438 C338.538314,132.235027 338.172107,132.446614 337.797756,132.658203 C337.179263,132.983726 336.479401,133.187174 335.698147,133.268555 C334.786684,133.349935 333.981028,132.97559 333.281155,132.145508 C332.532453,131.250321 332.182522,130.30632 332.23135,129.313477 C332.263902,128.825193 332.402247,128.40202 332.646389,128.043945 C332.890531,127.685871 333.175359,127.344077 333.500881,127.018555 C333.598538,126.904622 333.704331,126.790691 333.818264,126.676758 C333.867092,126.611653 334.017644,126.509929 334.269924,126.371582 C334.522204,126.233235 334.77448,126.111166 335.02676,126.005371 C335.27904,125.899576 335.454006,125.871094 335.551662,125.919922 C335.763252,126.082683 335.950425,126.261718 336.113186,126.457031 C336.275947,126.652345 336.332913,126.831379 336.284084,126.994141 C336.186428,127.270835 336.039945,127.52718 335.844631,127.763184 C335.649318,127.999187 335.437731,128.239257 335.209866,128.483398 C334.851791,128.857749 334.526273,129.260577 334.233303,129.691895 C333.940333,130.123212 333.769436,130.623695 333.720608,131.193359 C333.75316,131.356121 333.850815,131.506672 334.013576,131.64502 C334.176338,131.783367 334.330959,131.844401 334.477444,131.828125 C335.37263,131.697916 336.170149,131.429364 336.870022,131.022461 C338.823157,129.997065 340.532124,128.703133 341.996975,127.140625 C342.371326,126.717446 342.761947,126.302411 343.16885,125.895508 C343.396716,125.700194 343.697819,125.740884 344.07217,126.017578 C344.706939,126.522138 344.942939,127.059242 344.780178,127.628906 C344.601141,128.100914 344.40583,128.564776 344.194241,129.020508 C344.161688,129.101888 344.129137,129.17513 344.096584,129.240234 C343.950099,129.549481 343.811754,129.858722 343.681545,130.167969 C343.45368,130.656252 343.233955,131.152667 343.022366,131.657227 C342.989813,131.722331 342.977606,131.799641 342.985744,131.88916 C342.993883,131.978679 343.006089,132.072265 343.022366,132.169922 C343.038642,132.235026 343.107814,132.275716 343.229885,132.291992 C343.351956,132.308268 343.49437,132.30013 343.657131,132.267578 C343.819892,132.235026 343.958237,132.186198 344.07217,132.121094 C344.397693,131.942056 345.056866,131.567711 346.049709,130.998047 C347.042553,130.428383 348.149313,129.830244 349.370022,129.203613 C350.590731,128.576983 351.681215,128.076499 352.641506,127.702148 C353.601797,127.327798 354.212143,127.23828 354.472561,127.433594 C354.570218,127.547527 354.631252,127.673665 354.655666,127.812012 C354.680081,127.950359 354.651598,128.052083 354.570217,128.117188 C354.374904,128.247396 354.179593,128.377604 353.98428,128.507812 C353.658757,128.68685 353.33324,128.874022 353.007717,129.069336 C351.559142,129.899418 350.102451,130.729488 348.6376,131.55957 C346.358943,132.877936 344.137285,134.277662 341.972561,135.758789 C340.947165,136.442386 340.165923,137.33756 339.628811,138.444336 C339.140527,139.437179 338.607492,140.401525 338.02969,141.337402 C337.451887,142.273279 336.853749,143.188798 336.235256,144.083984 C335.323793,145.40235 334.355378,146.688145 333.329983,147.941406 C332.857975,148.511071 332.329009,149.040037 331.743069,149.52832 C331.40127,149.821291 331.018787,150.081705 330.595608,150.30957 C330.286361,150.472332 329.948637,150.492676 329.582424,150.370605 C329.216211,150.248535 328.878487,150.008465 328.569241,149.650391 C328.064681,149.048174 327.844956,148.421553 327.910061,147.770508 C328.007718,147.086911 328.227442,146.476565 328.569241,145.939453 C328.601793,145.874349 328.634345,145.817383 328.666897,145.768555 C329.204009,144.889644 329.781803,144.03516 330.400295,143.205078 C331.702385,141.528637 333.18349,140.014981 334.843655,138.664062 C335.950431,137.736323 337.073467,136.833012 338.212795,135.954102 C338.684803,135.596027 339.05101,135.156578 339.311428,134.635742 C339.539294,134.147458 339.767156,133.659182 339.995022,133.170898 C340.239164,132.650062 340.483302,132.137372 340.727444,131.632812 C340.727444,131.60026 340.723375,131.56364 340.715237,131.522949 C340.707099,131.482259 340.694892,131.441569 340.678616,131.400879 C340.662339,131.360189 340.637926,131.331706 340.605373,131.31543 C340.556545,131.282877 340.499579,131.262533 340.434475,131.254395 C340.36937,131.246256 340.320543,131.250325 340.287991,131.266602 Z" id="TheAnniversary"></path>
            </g>
        </g>
    </g>
</svg>