<?xml version="1.0" encoding="UTF-8"?>
<svg width="412px" height="138px" viewBox="0 0 412 138" version="1.1" xmlns="http://www.w3.org/2000/svg" xmlns:xlink="http://www.w3.org/1999/xlink">
    <!-- Generator: Sketch 51.3 (57544) - http://www.bohemiancoding.com/sketch -->
    <title>Journal</title>
    <desc>Created with Sketch.</desc>
    <defs></defs>
    <g id="Page-1" stroke="none" stroke-width="1" fill="none" fill-rule="evenodd">
        <g id="RWSmith_rogers_journal_desktop_small" transform="translate(-448.000000, -401.000000)" fill="#FFFFFF">
            <g id="Hero">
                <g id="Title" transform="translate(203.000000, 338.000000)">
                    <path d="M254.3396,196.341797 C255.768318,196.341797 257.229485,196.222739 258.723145,195.984619 C260.216804,195.746499 262.024322,195.346031 264.145752,194.783203 C268.128845,193.700841 272.003643,192.369555 275.770264,190.789307 C279.536884,189.209058 283.260154,187.488128 286.940186,185.626465 C305.859876,176.101678 320.060255,167.551145 329.541748,159.974609 C339.023241,152.398074 343.666505,148.371747 343.47168,147.895508 C343.276854,147.419268 342.843916,147.224446 342.172852,147.311035 C341.501787,147.397624 340.300383,147.63574 338.568604,148.025391 C336.836824,148.415041 335.234952,148.847979 333.762939,149.324219 C333.200111,149.454102 332.658938,149.605631 332.139404,149.778809 C320.969427,152.636245 310.016086,156.121399 299.279053,160.234375 C294.04042,162.182627 288.87763,164.293202 283.790527,166.566162 C278.703425,168.839123 273.71381,171.339342 268.821533,174.066895 C264.189023,176.577975 259.859639,179.500309 255.833252,182.833984 C253.971589,184.43588 252.326423,186.232575 250.897705,188.224121 C249.685459,189.739428 248.927817,191.471182 248.624756,193.419434 C248.538167,194.371912 248.927811,195.086261 249.793701,195.5625 C250.486413,195.908856 251.222408,196.136149 252.001709,196.244385 C252.78101,196.352621 253.560299,196.385091 254.3396,196.341797 Z M257.521729,200.692871 C253.798403,200.692871 251.027597,200.06511 249.209229,198.80957 C247.867099,197.900386 246.828047,196.623218 246.092041,194.978027 C245.529213,193.679193 245.247803,192.380378 245.247803,191.081543 C245.247803,188.180812 246.654852,185.193538 249.468994,182.119629 C251.720307,179.651843 254.209703,177.465504 256.937256,175.560547 C262.0893,171.880515 267.50103,168.698418 273.172607,166.01416 C286.983549,159.216926 301.248868,153.632021 315.968994,149.259277 C327.009088,145.925602 338.243839,143.414559 349.673584,141.726074 C352.444431,141.336424 359.609561,134.842348 371.169189,122.243652 C376.710884,116.225719 381.841204,109.839878 386.560303,103.085938 C390.240334,97.890599 392.967846,92.82522 394.74292,87.8896484 C395.868577,84.9456233 396.47469,81.8934077 396.561279,78.7329102 C396.561279,73.4509827 393.162713,70.0957103 386.365479,68.6669922 C383.464748,67.9309859 380.520767,67.5196944 377.533447,67.4331055 C371.255747,67.4331055 365.021434,68.0175723 358.830322,69.1865234 C339.261214,72.9098493 319.995456,79.9234511 301.032471,90.2275391 C295.750543,92.9983862 290.85834,96.3320118 286.355713,100.228516 C285.966063,100.574872 285.598065,100.748047 285.251709,100.748047 C284.645586,100.748047 284.082766,100.228521 283.563232,99.1894531 C283.390054,98.7998027 283.303467,98.4318051 283.303467,98.0854492 C283.303467,97.262854 284.775457,95.660982 287.719482,93.2797852 C291.789164,90.2058766 296.053607,87.5000117 300.512939,85.1621094 C316.748372,76.4166229 333.849438,69.987488 351.81665,65.8745117 C359.133419,64.1427322 366.08208,63.2768555 372.662842,63.2768555 L375.260498,63.2119141 C382.533972,63.2119141 388.454404,64.8787268 393.021973,68.2124023 C397.589541,71.5460779 399.873291,76.1135778 399.873291,81.9150391 C399.873291,84.4261193 399.505293,86.915515 398.769287,89.3833008 C397.340569,94.1023999 395.327406,98.5400183 392.729736,102.696289 C386.322152,112.913788 377.360328,123.823835 365.843994,135.426758 C363.895742,137.37501 362.921631,138.543943 362.921631,138.933594 C362.921631,139.453128 363.614332,139.712891 364.999756,139.712891 C365.952235,139.712891 367.099521,139.626303 368.44165,139.453125 C370.086841,139.236653 372.944234,139.04183 377.013916,138.868652 C378.356045,138.868652 381.689671,138.717124 387.014893,138.414062 C387.27466,138.630535 387.404541,138.825357 387.404541,138.998535 C387.404541,139.864425 384.850205,140.708655 379.741455,141.53125 C373.377165,142.570318 368.701431,143.263019 365.714111,143.609375 C364.371982,143.739258 362.986579,143.90161 361.557861,144.096436 C360.129143,144.291261 358.473154,144.756669 356.589844,145.492676 C354.706534,146.228682 351.740906,148.436668 347.692871,152.116699 C343.644837,155.796731 337.551229,160.494112 329.411865,166.208984 C313.566083,177.508846 297.91536,186.622198 282.459229,193.549316 C275.272344,196.753108 268.843209,198.939447 263.171631,200.108398 C261.309968,200.498049 259.426686,200.692871 257.521729,200.692871 Z M403.925537,139.323242 C403.882243,139.279948 403.860596,139.236654 403.860596,139.193359 C403.817301,139.10677 403.75236,139.04183 403.665771,138.998535 C403.622477,138.911946 403.557536,138.857829 403.470947,138.836182 C403.384358,138.814534 403.319418,138.803711 403.276123,138.803711 C401.41446,139.409834 399.899176,140.448886 398.730225,141.920898 C398.68693,142.007487 398.665283,142.104899 398.665283,142.213135 C398.665283,142.321371 398.676107,142.429606 398.697754,142.537842 C398.719401,142.646078 398.773518,142.721842 398.860107,142.765137 C399.985764,143.414554 400.938229,143.392907 401.717529,142.700195 C402.713303,141.747717 403.449298,140.622077 403.925537,139.323242 Z M395.677979,136.855469 C395.634684,136.855469 395.59139,136.833822 395.548096,136.790527 C395.461507,136.703938 395.374919,136.638998 395.28833,136.595703 C395.115152,136.595703 394.941977,136.638997 394.768799,136.725586 C393.42667,137.548181 392.181972,138.478999 391.034668,139.518066 C389.887364,140.557134 388.772548,141.661127 387.690186,142.830078 C386.304762,144.345385 385.005947,145.968904 383.793701,147.700684 C382.62475,149.432463 381.867108,151.337392 381.520752,153.415527 C381.477457,153.848472 381.628986,154.24894 381.975342,154.616943 C382.321698,154.984947 382.689695,155.168945 383.079346,155.168945 C383.165935,155.125651 383.274169,155.104004 383.404053,155.104004 C383.793703,155.060709 384.204995,154.995769 384.637939,154.90918 C386.67278,154.346351 388.588533,153.545415 390.385254,152.506348 C392.181975,151.46728 393.902905,150.298346 395.548096,148.999512 C396.370691,148.393389 396.792806,147.873863 396.814453,147.440918 C396.8361,147.007973 396.500573,146.293625 395.807861,145.297852 C395.201739,144.431962 394.703859,143.522791 394.314209,142.570312 C393.881264,141.531245 393.924558,140.51384 394.444092,139.518066 C394.703859,139.085122 394.963622,138.67383 395.223389,138.28418 C395.396567,137.937824 395.591389,137.61312 395.807861,137.310059 C395.807861,137.266764 395.797038,137.22347 395.775391,137.180176 C395.753743,137.136881 395.74292,137.093587 395.74292,137.050293 C395.74292,136.963704 395.721273,136.898763 395.677979,136.855469 Z M417.628174,142.213135 C420.87526,141.671954 424.014064,140.75196 427.044678,139.453125 C430.075292,138.15429 431.016933,138.175937 429.869629,139.518066 C428.722325,140.860196 427.163747,142.050776 425.193848,143.089844 C423.223948,144.128911 420.864434,144.983965 418.115234,145.655029 C415.366034,146.326094 412.833345,146.823973 410.51709,147.148682 C408.200835,147.47339 406.501552,147.679036 405.419189,147.765625 C404.336827,147.852214 403.427657,148.285152 402.69165,149.064453 C399.79092,152.095067 396.500588,154.649404 392.820557,156.727539 C390.82901,157.853196 388.729259,158.675779 386.52124,159.195312 C384.053454,159.714846 382.018644,159.022145 380.416748,157.117188 C378.208729,154.476224 377.667556,151.532243 378.793213,148.285156 C379.399336,146.639966 380.178625,145.081388 381.131104,143.609375 C384.118423,139.236632 387.86334,135.643243 392.365967,132.829102 C393.405034,132.179684 394.509027,131.660158 395.677979,131.270508 C396.327396,131.010741 396.96598,130.978271 397.59375,131.173096 C398.22152,131.367921 398.730223,131.89827 399.119873,132.76416 C399.119873,132.807455 399.14152,132.872395 399.184814,132.958984 C399.184814,133.045573 399.206461,133.132161 399.249756,133.21875 C399.639406,134.08464 400.158932,134.387697 400.80835,134.12793 C401.111411,134.041341 401.414468,133.933106 401.717529,133.803223 L402.756592,133.413574 C403.925543,133.067218 404.964595,133.099689 405.873779,133.510986 C406.782964,133.922284 407.486488,134.550045 407.984375,135.394287 C408.482262,136.23853 408.731201,137.136877 408.731201,138.089355 C408.644612,138.955245 408.514731,139.842769 408.341553,140.751953 C408.254964,141.055015 408.190023,141.379718 408.146729,141.726074 C408.103434,141.985841 408.146728,142.223957 408.276611,142.44043 C408.406495,142.656902 408.57967,142.786784 408.796143,142.830078 C411.437106,142.959962 414.381087,142.754316 417.628174,142.213135 Z M425.447021,147.765625 C425.447021,146.207023 425.706785,144.886561 426.226318,143.804199 C428.607515,138.652155 432.049375,134.322771 436.552002,130.815918 C438.024015,129.646967 439.279536,129.993318 440.318604,131.85498 C440.448487,132.028158 440.513428,132.255451 440.513428,132.536865 C440.513428,132.818279 440.470134,133.067219 440.383545,133.283691 C440.167072,133.673342 439.842369,134.019692 439.409424,134.322754 C439.366129,134.322754 439.344482,134.344401 439.344482,134.387695 C436.400457,136.898776 433.889415,139.777816 431.811279,143.024902 C430.988684,144.237148 430.274336,145.514316 429.668213,146.856445 C429.495035,147.28939 429.300213,147.700682 429.08374,148.090332 C428.953857,148.306804 428.888916,148.544921 428.888916,148.804688 C428.888916,149.064454 429.018798,149.280924 429.278564,149.454102 C429.711509,149.670574 430.187742,149.757162 430.707275,149.713867 C431.270104,149.713867 431.78963,149.605633 432.265869,149.38916 C432.785403,149.129393 433.326576,148.891277 433.889404,148.674805 C435.448006,148.025387 436.96329,147.311039 438.435303,146.531738 C443.933703,143.544419 449.107316,140.015971 453.956299,135.946289 C454.7356,135.253577 455.536536,134.582523 456.359131,133.933105 C457.484788,133.067216 458.52384,133.240391 459.476318,134.452637 C460.428797,135.794766 460.493738,137.093581 459.671143,138.349121 C458.675369,139.777839 457.679611,141.293124 456.683838,142.89502 C455.64477,144.583505 454.605718,146.142083 453.56665,147.570801 C453.263589,148.04704 453.187825,148.339274 453.339355,148.44751 C453.490886,148.555746 453.78312,148.555746 454.216064,148.44751 C454.649009,148.339274 455.081948,148.209392 455.514893,148.057861 C455.947837,147.906331 456.272541,147.765626 456.489014,147.635742 L456.618896,147.635742 C457.398197,147.289386 459.108304,146.607508 461.749268,145.590088 C464.390231,144.572667 467.204331,143.511968 470.19165,142.407959 C473.17897,141.30395 475.560131,140.49219 477.335205,139.972656 C478.201095,139.712889 478.742268,139.669595 478.95874,139.842773 C479.175213,140.015951 479.19686,140.286538 479.023682,140.654541 C478.850504,141.022544 478.612388,141.368895 478.309326,141.693604 C478.006265,142.018312 477.768149,142.245605 477.594971,142.375488 C477.508382,142.418783 477.443441,142.462077 477.400146,142.505371 C476.880613,142.808433 476.33944,143.111489 475.776611,143.414551 C468.589726,147.007993 461.294715,150.341619 453.891357,153.415527 C452.765701,153.891767 451.618414,154.303058 450.449463,154.649414 C449.323806,154.909181 448.414636,154.56283 447.721924,153.610352 C447.029212,152.701167 446.693685,151.997642 446.715332,151.499756 C446.736979,151.001869 446.942625,150.428226 447.332275,149.778809 C447.548748,149.432453 447.765217,149.042808 447.981689,148.609863 C448.241456,148.00374 448.457926,147.516685 448.631104,147.148682 C448.804281,146.780678 448.912516,146.499269 448.955811,146.304443 C448.999105,146.109618 449.009928,145.979737 448.988281,145.914795 C448.966634,145.849853 448.92334,145.817383 448.858398,145.817383 C448.793457,145.817383 448.739339,145.83903 448.696045,145.882324 C446.747793,146.878097 444.79957,147.98209 442.851318,149.194336 C440.556711,150.623054 438.067315,151.98681 435.383057,153.285645 C433.911044,153.935062 432.374113,154.194825 430.772217,154.064941 C429.300204,153.978352 428.109624,153.350592 427.200439,152.181641 C425.988194,150.752923 425.403727,149.280932 425.447021,147.765625 Z M483.335693,141.206543 L483.692871,141.206543 C483.757813,141.206543 483.790283,141.184896 483.790283,141.141602 L485.47876,139.972656 C486.34465,139.323239 487.210526,138.695478 488.076416,138.089355 C491.280208,135.924631 494.483952,133.803233 497.687744,131.725098 C498.596928,131.205564 499.527746,130.729332 500.480225,130.296387 C500.566814,130.296387 500.653401,130.27474 500.73999,130.231445 C501.735763,129.7985 502.677404,129.7985 503.564941,130.231445 C504.452478,130.66439 505.112709,131.422032 505.545654,132.504395 C505.848716,133.370284 505.827069,134.17122 505.480713,134.907227 C505.134357,135.470055 504.788006,135.989581 504.44165,136.46582 C504.355061,136.638998 504.246827,136.790527 504.116943,136.92041 L503.207764,138.219238 C502.255285,139.647956 501.281174,141.055006 500.2854,142.44043 C499.5061,143.522792 499.635981,144.540197 500.675049,145.492676 C500.848227,145.709148 500.978108,145.925617 501.064697,146.14209 L501.19458,146.401855 C501.281169,146.618328 501.259522,146.845621 501.129639,147.08374 C500.999755,147.32186 500.804933,147.440918 500.545166,147.440918 L500.2854,147.440918 C499.679278,147.484212 499.138105,147.397625 498.661865,147.181152 C497.83927,146.704913 497.200686,146.109623 496.746094,145.395264 C496.291502,144.680905 495.955974,143.912439 495.739502,143.089844 C495.609618,142.613604 495.631265,142.115725 495.804443,141.596191 L496.323975,139.907715 L496.713623,138.868652 C496.800212,138.522296 496.670331,138.414062 496.323975,138.543945 C496.194091,138.58724 496.042563,138.652181 495.869385,138.73877 C495.43644,138.911947 495.025148,139.128417 494.635498,139.388184 C486.929079,144.626817 479.699008,150.449838 472.945068,156.857422 C471.689528,158.069668 470.41236,159.260248 469.113525,160.429199 C468.723875,160.732261 468.280113,160.818848 467.782227,160.688965 C467.28434,160.559081 466.840578,160.256025 466.450928,159.779785 C465.541744,158.740717 465.346921,157.658372 465.866455,156.532715 C466.2994,155.666825 466.818926,154.865889 467.425049,154.129883 C473.702749,145.427691 479.980356,136.747276 486.258057,128.088379 C486.561118,127.698729 486.929116,127.374025 487.362061,127.114258 C487.491944,127.070963 487.643472,127.06014 487.81665,127.081787 C487.989828,127.103434 488.141357,127.157552 488.27124,127.244141 C488.963952,127.677085 489.418537,128.207435 489.63501,128.835205 C489.851482,129.462975 489.786541,130.079912 489.440186,130.686035 L486.322998,135.751465 C485.890053,136.357588 485.478762,136.985348 485.089111,137.634766 C484.78605,138.111005 484.482993,138.608884 484.179932,139.128418 C483.790281,139.691246 483.422284,140.254066 483.075928,140.816895 C482.859455,141.16325 482.946043,141.293132 483.335693,141.206543 Z M535.704346,144.713379 L535.704346,145.038086 C535.661051,145.297853 535.639404,145.557616 535.639404,145.817383 C535.639404,146.07715 535.747639,146.293619 535.964111,146.466797 C536.180584,146.639975 536.397053,146.683269 536.613525,146.59668 C537.782477,146.077146 539.709052,145.038094 542.393311,143.479492 C545.077569,141.920891 547.404613,140.643722 549.374512,139.647949 C551.344411,138.652176 552.935459,138.056886 554.147705,137.862061 C555.359951,137.667235 554.840425,138.554759 552.589111,140.524658 C550.337798,142.494557 545.120891,146.336885 536.938232,152.051758 C536.029048,152.527997 535.119878,152.982582 534.210693,153.415527 C532.955153,153.935061 531.916101,153.567064 531.093506,152.311523 C530.141027,150.882805 529.924558,149.389168 530.444092,147.830566 C530.703859,146.878088 531.006916,145.94727 531.353271,145.038086 C531.656333,144.345374 531.916096,143.631026 532.132568,142.89502 C532.262452,142.375486 532.262452,141.85596 532.132568,141.336426 C532.132568,141.206542 532.056804,141.087484 531.905273,140.979248 C531.753743,140.871012 531.613038,140.773601 531.483154,140.687012 C531.309976,140.687012 531.136801,140.697835 530.963623,140.719482 C530.790445,140.74113 530.61727,140.7736 530.444092,140.816895 C528.062895,141.466312 525.854909,142.46207 523.820068,143.804199 C517.802135,147.354347 512.087348,151.33738 506.675537,155.753418 C505.463291,156.749191 504.229417,157.680009 502.973877,158.545898 C502.800699,158.632487 502.627524,158.740722 502.454346,158.870605 C502.151284,159.087078 501.750816,159.141195 501.25293,159.032959 C500.755043,158.924723 500.376222,158.69743 500.116455,158.351074 C498.731031,156.792473 498.514562,155.212248 499.467041,153.610352 C500.246342,152.224928 501.112219,150.904466 502.064697,149.648926 C506.740502,143.371225 511.45953,137.093619 516.221924,130.815918 C516.395102,130.556151 516.54663,130.361329 516.676514,130.231445 L516.96875,129.841797 C517.033692,129.755208 517.087809,129.679444 517.131104,129.614502 C517.174398,129.54956 517.260986,129.452149 517.390869,129.322266 L518.040283,128.672852 C518.343345,128.36979 518.787106,128.272379 519.371582,128.380615 C519.956058,128.488851 520.399819,128.716144 520.702881,129.0625 C521.352298,129.92839 521.536297,130.718502 521.254883,131.432861 C520.973469,132.14722 520.551354,132.850745 519.988525,133.543457 C519.858642,133.67334 519.72876,133.824869 519.598877,133.998047 L517.260986,137.115234 C516.784747,137.764652 516.297691,138.424883 515.799805,139.095947 C515.301918,139.767012 514.684981,140.578771 513.948975,141.53125 C513.559324,142.094078 513.212974,142.700192 512.909912,143.349609 C512.823323,143.479493 512.736735,143.631021 512.650146,143.804199 L512.682617,143.869141 C512.704264,143.912435 512.736735,143.966552 512.780029,144.031494 C512.823324,144.096436 512.866618,144.128906 512.909912,144.128906 C512.953207,144.172201 513.018147,144.215495 513.104736,144.258789 C513.191325,144.302084 513.256266,144.32373 513.299561,144.32373 C513.948978,144.063964 514.576739,143.760907 515.182861,143.414551 C516.351812,142.678544 517.542393,141.942549 518.754639,141.206543 C519.92359,140.470537 521.11417,139.756188 522.326416,139.063477 C524.144784,137.981114 526.07136,137.158531 528.106201,136.595703 C529.708097,136.162758 531.190911,136.32511 532.554688,137.082764 C533.918464,137.840417 534.881752,139.041821 535.44458,140.687012 C535.920819,142.029141 536.007407,143.37125 535.704346,144.713379 Z M571.447998,158.61084 C570.582108,158.61084 569.802819,158.372724 569.110107,157.896484 C568.157629,157.247067 567.464927,156.359543 567.031982,155.233887 C566.599038,154.10823 566.51245,153.004237 566.772217,151.921875 C566.945395,151.272458 567.140217,150.644697 567.356689,150.038574 L567.746338,148.869629 C567.746338,148.826334 567.724691,148.772217 567.681396,148.707275 C567.638102,148.642334 567.594808,148.588216 567.551514,148.544922 C567.508219,148.501627 567.443278,148.469157 567.356689,148.44751 C567.2701,148.425863 567.20516,148.415039 567.161865,148.415039 C567.118571,148.458334 567.075277,148.47998 567.031982,148.47998 C566.209387,148.826336 565.408451,149.194334 564.62915,149.583984 C562.334543,150.709641 559.996675,151.683752 557.615479,152.506348 C556.056877,152.982587 554.455005,153.199056 552.809814,153.155762 C551.554274,153.112467 550.504399,152.679529 549.660156,151.856934 C548.815914,151.034338 548.253094,150.03858 547.97168,148.869629 C547.690266,147.700678 547.809324,146.575038 548.328857,145.492676 C548.415446,144.453608 549.2705,143.003265 550.894043,141.141602 C552.517586,139.279939 554.768866,137.580655 557.647949,136.043701 C560.527033,134.506747 563.611719,133.565106 566.9021,133.21875 C568.15764,133.002278 569.391514,132.980631 570.60376,133.153809 C571.816005,133.326987 572.941645,133.803219 573.980713,134.58252 C574.586836,134.97217 574.954833,135.394285 575.084717,135.848877 C575.2146,136.303469 575.225424,136.703937 575.117188,137.050293 C575.008951,137.396649 574.868246,137.613118 574.695068,137.699707 C573.959062,137.656413 573.288008,137.591472 572.681885,137.504883 C572.032467,137.418294 571.285649,137.375 570.441406,137.375 C569.597164,137.375 568.482347,137.569822 567.096924,137.959473 C564.975494,138.565595 562.864919,139.344885 560.765137,140.297363 C558.665354,141.249842 556.738778,142.429599 554.985352,143.83667 C553.231925,145.243741 551.835699,146.921377 550.796631,148.869629 C550.623453,149.17269 550.655923,149.38916 550.894043,149.519043 C551.132163,149.648926 551.446043,149.724691 551.835693,149.746338 C552.225344,149.767985 552.604165,149.767985 552.972168,149.746338 C553.340171,149.724691 553.589111,149.69222 553.718994,149.648926 C555.407479,149.172686 557.052645,148.609867 558.654541,147.960449 C562.204689,146.445142 565.592432,144.670095 568.817871,142.635254 C572.04331,140.600413 575.084703,138.284193 577.942139,135.686523 C578.418378,135.210284 578.916257,134.777346 579.435791,134.387695 C579.652263,134.214517 579.89038,134.12793 580.150146,134.12793 C580.409913,134.12793 580.669676,134.214517 580.929443,134.387695 C581.578861,134.907229 582.055093,135.53499 582.358154,136.270996 C582.574627,136.833824 582.509686,137.35335 582.16333,137.82959 C581.816974,138.262535 581.42733,138.673826 580.994385,139.063477 C580.821207,139.19336 580.648031,139.344888 580.474854,139.518066 C577.35765,142.678564 574.608492,146.120424 572.227295,149.84375 C572.184,149.930339 572.140707,149.99528 572.097412,150.038574 C571.707762,150.601403 571.350588,151.196693 571.025879,151.824463 C570.70117,152.452233 570.452231,153.112464 570.279053,153.805176 C570.235758,154.021648 570.289876,154.194824 570.441406,154.324707 C570.592937,154.45459 570.776936,154.497884 570.993408,154.45459 C578.569943,150.991031 584.512023,147.559994 588.819824,144.161377 C593.127626,140.76276 595.714433,138.976889 596.580322,138.803711 C597.446212,138.630533 598.009032,138.65218 598.268799,138.868652 C598.528566,139.085125 598.528566,139.756179 598.268799,140.881836 C590.086141,147.419304 584.382178,151.824452 581.156738,154.097412 C577.931299,156.370373 575.9939,157.615071 575.344482,157.831543 C575.301188,157.831543 575.257894,157.85319 575.2146,157.896484 C574.608477,158.069662 573.99154,158.242838 573.36377,158.416016 C572.735999,158.589194 572.097415,158.654134 571.447998,158.61084 Z M620.764404,118.996582 L620.894287,118.996582 C621.024171,118.996582 621.154052,118.953288 621.283936,118.866699 C630.765428,112.415821 639.445843,104.990927 647.325439,96.5917969 C647.541912,96.33203 647.715087,96.0289731 647.844971,95.6826172 C647.844971,95.6393227 647.823324,95.5852054 647.780029,95.5202637 C647.736735,95.4553219 647.671794,95.4012046 647.585205,95.3579102 C647.541911,95.3146157 647.47697,95.2713218 647.390381,95.2280273 C647.303792,95.1847329 647.238851,95.1630859 647.195557,95.1630859 C646.849201,95.3362639 646.524497,95.5094392 646.221436,95.6826172 C645.312251,96.1588565 644.446375,96.6783826 643.623779,97.2412109 C635.311238,103.345734 627.713169,110.207807 620.829346,117.827637 C620.699462,118.000815 620.591228,118.17399 620.504639,118.347168 C620.461344,118.477051 620.41805,118.585286 620.374756,118.671875 C620.071694,119.191409 620.201576,119.299643 620.764404,118.996582 Z M595.112549,165.429688 C593.034413,165.472982 591.410895,164.477224 590.241943,162.442383 C589.505937,161.186843 589.137939,159.866381 589.137939,158.480957 C589.137939,156.705883 589.440996,154.995776 590.047119,153.350586 C591.086187,150.363266 592.406649,147.52752 594.008545,144.843262 C595.004318,143.198071 596.021723,141.574552 597.060791,139.972656 C597.450441,139.366533 597.840086,138.76042 598.229736,138.154297 C598.489503,137.764646 598.749266,137.375002 599.009033,136.985352 C599.831628,136.032873 600.416095,134.92888 600.762451,133.67334 C600.805746,133.413573 600.924804,133.18628 601.119629,132.991455 C601.314454,132.79663 601.5201,132.612631 601.736572,132.439453 C602.905523,131.530269 603.901282,130.46957 604.723877,129.257324 C604.983644,128.910968 605.243407,128.564618 605.503174,128.218262 C609.529561,123.109512 613.75071,118.206485 618.166748,113.509033 C622.582786,108.811581 627.236873,104.341493 632.12915,100.098633 C636.458599,96.2887179 641.09104,92.8901517 646.026611,89.902832 C647.84498,88.8204698 649.749909,87.9545931 651.741455,87.3051758 C653.083584,86.9155254 654.187577,87.2185823 655.053467,88.2143555 C656.741952,89.9894294 656.936774,91.8943583 655.637939,93.9291992 C653.819571,96.5268685 651.784761,98.9296765 649.533447,101.137695 C642.216679,108.627642 634.27226,115.424774 625.699951,121.529297 C619.89849,125.685568 614.032175,129.776835 608.10083,133.803223 C606.931879,134.582523 605.936121,135.534988 605.113525,136.660645 C601.953028,140.86021 599.052341,145.211241 596.411377,149.713867 C594.852775,152.484714 593.640548,155.385402 592.774658,158.416016 C592.60148,159.065433 592.558186,159.736487 592.644775,160.429199 C592.644775,160.602377 592.72054,160.753906 592.87207,160.883789 C593.023601,161.013673 593.164306,161.10026 593.294189,161.143555 C593.380778,161.143555 593.489013,161.143555 593.618896,161.143555 C594.398197,161.273438 595.155839,161.230144 595.891846,161.013672 C598.013276,160.277666 600.09138,159.411789 602.126221,158.416016 C607.278265,155.904935 612.01894,153.209894 616.348389,150.330811 C620.677837,147.451727 625.050515,144.258807 629.466553,140.751953 C630.592209,139.886063 631.447263,139.485595 632.031738,139.550537 C632.616214,139.615479 632.951741,139.886065 633.03833,140.362305 C633.124919,140.838544 632.995038,141.249836 632.648682,141.596191 C632.388915,141.985842 631.858565,142.570309 631.057617,143.349609 C630.256669,144.12891 629.412439,144.929846 628.524902,145.752441 C627.637365,146.575037 626.955487,147.202797 626.479248,147.635742 C626.435954,147.679037 626.371013,147.722331 626.284424,147.765625 C619.487189,153.826853 611.997355,158.892232 603.814697,162.961914 C602.992102,163.351564 602.126225,163.697915 601.217041,164.000977 C600.610918,164.217449 600.026451,164.455565 599.463623,164.715332 C598.208083,165.234866 596.757739,165.472982 595.112549,165.429688 Z" id="Journal"></path>
                </g>
            </g>
        </g>
    </g>
</svg>