<?xml version="1.0" encoding="UTF-8"?>
<svg width="388px" height="52px" viewBox="0 0 388 52" version="1.1" xmlns="http://www.w3.org/2000/svg" xmlns:xlink="http://www.w3.org/1999/xlink">
    <!-- Generator: Sketch 53 (72520) - https://sketchapp.com -->
    <title>hasreallyonlyjustbegun…</title>
    <desc>Created with Sketch.</desc>
    <g id="Page-1" stroke="none" stroke-width="1" fill="none" fill-rule="evenodd">
        <g id="home_desktop-2of2" transform="translate(-442.000000, -16616.000000)" fill="#FFFFFF" fill-rule="nonzero">
            <g id="Section-36---Has-really-only-just-begun..." transform="translate(0.000000, 16204.000000)">
                <g id="Bitmap-Copy-2">
                    <path d="M454.099609,440.03418 C453.529945,440.125326 453.011558,440.028484 452.544434,439.743652 C452.077309,439.45882 451.707033,439.082847 451.433594,438.615723 C451.160155,438.148598 451.000651,437.635908 450.955078,437.077637 C450.909505,436.519366 451.023436,436.012372 451.296875,435.556641 C452.299484,434.257806 452.983071,433.226729 453.347656,432.463379 C453.712241,431.700029 453.843262,431.164552 453.740723,430.856934 C453.638183,430.549315 453.353355,430.423991 452.88623,430.480957 C452.419106,430.537923 451.855147,430.743 451.194336,431.096191 C450.533525,431.449383 449.821456,431.910804 449.058105,432.480469 C448.294755,433.050133 447.582686,433.676754 446.921875,434.360352 C446.261064,435.043949 445.685712,435.756018 445.195801,436.496582 C444.705889,437.237146 444.392579,437.960608 444.255859,438.666992 C444.027994,438.803712 443.834311,438.911946 443.674805,438.991699 C443.515299,439.071452 443.333009,439.111328 443.12793,439.111328 C442.786131,439.111328 442.581055,438.997397 442.512695,438.769531 C442.444336,438.541666 442.410156,438.30241 442.410156,438.051758 C442.410156,437.482094 442.58675,436.895348 442.939941,436.291504 C443.293133,435.68766 443.703285,435.118004 444.17041,434.58252 C444.637535,434.047035 445.087563,433.557131 445.520508,433.112793 C445.953453,432.668455 446.261067,432.309572 446.443359,432.036133 C447.013024,431.101883 447.582679,430.093593 448.152344,429.01123 C448.722008,427.928868 449.291664,426.823736 449.861328,425.695801 C450.430992,424.567865 451.017738,423.45134 451.621582,422.346191 C452.225426,421.241043 452.857744,420.187179 453.518555,419.18457 C453.632488,419.002278 453.729329,418.876953 453.809082,418.808594 C453.888835,418.740234 454.008463,418.706055 454.167969,418.706055 C454.350261,418.706055 454.486979,418.740234 454.578125,418.808594 C454.669271,418.876953 454.760416,419.002278 454.851562,419.18457 C454.851562,419.275717 454.834473,419.423827 454.800293,419.628906 C454.766113,419.833985 454.731934,420.056151 454.697754,420.29541 C454.663574,420.534669 454.618002,420.756835 454.561035,420.961914 C454.504069,421.166993 454.464193,421.303711 454.441406,421.37207 C454.304687,421.645509 454.076825,422.12402 453.757812,422.807617 C453.4388,423.491214 453.09131,424.220374 452.715332,424.995117 C452.339354,425.769861 451.98047,426.527503 451.638672,427.268066 C451.296873,428.00863 451.046225,428.561196 450.886719,428.925781 C451.228517,428.697916 451.536131,428.521322 451.80957,428.395996 C452.083009,428.27067 452.350747,428.179525 452.612793,428.122559 C452.874839,428.065592 453.148273,428.031413 453.433105,428.02002 C453.717938,428.008626 454.031248,428.00293 454.373047,428.00293 C455.193363,428.208009 455.734536,428.515623 455.996582,428.925781 C456.258628,429.33594 456.338379,429.808754 456.23584,430.344238 C456.1333,430.879723 455.911135,431.466468 455.569336,432.104492 C455.227537,432.742516 454.868654,433.386227 454.492676,434.035645 C454.116697,434.685062 453.7806,435.311683 453.484375,435.915527 C453.18815,436.519372 453.051432,437.071938 453.074219,437.573242 C453.074219,437.778321 453.119791,437.926432 453.210938,438.017578 C453.302084,438.108724 453.416015,438.177083 453.552734,438.222656 C453.689454,438.268229 453.837564,438.291016 453.99707,438.291016 L454.441406,438.291016 C454.919924,438.291016 455.381345,438.21696 455.825684,438.068848 C456.270022,437.920735 456.708657,437.755535 457.141602,437.573242 C457.574546,437.39095 458.013181,437.225749 458.45752,437.077637 C458.901858,436.929524 459.363279,436.855469 459.841797,436.855469 C459.841797,437.288414 459.625328,437.698566 459.192383,438.085938 C458.759438,438.473309 458.241051,438.809406 457.637207,439.094238 C457.033363,439.37907 456.401045,439.606933 455.740234,439.777832 C455.079424,439.948731 454.532554,440.03418 454.099609,440.03418 Z M458.282227,437.77832 C458.487306,436.479486 458.874672,435.283209 459.444336,434.189453 C460.014,433.095698 460.669104,432.144373 461.409668,431.335449 C462.150232,430.526526 462.953446,429.860029 463.819336,429.335938 C464.685226,428.811846 465.528316,428.475749 466.348633,428.327637 C467.168949,428.179524 467.926592,428.2194 468.621582,428.447266 C469.316572,428.675131 469.880532,429.130856 470.313477,429.814453 C470.313477,430.338544 470.193849,430.839841 469.95459,431.318359 C469.715331,431.796877 469.453289,432.275388 469.168457,432.753906 C468.883625,433.232424 468.621583,433.722328 468.382324,434.223633 C468.143065,434.724937 468.023438,435.260414 468.023438,435.830078 C468.023438,436.422529 468.154458,436.895343 468.416504,437.248535 C468.678549,437.601727 469.139971,437.77832 469.800781,437.77832 C470.347659,437.77832 470.877439,437.698569 471.390137,437.539062 C471.902835,437.379556 472.421221,437.299805 472.945312,437.299805 C473.036459,437.299805 473.190266,437.305501 473.406738,437.316895 C473.623211,437.328288 473.765625,437.333984 473.833984,437.333984 C473.560546,437.721356 473.207359,438.051756 472.774414,438.325195 C472.341469,438.598634 471.885745,438.832193 471.407227,439.025879 C470.928709,439.219565 470.433108,439.361979 469.92041,439.453125 C469.407712,439.544271 468.934898,439.589844 468.501953,439.589844 C468.091795,439.589844 467.727215,439.498699 467.408203,439.316406 C467.089191,439.134114 466.815756,438.894858 466.587891,438.598633 C466.360025,438.302407 466.183432,437.96631 466.058105,437.590332 C465.932779,437.214354 465.870117,436.844077 465.870117,436.479492 C465.528319,436.866864 465.158042,437.27132 464.759277,437.692871 C464.360512,438.114423 463.938967,438.496092 463.494629,438.837891 C463.050291,439.179689 462.57178,439.464517 462.059082,439.692383 C461.546384,439.920249 461.016604,440.03418 460.469727,440.03418 C459.877276,440.03418 459.364585,439.812014 458.931641,439.367676 C458.498696,438.923338 458.282227,438.393558 458.282227,437.77832 Z M460.538086,436.71875 C460.538086,436.901043 460.543782,437.106119 460.555176,437.333984 C460.566569,437.56185 460.708983,437.709961 460.982422,437.77832 C461.552086,437.641601 462.201494,437.339683 462.930664,436.872559 C463.659834,436.405434 464.343421,435.858564 464.981445,435.231934 C465.619469,434.605303 466.154946,433.933109 466.587891,433.215332 C467.020835,432.497555 467.237305,431.808272 467.237305,431.147461 C467.237305,431.101888 467.231608,431.027833 467.220215,430.925293 C467.208822,430.822753 467.203125,430.748698 467.203125,430.703125 C466.428382,430.703125 465.642257,430.862629 464.844727,431.181641 C464.047197,431.500653 463.32943,431.939288 462.691406,432.497559 C462.053382,433.05583 461.534995,433.699541 461.13623,434.428711 C460.737465,435.157881 460.538086,435.92122 460.538086,436.71875 Z M472.342773,436.206055 C472.342773,435.77311 472.405436,435.397137 472.530762,435.078125 C472.656088,434.759113 472.980792,434.599609 473.504883,434.599609 C473.550456,434.599609 473.658691,434.605306 473.82959,434.616699 C474.000489,434.628093 474.120117,434.645182 474.188477,434.667969 C474.16569,435.738938 474.336587,436.542152 474.701172,437.077637 C475.065757,437.613121 475.749344,437.880859 476.751953,437.880859 C477.57227,437.880859 478.381181,437.755535 479.178711,437.504883 C479.976241,437.254231 480.699704,436.883954 481.349121,436.394043 C481.998538,435.904132 482.522622,435.305993 482.921387,434.599609 C483.320152,433.893226 483.519531,433.095708 483.519531,432.207031 C483.519531,431.660154 483.331545,431.272788 482.955566,431.044922 C482.579588,430.817056 482.163739,430.634766 481.708008,430.498047 C481.252276,430.361327 480.836428,430.20752 480.460449,430.036621 C480.084471,429.865722 479.896484,429.563804 479.896484,429.130859 C479.896484,428.606768 480.215492,428.105471 480.853516,427.626953 C481.49154,427.148435 482.243485,426.721193 483.109375,426.345215 C483.975265,425.969236 484.835445,425.673015 485.689941,425.456543 C486.544438,425.240071 487.199542,425.131836 487.655273,425.131836 C487.655273,425.792647 487.512859,426.259764 487.228027,426.533203 C486.943195,426.806642 486.595705,427.023111 486.185547,427.182617 C485.775389,427.342123 485.35954,427.49593 484.937988,427.644043 C484.516437,427.792156 484.168947,428.071287 483.895508,428.481445 C484.260093,428.777671 484.562011,429.045409 484.80127,429.284668 C485.040529,429.523927 485.228515,429.780272 485.365234,430.053711 C485.501954,430.32715 485.593099,430.629067 485.638672,430.959473 C485.684245,431.289878 485.707031,431.68294 485.707031,432.138672 C485.707031,433.323574 485.450686,434.400223 484.937988,435.368652 C484.42529,436.337082 483.758793,437.168779 482.938477,437.86377 C482.11816,438.55876 481.183925,439.094236 480.135742,439.470215 C479.08756,439.846193 478.016607,440.03418 476.922852,440.03418 C476.330401,440.03418 475.755048,439.960124 475.196777,439.812012 C474.638506,439.663899 474.148602,439.43034 473.727051,439.111328 C473.305499,438.792316 472.969402,438.393557 472.71875,437.915039 C472.468098,437.436521 472.342773,436.866865 472.342773,436.206055 Z M512.734375,437.368164 C512.734375,436.684567 512.876789,436.052249 513.161621,435.471191 C513.446453,434.890134 513.759764,434.337568 514.101562,433.813477 C514.443361,433.289385 514.756672,432.765302 515.041504,432.241211 C515.326336,431.71712 515.46875,431.158857 515.46875,430.566406 C515.46875,430.429687 515.463053,430.264487 515.45166,430.070801 C515.440267,429.877115 515.417481,429.689129 515.383301,429.506836 C515.349121,429.324543 515.280762,429.170736 515.178223,429.04541 C515.075683,428.920084 514.944662,428.857422 514.785156,428.857422 C514.76237,428.857422 514.722494,428.863118 514.665527,428.874512 C514.608561,428.885905 514.580078,428.902995 514.580078,428.925781 C514.261066,429.358726 513.879397,429.842934 513.435059,430.378418 C512.99072,430.913902 512.517906,431.443682 512.016602,431.967773 C511.515297,432.491865 511.025393,432.993162 510.546875,433.47168 C510.068357,433.950198 509.635419,434.348957 509.248047,434.667969 C508.974608,434.918621 508.604332,435.260415 508.137207,435.693359 C507.670082,436.126304 507.202965,436.553546 506.73584,436.975098 C506.268715,437.396649 505.858563,437.766925 505.505371,438.085938 C505.152179,438.40495 504.9528,438.564453 504.907227,438.564453 L503.334961,437.231445 C503.54004,437.231445 503.73942,437.185873 503.933105,437.094727 C504.126791,437.00358 504.314778,436.901042 504.49707,436.787109 C505.864265,435.875646 507.100418,434.82748 508.205566,433.642578 C509.310715,432.457676 510.398758,431.181647 511.469727,429.814453 C511.5153,429.746093 511.634927,429.546714 511.828613,429.216309 C512.022299,428.885903 512.233072,428.50993 512.460938,428.088379 L513.144531,426.82373 C513.372397,426.402179 513.543294,426.066082 513.657227,425.81543 C513.793946,425.519204 513.879394,425.279949 513.913574,425.097656 C513.947754,424.915364 513.981933,424.77295 514.016113,424.67041 C514.050293,424.567871 514.112955,424.493815 514.204102,424.448242 C514.295248,424.402669 514.488931,424.379883 514.785156,424.379883 C514.830729,424.379883 514.938964,424.391276 515.109863,424.414062 C515.280763,424.436849 515.388997,424.459635 515.43457,424.482422 C515.730796,425.097659 515.992837,425.644529 516.220703,426.123047 C516.448569,426.601565 516.642252,427.051593 516.801758,427.473145 C516.961264,427.894696 517.080892,428.321938 517.160645,428.754883 C517.240398,429.187828 517.280273,429.666339 517.280273,430.19043 C516.984048,430.942387 516.653648,431.711422 516.289062,432.497559 C515.924477,433.283695 515.616863,434.029944 515.366211,434.736328 C515.115559,435.442712 514.961752,436.080726 514.904785,436.650391 C514.847819,437.220055 514.973143,437.670083 515.280762,438.000488 C515.58838,438.330894 516.112464,438.507487 516.853027,438.530273 C517.593591,438.55306 518.647454,438.359377 520.014648,437.949219 C520.379234,438.131511 520.413413,438.353677 520.117188,438.615723 C519.820962,438.877768 519.370934,439.12272 518.76709,439.350586 C518.163246,439.578452 517.502445,439.766438 516.784668,439.914551 C516.066891,440.062664 515.468752,440.102539 514.990234,440.03418 C514.55729,440.03418 514.198406,439.960124 513.913574,439.812012 C513.628742,439.663899 513.40088,439.464519 513.22998,439.213867 C513.059081,438.963215 512.933757,438.678387 512.854004,438.359375 C512.774251,438.040363 512.734375,437.709963 512.734375,437.368164 Z M518.147461,438.222656 C517.760089,437.356767 517.589192,436.507979 517.634766,435.67627 C517.680339,434.84456 517.868325,434.058435 518.19873,433.317871 C518.529136,432.577307 518.962074,431.905114 519.497559,431.30127 C520.033043,430.697425 520.608395,430.173342 521.223633,429.729004 C521.83887,429.284666 522.459795,428.948569 523.086426,428.720703 C523.713057,428.492837 524.265623,428.395996 524.744141,428.430176 C525.222659,428.464356 525.598631,428.640949 525.87207,428.959961 C526.145509,429.278973 526.236654,429.768877 526.145508,430.429688 C526.145508,431.318364 525.866376,432.093096 525.308105,432.753906 C524.749834,433.414717 524.134606,434.007159 523.462402,434.53125 C522.790198,435.055341 522.17497,435.528155 521.616699,435.949707 C521.058428,436.371259 520.779297,436.764321 520.779297,437.128906 C520.779297,437.333985 520.898925,437.493489 521.138184,437.607422 C521.377443,437.721355 521.656574,437.806803 521.975586,437.86377 C522.294598,437.920736 522.613605,437.960612 522.932617,437.983398 C523.251629,438.006185 523.479492,438.028971 523.616211,438.051758 C525.758149,437.596026 527.364578,437.316895 528.435547,437.214355 C529.506516,437.111816 530.17871,437.123209 530.452148,437.248535 C530.725587,437.373861 530.674318,437.567544 530.29834,437.82959 C529.922361,438.091635 529.347009,438.36507 528.572266,438.649902 C527.797522,438.934734 526.897466,439.19108 525.87207,439.418945 C524.846675,439.646811 523.832687,439.777832 522.830078,439.812012 C521.827469,439.846192 520.89893,439.74935 520.044434,439.521484 C519.189937,439.293619 518.557619,438.86068 518.147461,438.222656 Z M524.128906,430.429688 C523.673175,430.429688 523.240236,430.555012 522.830078,430.805664 C522.41992,431.056316 522.049644,431.369627 521.719238,431.745605 C521.388833,432.121584 521.109702,432.531736 520.881836,432.976074 C520.65397,433.420412 520.483073,433.836261 520.369141,434.223633 C520.414714,434.246419 520.448893,434.257812 520.47168,434.257812 L520.574219,434.257812 C520.893231,434.257812 521.25781,434.121095 521.667969,433.847656 C522.078127,433.574217 522.465493,433.23812 522.830078,432.839355 C523.194663,432.44059 523.502277,432.024742 523.75293,431.591797 C524.003582,431.158852 524.128906,430.771486 524.128906,430.429688 Z M529.439453,437.77832 C529.644532,436.479486 530.031898,435.283209 530.601562,434.189453 C531.171227,433.095698 531.826331,432.144373 532.566895,431.335449 C533.307458,430.526526 534.110673,429.860029 534.976562,429.335938 C535.842452,428.811846 536.685543,428.475749 537.505859,428.327637 C538.326176,428.179524 539.083818,428.2194 539.778809,428.447266 C540.473799,428.675131 541.037758,429.130856 541.470703,429.814453 C541.470703,430.338544 541.351075,430.839841 541.111816,431.318359 C540.872557,431.796877 540.610516,432.275388 540.325684,432.753906 C540.040851,433.232424 539.77881,433.722328 539.539551,434.223633 C539.300292,434.724937 539.180664,435.260414 539.180664,435.830078 C539.180664,436.422529 539.311685,436.895343 539.57373,437.248535 C539.835776,437.601727 540.297197,437.77832 540.958008,437.77832 C541.504886,437.77832 542.034665,437.698569 542.547363,437.539062 C543.060061,437.379556 543.578448,437.299805 544.102539,437.299805 C544.193685,437.299805 544.347492,437.305501 544.563965,437.316895 C544.780437,437.328288 544.922851,437.333984 544.991211,437.333984 C544.717772,437.721356 544.364585,438.051756 543.931641,438.325195 C543.498696,438.598634 543.042971,438.832193 542.564453,439.025879 C542.085935,439.219565 541.590335,439.361979 541.077637,439.453125 C540.564939,439.544271 540.092125,439.589844 539.65918,439.589844 C539.249021,439.589844 538.884442,439.498699 538.56543,439.316406 C538.246418,439.134114 537.972983,438.894858 537.745117,438.598633 C537.517251,438.302407 537.340658,437.96631 537.215332,437.590332 C537.090006,437.214354 537.027344,436.844077 537.027344,436.479492 C536.685545,436.866864 536.315269,437.27132 535.916504,437.692871 C535.517739,438.114423 535.096194,438.496092 534.651855,438.837891 C534.207517,439.179689 533.729006,439.464517 533.216309,439.692383 C532.703611,439.920249 532.173831,440.03418 531.626953,440.03418 C531.034502,440.03418 530.521812,439.812014 530.088867,439.367676 C529.655922,438.923338 529.439453,438.393558 529.439453,437.77832 Z M531.695312,436.71875 C531.695312,436.901043 531.701009,437.106119 531.712402,437.333984 C531.723796,437.56185 531.86621,437.709961 532.139648,437.77832 C532.709313,437.641601 533.35872,437.339683 534.087891,436.872559 C534.817061,436.405434 535.500648,435.858564 536.138672,435.231934 C536.776696,434.605303 537.312172,433.933109 537.745117,433.215332 C538.178062,432.497555 538.394531,431.808272 538.394531,431.147461 C538.394531,431.101888 538.388835,431.027833 538.377441,430.925293 C538.366048,430.822753 538.360352,430.748698 538.360352,430.703125 C537.585608,430.703125 536.799483,430.862629 536.001953,431.181641 C535.204423,431.500653 534.486657,431.939288 533.848633,432.497559 C533.210609,433.05583 532.692222,433.699541 532.293457,434.428711 C531.894692,435.157881 531.695312,435.92122 531.695312,436.71875 Z M543.294922,436.889648 C543.294922,436.730142 543.312012,436.48519 543.346191,436.154785 C543.380371,435.82438 543.420247,435.499676 543.46582,435.180664 C543.511393,434.861652 543.556966,434.571128 543.602539,434.309082 C543.648112,434.047036 543.693685,433.881836 543.739258,433.813477 L549.959961,421.37207 C550.051107,421.189778 550.227701,420.933433 550.489746,420.603027 C550.751792,420.272622 551.03662,419.930829 551.344238,419.577637 C551.651857,419.224445 551.959471,418.894045 552.26709,418.586426 C552.574709,418.278807 552.831054,418.033855 553.036133,417.851562 C553.195639,417.897136 553.30957,417.976887 553.37793,418.09082 C553.446289,418.204753 553.491862,418.335774 553.514648,418.483887 C553.537435,418.631999 553.543132,418.774413 553.531738,418.911133 C553.520345,419.047852 553.514648,419.161783 553.514648,419.25293 L553.514648,419.731445 C553.514648,419.936524 553.503255,420.039062 553.480469,420.039062 C553.252603,420.6543 552.899416,421.383459 552.420898,422.226562 C551.94238,423.069666 551.406904,423.969722 550.814453,424.926758 C550.222002,425.883794 549.612471,426.880691 548.98584,427.91748 C548.359209,428.95427 547.789553,429.97965 547.276855,430.993652 C546.764158,432.007655 546.342612,432.981766 546.012207,433.916016 C545.681802,434.850265 545.516602,435.704749 545.516602,436.479492 C545.516602,436.88965 545.636229,437.214354 545.875488,437.453613 C546.114747,437.692872 546.371092,437.903645 546.644531,438.085938 C546.91797,438.26823 547.174315,438.45052 547.413574,438.632812 C547.652833,438.815105 547.772461,439.065754 547.772461,439.384766 C547.772461,439.589845 547.681316,439.743652 547.499023,439.846191 C547.316731,439.948731 547.100262,440 546.849609,440 C545.892573,440 545.060876,439.732262 544.354492,439.196777 C543.648108,438.661293 543.294922,437.892258 543.294922,436.889648 Z M551.510742,436.889648 C551.510742,436.730142 551.527832,436.48519 551.562012,436.154785 C551.596192,435.82438 551.636067,435.499676 551.681641,435.180664 C551.727214,434.861652 551.772786,434.571128 551.818359,434.309082 C551.863933,434.047036 551.909505,433.881836 551.955078,433.813477 L558.175781,421.37207 C558.266928,421.189778 558.443521,420.933433 558.705566,420.603027 C558.967612,420.272622 559.25244,419.930829 559.560059,419.577637 C559.867677,419.224445 560.175291,418.894045 560.48291,418.586426 C560.790529,418.278807 561.046874,418.033855 561.251953,417.851562 C561.411459,417.897136 561.52539,417.976887 561.59375,418.09082 C561.66211,418.204753 561.707682,418.335774 561.730469,418.483887 C561.753255,418.631999 561.758952,418.774413 561.747559,418.911133 C561.736165,419.047852 561.730469,419.161783 561.730469,419.25293 L561.730469,419.731445 C561.730469,419.936524 561.719076,420.039062 561.696289,420.039062 C561.468423,420.6543 561.115237,421.383459 560.636719,422.226562 C560.158201,423.069666 559.622724,423.969722 559.030273,424.926758 C558.437823,425.883794 557.828291,426.880691 557.20166,427.91748 C556.575029,428.95427 556.005374,429.97965 555.492676,430.993652 C554.979978,432.007655 554.558433,432.981766 554.228027,433.916016 C553.897622,434.850265 553.732422,435.704749 553.732422,436.479492 C553.732422,436.88965 553.85205,437.214354 554.091309,437.453613 C554.330568,437.692872 554.586913,437.903645 554.860352,438.085938 C555.13379,438.26823 555.390136,438.45052 555.629395,438.632812 C555.868654,438.815105 555.988281,439.065754 555.988281,439.384766 C555.988281,439.589845 555.897136,439.743652 555.714844,439.846191 C555.532551,439.948731 555.316082,440 555.06543,440 C554.108394,440 553.276696,439.732262 552.570312,439.196777 C551.863929,438.661293 551.510742,437.892258 551.510742,436.889648 Z M557.675781,450.322266 C558.404952,449.137364 559.248042,448.083501 560.205078,447.160645 C561.162114,446.237788 562.147619,445.366215 563.161621,444.545898 C564.175624,443.725582 565.183914,442.928064 566.186523,442.15332 C567.189133,441.378577 568.117672,440.546879 568.972168,439.658203 C569.826664,438.769527 570.56152,437.784022 571.176758,436.70166 C571.791995,435.619298 572.213541,434.360359 572.441406,432.924805 C572.441406,432.879232 572.43571,432.805176 572.424316,432.702637 C572.412923,432.600097 572.407227,432.526042 572.407227,432.480469 C571.883135,433.095706 571.250818,433.790686 570.510254,434.56543 C569.76969,435.340173 568.972172,436.069333 568.117676,436.75293 C567.263179,437.436527 566.36882,438.006183 565.43457,438.461914 C564.500321,438.917646 563.588872,439.145508 562.700195,439.145508 C562.47233,439.145508 562.181805,439.128418 561.828613,439.094238 C561.475421,439.060058 561.127931,438.986003 560.786133,438.87207 C560.444334,438.758137 560.148113,438.598634 559.897461,438.393555 C559.646809,438.188476 559.521484,437.915041 559.521484,437.573242 C559.521484,437.277017 559.601236,436.821292 559.760742,436.206055 C559.920248,435.590817 560.136717,434.90723 560.410156,434.155273 C560.683595,433.403317 560.991209,432.639978 561.333008,431.865234 C561.674806,431.090491 562.039386,430.384118 562.426758,429.746094 C562.81413,429.10807 563.195799,428.583986 563.571777,428.173828 C563.947756,427.76367 564.295246,427.558594 564.614258,427.558594 C564.93327,427.558594 565.206705,427.626952 565.43457,427.763672 C565.662436,427.900391 565.776367,428.128254 565.776367,428.447266 C565.776367,429.01693 565.571291,429.586586 565.161133,430.15625 C564.750975,430.725914 564.306643,431.335446 563.828125,431.984863 C563.349607,432.634281 562.905275,433.334957 562.495117,434.086914 C562.084959,434.838871 561.879883,435.693355 561.879883,436.650391 C563.383797,436.650391 564.739577,436.33708 565.947266,435.710449 C567.154954,435.083818 568.248693,434.30339 569.228516,433.369141 C570.208338,432.434891 571.074215,431.420904 571.826172,430.327148 C572.578129,429.233393 573.244626,428.219406 573.825684,427.285156 C574.406741,426.350907 574.908038,425.570478 575.32959,424.943848 C575.751141,424.317217 576.110025,424.003906 576.40625,424.003906 C576.839195,424.003906 577.09554,424.134927 577.175293,424.396973 C577.255046,424.659018 577.294922,424.983722 577.294922,425.371094 C577.089843,426.077477 576.805015,426.903478 576.44043,427.849121 C576.075845,428.794764 575.705568,429.785965 575.32959,430.822754 C574.953611,431.859543 574.611818,432.89062 574.304199,433.916016 C573.99658,434.941411 573.797201,435.875647 573.706055,436.71875 C573.706055,436.741537 573.711751,436.775716 573.723145,436.821289 C573.734538,436.866862 573.740234,436.901042 573.740234,436.923828 C574.150393,436.787109 574.537759,436.547853 574.902344,436.206055 C575.266929,435.864256 575.625812,435.516766 575.979004,435.163574 C576.332196,434.810382 576.691079,434.491375 577.055664,434.206543 C577.420249,433.921711 577.796222,433.779297 578.183594,433.779297 C578.20638,433.779297 578.291829,433.9388 578.439941,434.257812 C578.588054,434.576825 578.582358,434.96419 578.422852,435.419922 C578.217772,435.579428 577.847496,435.852863 577.312012,436.240234 C576.776527,436.627606 576.212568,437.032062 575.620117,437.453613 C575.027666,437.875165 574.469404,438.285317 573.945312,438.684082 C573.421221,439.082847 573.056642,439.384765 572.851562,439.589844 C572.53255,439.908856 572.20215,440.36458 571.860352,440.957031 C571.518553,441.549482 571.17676,442.215979 570.834961,442.956543 C570.493162,443.697107 570.157065,444.477535 569.82666,445.297852 C569.496255,446.118168 569.171551,446.921383 568.852539,447.70752 C568.533527,448.493656 568.220216,449.222816 567.912598,449.89502 C567.604979,450.567223 567.325848,451.11979 567.075195,451.552734 C566.961262,451.735027 566.727704,452.09391 566.374512,452.629395 C566.02132,453.164879 565.633954,453.740231 565.212402,454.355469 C564.790851,454.970706 564.380699,455.557452 563.981934,456.115723 C563.583169,456.673994 563.281251,457.067056 563.076172,457.294922 C562.985026,457.408855 562.734377,457.676593 562.324219,458.098145 C561.91406,458.519696 561.452639,458.986814 560.939941,459.499512 C560.427244,460.01221 559.914553,460.519203 559.401855,461.020508 C558.889158,461.521812 558.496095,461.897785 558.222656,462.148438 C557.949217,462.307944 557.584638,462.507323 557.128906,462.746582 C556.673175,462.985841 556.200361,463.185221 555.710449,463.344727 C555.220538,463.504233 554.742027,463.606771 554.274902,463.652344 C553.807778,463.697917 553.426108,463.601075 553.129883,463.361816 C552.833657,463.122557 552.657064,462.723798 552.600098,462.165527 C552.543131,461.607256 552.668455,460.821131 552.976074,459.807129 C553.283693,458.793126 553.813473,457.511401 554.56543,455.961914 C555.317387,454.412427 556.35416,452.532563 557.675781,450.322266 Z M568.408203,442.973633 C568.36263,442.973633 568.288575,442.990722 568.186035,443.024902 C568.083496,443.059082 568.00944,443.087565 567.963867,443.110352 C567.918294,443.155925 567.815756,443.235677 567.65625,443.349609 C567.496744,443.463542 567.320151,443.588867 567.126465,443.725586 C566.932779,443.862305 566.750489,443.999023 566.57959,444.135742 C566.408691,444.272462 566.289063,444.375 566.220703,444.443359 C565.582679,444.899091 564.85352,445.542802 564.033203,446.374512 C563.212887,447.206222 562.364099,448.129064 561.486816,449.143066 C560.609533,450.157069 559.749353,451.228022 558.90625,452.355957 C558.063147,453.483892 557.305505,454.566238 556.633301,455.603027 C555.961097,456.639816 555.419924,457.591142 555.009766,458.457031 C554.599607,459.322921 554.383138,460.017901 554.360352,460.541992 C554.337565,461.066083 554.554034,461.373697 555.009766,461.464844 C555.465497,461.55599 556.240229,461.339521 557.333984,460.81543 C557.56185,460.610351 557.886554,460.308433 558.308105,459.909668 C558.729657,459.510903 559.151202,459.100751 559.572754,458.679199 C559.994305,458.257648 560.375975,457.870282 560.717773,457.51709 C561.059572,457.163898 561.264648,456.941732 561.333008,456.850586 C561.446941,456.69108 561.629231,456.440431 561.879883,456.098633 C562.130535,455.756834 562.40397,455.369468 562.700195,454.936523 C562.996421,454.503579 563.304035,454.047854 563.623047,453.569336 C563.942059,453.090818 564.243976,452.629397 564.528809,452.185059 C564.813641,451.74072 565.064289,451.347658 565.280762,451.005859 C565.497234,450.664061 565.651041,450.402019 565.742188,450.219727 C565.947267,449.855141 566.203612,449.336755 566.51123,448.664551 C566.818849,447.992347 567.109374,447.297367 567.382812,446.57959 C567.656251,445.861813 567.895507,445.172529 568.100586,444.511719 C568.305665,443.850908 568.408203,443.338218 568.408203,442.973633 Z M594.888672,437.128906 C594.888672,437.03776 594.894368,436.849774 594.905762,436.564941 C594.917155,436.280109 594.922852,436.092123 594.922852,436.000977 C595.652022,434.337557 596.586257,432.799486 597.725586,431.386719 C598.864915,429.973951 600.152337,428.720709 601.587891,427.626953 C601.633464,427.626953 601.707519,427.609863 601.810059,427.575684 C601.912598,427.541504 601.986653,427.524414 602.032227,427.524414 C602.647464,427.524414 603.154458,427.655435 603.553223,427.91748 C603.951988,428.179526 604.270995,428.52132 604.510254,428.942871 C604.749513,429.364423 604.914713,429.83154 605.005859,430.344238 C605.097006,430.856936 605.142578,431.352537 605.142578,431.831055 C605.142578,432.719731 604.937502,433.64827 604.527344,434.616699 C604.117185,435.585129 603.564619,436.473792 602.869629,437.282715 C602.174638,438.091638 601.382817,438.752439 600.494141,439.265137 C599.605464,439.777835 598.682622,440.03418 597.725586,440.03418 C596.76855,440.03418 596.05648,439.777835 595.589355,439.265137 C595.122231,438.752439 594.888672,438.040369 594.888672,437.128906 Z M597.554688,436.71875 C597.554688,436.969402 597.657226,437.140299 597.862305,437.231445 C598.067384,437.322592 598.27246,437.368164 598.477539,437.368164 C599.047203,437.368164 599.599769,437.214357 600.135254,436.906738 C600.670738,436.59912 601.149249,436.211754 601.570801,435.744629 C601.992352,435.277504 602.328449,434.759117 602.579102,434.189453 C602.829754,433.619789 602.955078,433.072919 602.955078,432.548828 C602.955078,432.298176 602.937988,432.019045 602.903809,431.711426 C602.869629,431.403807 602.795573,431.130372 602.681641,430.891113 C602.567708,430.651854 602.391114,430.463868 602.151855,430.327148 C601.912596,430.190429 601.5765,430.167643 601.143555,430.258789 C600.824543,430.327149 600.459963,430.62337 600.049805,431.147461 C599.639646,431.671552 599.246584,432.281084 598.870605,432.976074 C598.494627,433.671065 598.181316,434.366045 597.930664,435.061035 C597.680012,435.756026 597.554688,436.308592 597.554688,436.71875 Z M606.351562,438.461914 L606.351562,437.983398 C606.351562,437.869466 606.368652,437.761231 606.402832,437.658691 C606.437012,437.556152 606.488281,437.447917 606.556641,437.333984 C606.625,437.220052 606.716145,437.071941 606.830078,436.889648 C607.012371,436.570636 607.354164,436.012374 607.855469,435.214844 C608.356773,434.417314 608.89225,433.574223 609.461914,432.685547 C610.031578,431.796871 610.572751,430.95378 611.085449,430.15625 L612.162109,428.481445 C612.184896,428.458659 612.247558,428.447266 612.350098,428.447266 L612.811523,428.447266 C612.925456,428.447266 612.993815,428.458659 613.016602,428.481445 C613.039388,428.504232 613.090657,428.561197 613.17041,428.652344 C613.250163,428.74349 613.341308,428.840332 613.443848,428.942871 C613.546387,429.045411 613.637532,429.142252 613.717285,429.233398 C613.797038,429.324545 613.8597,429.370117 613.905273,429.370117 C614.110353,429.370117 614.326822,429.301758 614.554688,429.165039 C614.782553,429.02832 615.016112,428.874513 615.255371,428.703613 C615.49463,428.532714 615.739582,428.378907 615.990234,428.242188 C616.240887,428.105468 616.502928,428.037109 616.776367,428.037109 C617.072593,428.037109 617.346027,428.105468 617.59668,428.242188 C617.847332,428.378907 618.063801,428.549804 618.246094,428.754883 C618.428386,428.959962 618.5708,429.187824 618.67334,429.438477 C618.775879,429.689129 618.827148,429.939777 618.827148,430.19043 C618.827148,430.714521 618.753093,431.215818 618.60498,431.694336 C618.456868,432.172854 618.291668,432.645668 618.109375,433.112793 C617.927082,433.579918 617.761882,434.047035 617.61377,434.51416 C617.465657,434.981285 617.391602,435.465492 617.391602,435.966797 C617.391602,436.468101 617.448567,436.826985 617.5625,437.043457 C617.676433,437.259929 617.99544,437.368164 618.519531,437.368164 C619.134769,437.368164 619.721514,437.277019 620.279785,437.094727 C620.838056,436.912434 621.413408,436.821289 622.005859,436.821289 C622.005859,437.368167 621.840659,437.823891 621.510254,438.188477 C621.179849,438.553062 620.769696,438.843586 620.279785,439.060059 C619.789874,439.276531 619.265791,439.424642 618.70752,439.504395 C618.149249,439.584148 617.642255,439.624023 617.186523,439.624023 C616.320634,439.624023 615.688316,439.379071 615.289551,438.88916 C614.890786,438.399249 614.691406,437.744145 614.691406,436.923828 C614.691406,436.37695 614.788248,435.86426 614.981934,435.385742 C615.175619,434.907224 615.392089,434.440106 615.631348,433.984375 C615.870607,433.528644 616.092772,433.072919 616.297852,432.617188 C616.502931,432.161456 616.605469,431.671552 616.605469,431.147461 C616.605469,431.010742 616.582683,430.828452 616.537109,430.600586 C616.491536,430.37272 616.343426,430.258789 616.092773,430.258789 C615.340817,430.258789 614.662926,430.498044 614.059082,430.976562 C613.455238,431.455081 612.908368,432.058916 612.418457,432.788086 C611.928546,433.517256 611.484214,434.303381 611.085449,435.146484 C610.686684,435.989588 610.310711,436.775712 609.95752,437.504883 C609.604328,438.234053 609.268231,438.837888 608.949219,439.316406 C608.630207,439.794924 608.299806,440.03418 607.958008,440.03418 C607.47949,440.03418 607.092124,439.886069 606.795898,439.589844 C606.499673,439.293618 606.351562,438.917646 606.351562,438.461914 Z M620.412109,436.889648 C620.412109,436.730142 620.429199,436.48519 620.463379,436.154785 C620.497559,435.82438 620.537435,435.499676 620.583008,435.180664 C620.628581,434.861652 620.674153,434.571128 620.719727,434.309082 C620.7653,434.047036 620.810872,433.881836 620.856445,433.813477 L627.077148,421.37207 C627.168295,421.189778 627.344888,420.933433 627.606934,420.603027 C627.868979,420.272622 628.153807,419.930829 628.461426,419.577637 C628.769045,419.224445 629.076659,418.894045 629.384277,418.586426 C629.691896,418.278807 629.948241,418.033855 630.15332,417.851562 C630.312826,417.897136 630.426757,417.976887 630.495117,418.09082 C630.563477,418.204753 630.609049,418.335774 630.631836,418.483887 C630.654623,418.631999 630.660319,418.774413 630.648926,418.911133 C630.637532,419.047852 630.631836,419.161783 630.631836,419.25293 L630.631836,419.731445 C630.631836,419.936524 630.620443,420.039062 630.597656,420.039062 C630.369791,420.6543 630.016604,421.383459 629.538086,422.226562 C629.059568,423.069666 628.524092,423.969722 627.931641,424.926758 C627.33919,425.883794 626.729658,426.880691 626.103027,427.91748 C625.476397,428.95427 624.906741,429.97965 624.394043,430.993652 C623.881345,432.007655 623.4598,432.981766 623.129395,433.916016 C622.798989,434.850265 622.633789,435.704749 622.633789,436.479492 C622.633789,436.88965 622.753417,437.214354 622.992676,437.453613 C623.231935,437.692872 623.48828,437.903645 623.761719,438.085938 C624.035158,438.26823 624.291503,438.45052 624.530762,438.632812 C624.770021,438.815105 624.889648,439.065754 624.889648,439.384766 C624.889648,439.589845 624.798504,439.743652 624.616211,439.846191 C624.433918,439.948731 624.217449,440 623.966797,440 C623.009761,440 622.178063,439.732262 621.47168,439.196777 C620.765296,438.661293 620.412109,437.892258 620.412109,436.889648 Z M626.577148,450.322266 C627.306319,449.137364 628.149409,448.083501 629.106445,447.160645 C630.063481,446.237788 631.048986,445.366215 632.062988,444.545898 C633.076991,443.725582 634.085281,442.928064 635.087891,442.15332 C636.0905,441.378577 637.019039,440.546879 637.873535,439.658203 C638.728032,438.769527 639.462888,437.784022 640.078125,436.70166 C640.693362,435.619298 641.114908,434.360359 641.342773,432.924805 C641.342773,432.879232 641.337077,432.805176 641.325684,432.702637 C641.31429,432.600097 641.308594,432.526042 641.308594,432.480469 C640.784503,433.095706 640.152185,433.790686 639.411621,434.56543 C638.671057,435.340173 637.873539,436.069333 637.019043,436.75293 C636.164547,437.436527 635.270187,438.006183 634.335938,438.461914 C633.401688,438.917646 632.490239,439.145508 631.601562,439.145508 C631.373697,439.145508 631.083172,439.128418 630.72998,439.094238 C630.376789,439.060058 630.029299,438.986003 629.6875,438.87207 C629.345701,438.758137 629.04948,438.598634 628.798828,438.393555 C628.548176,438.188476 628.422852,437.915041 628.422852,437.573242 C628.422852,437.277017 628.502603,436.821292 628.662109,436.206055 C628.821615,435.590817 629.038085,434.90723 629.311523,434.155273 C629.584962,433.403317 629.892576,432.639978 630.234375,431.865234 C630.576174,431.090491 630.940753,430.384118 631.328125,429.746094 C631.715497,429.10807 632.097166,428.583986 632.473145,428.173828 C632.849123,427.76367 633.196613,427.558594 633.515625,427.558594 C633.834637,427.558594 634.108072,427.626952 634.335938,427.763672 C634.563803,427.900391 634.677734,428.128254 634.677734,428.447266 C634.677734,429.01693 634.472658,429.586586 634.0625,430.15625 C633.652342,430.725914 633.20801,431.335446 632.729492,431.984863 C632.250974,432.634281 631.806643,433.334957 631.396484,434.086914 C630.986326,434.838871 630.78125,435.693355 630.78125,436.650391 C632.285164,436.650391 633.640944,436.33708 634.848633,435.710449 C636.056321,435.083818 637.15006,434.30339 638.129883,433.369141 C639.109705,432.434891 639.975582,431.420904 640.727539,430.327148 C641.479496,429.233393 642.145993,428.219406 642.727051,427.285156 C643.308108,426.350907 643.809405,425.570478 644.230957,424.943848 C644.652509,424.317217 645.011392,424.003906 645.307617,424.003906 C645.740562,424.003906 645.996907,424.134927 646.07666,424.396973 C646.156413,424.659018 646.196289,424.983722 646.196289,425.371094 C645.99121,426.077477 645.706382,426.903478 645.341797,427.849121 C644.977212,428.794764 644.606935,429.785965 644.230957,430.822754 C643.854979,431.859543 643.513185,432.89062 643.205566,433.916016 C642.897948,434.941411 642.698568,435.875647 642.607422,436.71875 C642.607422,436.741537 642.613118,436.775716 642.624512,436.821289 C642.635905,436.866862 642.641602,436.901042 642.641602,436.923828 C643.05176,436.787109 643.439126,436.547853 643.803711,436.206055 C644.168296,435.864256 644.527179,435.516766 644.880371,435.163574 C645.233563,434.810382 645.592446,434.491375 645.957031,434.206543 C646.321616,433.921711 646.697589,433.779297 647.084961,433.779297 C647.107748,433.779297 647.193196,433.9388 647.341309,434.257812 C647.489421,434.576825 647.483725,434.96419 647.324219,435.419922 C647.11914,435.579428 646.748863,435.852863 646.213379,436.240234 C645.677894,436.627606 645.113935,437.032062 644.521484,437.453613 C643.929033,437.875165 643.370771,438.285317 642.84668,438.684082 C642.322589,439.082847 641.958009,439.384765 641.75293,439.589844 C641.433918,439.908856 641.103517,440.36458 640.761719,440.957031 C640.41992,441.549482 640.078127,442.215979 639.736328,442.956543 C639.39453,443.697107 639.058433,444.477535 638.728027,445.297852 C638.397622,446.118168 638.072918,446.921383 637.753906,447.70752 C637.434894,448.493656 637.121584,449.222816 636.813965,449.89502 C636.506346,450.567223 636.227215,451.11979 635.976562,451.552734 C635.86263,451.735027 635.629071,452.09391 635.275879,452.629395 C634.922687,453.164879 634.535321,453.740231 634.11377,454.355469 C633.692218,454.970706 633.282066,455.557452 632.883301,456.115723 C632.484536,456.673994 632.182618,457.067056 631.977539,457.294922 C631.886393,457.408855 631.635744,457.676593 631.225586,458.098145 C630.815428,458.519696 630.354006,458.986814 629.841309,459.499512 C629.328611,460.01221 628.815921,460.519203 628.303223,461.020508 C627.790525,461.521812 627.397462,461.897785 627.124023,462.148438 C626.850585,462.307944 626.486005,462.507323 626.030273,462.746582 C625.574542,462.985841 625.101728,463.185221 624.611816,463.344727 C624.121905,463.504233 623.643394,463.606771 623.17627,463.652344 C622.709145,463.697917 622.327475,463.601075 622.03125,463.361816 C621.735025,463.122557 621.558431,462.723798 621.501465,462.165527 C621.444498,461.607256 621.569823,460.821131 621.877441,459.807129 C622.18506,458.793126 622.71484,457.511401 623.466797,455.961914 C624.218754,454.412427 625.255527,452.532563 626.577148,450.322266 Z M637.30957,442.973633 C637.263997,442.973633 637.189942,442.990722 637.087402,443.024902 C636.984863,443.059082 636.910808,443.087565 636.865234,443.110352 C636.819661,443.155925 636.717123,443.235677 636.557617,443.349609 C636.398111,443.463542 636.221518,443.588867 636.027832,443.725586 C635.834146,443.862305 635.651856,443.999023 635.480957,444.135742 C635.310058,444.272462 635.19043,444.375 635.12207,444.443359 C634.484046,444.899091 633.754887,445.542802 632.93457,446.374512 C632.114254,447.206222 631.265467,448.129064 630.388184,449.143066 C629.510901,450.157069 628.65072,451.228022 627.807617,452.355957 C626.964514,453.483892 626.206872,454.566238 625.534668,455.603027 C624.862464,456.639816 624.321291,457.591142 623.911133,458.457031 C623.500975,459.322921 623.284505,460.017901 623.261719,460.541992 C623.238932,461.066083 623.455401,461.373697 623.911133,461.464844 C624.366864,461.55599 625.141596,461.339521 626.235352,460.81543 C626.463217,460.610351 626.787921,460.308433 627.209473,459.909668 C627.631024,459.510903 628.05257,459.100751 628.474121,458.679199 C628.895673,458.257648 629.277342,457.870282 629.619141,457.51709 C629.960939,457.163898 630.166015,456.941732 630.234375,456.850586 C630.348308,456.69108 630.530598,456.440431 630.78125,456.098633 C631.031902,455.756834 631.305337,455.369468 631.601562,454.936523 C631.897788,454.503579 632.205402,454.047854 632.524414,453.569336 C632.843426,453.090818 633.145344,452.629397 633.430176,452.185059 C633.715008,451.74072 633.965656,451.347658 634.182129,451.005859 C634.398601,450.664061 634.552408,450.402019 634.643555,450.219727 C634.848634,449.855141 635.104979,449.336755 635.412598,448.664551 C635.720216,447.992347 636.010741,447.297367 636.28418,446.57959 C636.557619,445.861813 636.796874,445.172529 637.001953,444.511719 C637.207032,443.850908 637.30957,443.338218 637.30957,442.973633 Z M650.972656,455.551758 C650.972656,454.594722 651.13216,453.683273 651.451172,452.817383 C651.770184,451.951493 652.180336,451.131189 652.681641,450.356445 C653.182945,449.581702 653.752601,448.846846 654.390625,448.151855 C655.028649,447.456865 655.666663,446.801761 656.304688,446.186523 C656.532553,445.958658 656.897133,445.622561 657.398438,445.178223 C657.899742,444.733884 658.469398,444.232587 659.107422,443.674316 C659.745446,443.116045 660.41764,442.534997 661.124023,441.931152 C661.830407,441.327308 662.508298,440.751956 663.157715,440.205078 C663.807132,439.6582 664.388181,439.168296 664.900879,438.735352 C665.413577,438.302407 665.795246,437.983399 666.045898,437.77832 C666.114258,437.550455 666.239582,437.208661 666.421875,436.75293 C666.604168,436.297198 666.81494,435.773115 667.054199,435.180664 C667.293458,434.588213 667.53841,433.972985 667.789062,433.334961 C668.039715,432.696937 668.284667,432.087405 668.523926,431.506348 C668.763185,430.92529 668.979654,430.406903 669.17334,429.951172 C669.367026,429.49544 669.50944,429.153647 669.600586,428.925781 C669.714519,428.652342 669.856933,428.361818 670.027832,428.054199 C670.198731,427.74658 670.392414,427.456056 670.608887,427.182617 C670.825359,426.909178 671.076008,426.681316 671.36084,426.499023 C671.645672,426.316731 671.958983,426.225586 672.300781,426.225586 C672.300781,426.954756 672.181154,427.763667 671.941895,428.652344 C671.702636,429.54102 671.412111,430.41829 671.070312,431.28418 C670.728514,432.150069 670.381024,432.958981 670.027832,433.710938 C669.67464,434.462894 669.384116,435.078123 669.15625,435.556641 C669.201823,435.556641 669.275878,435.562337 669.378418,435.57373 C669.480958,435.585124 669.555013,435.59082 669.600586,435.59082 C670.193037,435.59082 670.756996,435.511069 671.29248,435.351562 C671.827965,435.192056 672.391924,435.112305 672.984375,435.112305 C673.166668,435.112305 673.366047,435.123698 673.58252,435.146484 C673.798992,435.169271 673.941406,435.305988 674.009766,435.556641 C673.759113,436.057945 673.371747,436.411132 672.847656,436.616211 C672.323565,436.82129 671.759606,436.992187 671.155762,437.128906 C670.551918,437.265626 669.982262,437.436522 669.446777,437.641602 C668.911293,437.846681 668.529624,438.188474 668.301758,438.666992 C668.165038,438.940431 667.954266,439.367673 667.669434,439.94873 C667.384601,440.529788 667.065594,441.179196 666.712402,441.896973 C666.35921,442.61475 665.983238,443.378088 665.584473,444.187012 C665.185708,444.995935 664.815431,445.76497 664.473633,446.494141 C664.131834,447.223311 663.82422,447.884112 663.550781,448.476562 C663.277342,449.069013 663.083659,449.501952 662.969727,449.775391 C662.582355,450.595707 662.166506,451.564122 661.722168,452.680664 C661.27783,453.797206 660.742353,454.862462 660.115723,455.876465 C659.489092,456.890467 658.742843,457.750648 657.876953,458.457031 C657.011063,459.163415 655.97429,459.516602 654.766602,459.516602 C654.196937,459.516602 653.678551,459.408367 653.211426,459.191895 C652.744301,458.975422 652.345542,458.684898 652.015137,458.320312 C651.684731,457.955727 651.428386,457.534182 651.246094,457.055664 C651.063801,456.577146 650.972656,456.075849 650.972656,455.551758 Z M652.71582,455.004883 C652.71582,455.346681 652.73291,455.677082 652.76709,455.996094 C652.80127,456.315106 652.881022,456.60563 653.006348,456.867676 C653.131674,457.129721 653.313964,457.340494 653.553223,457.5 C653.792482,457.659506 654.128579,457.739258 654.561523,457.739258 C655.404627,457.739258 656.202145,457.43734 656.954102,456.833496 C657.706058,456.229652 658.383949,455.511886 658.987793,454.680176 C659.591637,453.848466 660.121417,452.976893 660.577148,452.06543 C661.03288,451.153967 661.386066,450.390628 661.636719,449.775391 C661.796225,449.388019 661.978515,448.926598 662.183594,448.391113 C662.388673,447.855629 662.605142,447.29167 662.833008,446.699219 C663.060874,446.106768 663.288736,445.520022 663.516602,444.938965 C663.744467,444.357907 663.943847,443.839521 664.114746,443.383789 C664.285645,442.928058 664.428059,442.552085 664.541992,442.255859 C664.655925,441.959634 664.712891,441.80013 664.712891,441.777344 L664.712891,440.888672 C664.667317,440.934245 664.576173,440.996907 664.439453,441.07666 C664.302734,441.156413 664.166016,441.241862 664.029297,441.333008 C663.892577,441.424154 663.761557,441.509602 663.63623,441.589355 C663.510904,441.669108 663.425456,441.731771 663.379883,441.777344 C663.19759,441.93685 662.907066,442.204588 662.508301,442.580566 C662.109536,442.956545 661.665204,443.372394 661.175293,443.828125 C660.685382,444.283856 660.166995,444.768064 659.620117,445.280762 C659.073239,445.79346 658.554853,446.283364 658.064941,446.750488 C657.57503,447.217613 657.130699,447.639158 656.731934,448.015137 C656.333169,448.391115 656.042644,448.670246 655.860352,448.852539 C655.54134,449.37663 655.199546,449.866534 654.834961,450.322266 C654.470376,450.777997 654.134279,451.245115 653.82666,451.723633 C653.519041,452.202151 653.257,452.703448 653.040527,453.227539 C652.824055,453.75163 652.71582,454.344072 652.71582,455.004883 Z M674.898438,413.613281 C674.898438,413.453775 674.955403,413.311361 675.069336,413.186035 C675.183269,413.060709 675.325683,412.946778 675.496582,412.844238 C675.667481,412.741699 675.844075,412.661947 676.026367,412.60498 C676.20866,412.548014 676.35677,412.519531 676.470703,412.519531 C676.812502,412.519531 677.017578,412.650552 677.085938,412.912598 C677.154297,413.174643 677.188477,413.430988 677.188477,413.681641 C677.188477,414.114585 677.068849,414.484862 676.82959,414.79248 C676.590331,415.100099 676.242841,415.253906 675.787109,415.253906 C675.58203,415.253906 675.41683,415.202637 675.291504,415.100098 C675.166178,414.997558 675.075033,414.860841 675.018066,414.689941 C674.9611,414.519042 674.926921,414.342449 674.915527,414.160156 C674.904134,413.977864 674.898438,413.795574 674.898438,413.613281 Z M672.484375,438.291016 C672.484375,437.949217 672.586913,437.46501 672.791992,436.838379 C672.997071,436.211748 673.26481,435.533858 673.595215,434.804688 C673.92562,434.075517 674.301593,433.334965 674.723145,432.583008 C675.144696,431.831051 675.571938,431.147464 676.004883,430.532227 C676.437828,429.916989 676.84798,429.415692 677.235352,429.02832 C677.622723,428.640949 677.964517,428.447266 678.260742,428.447266 C678.898766,428.447266 679.217773,428.75488 679.217773,429.370117 C679.217773,429.643556 679.166504,429.871418 679.063965,430.053711 C678.961425,430.236004 678.841798,430.4069 678.705078,430.566406 C678.568359,430.725912 678.420248,430.879719 678.260742,431.027832 C678.101236,431.175945 677.964519,431.352538 677.850586,431.557617 C677.645507,431.899416 677.394858,432.366533 677.098633,432.958984 C676.802407,433.551435 676.511883,434.126788 676.227051,434.685059 C675.942219,435.24333 675.697267,435.73893 675.492188,436.171875 C675.287108,436.60482 675.18457,436.844075 675.18457,436.889648 L675.18457,437.333984 C676.073247,437.174478 676.92773,436.792809 677.748047,436.188965 C678.568363,435.585121 679.348792,434.873051 680.089355,434.052734 C680.829919,433.232418 681.536292,432.372238 682.208496,431.472168 C682.8807,430.572098 683.513018,429.740401 684.105469,428.977051 C684.69792,428.213701 685.256182,427.581383 685.780273,427.080078 C686.304365,426.578774 686.794269,426.328125 687.25,426.328125 C687.25,427.171228 687.079103,427.934567 686.737305,428.618164 C686.395506,429.301761 686.02523,429.973955 685.626465,430.634766 C685.2277,431.295576 684.857424,431.973467 684.515625,432.668457 C684.173826,433.363447 684.00293,434.143876 684.00293,435.009766 C684.00293,435.374351 684.225095,435.699055 684.669434,435.983887 C685.113772,436.268719 685.626462,436.507974 686.20752,436.70166 C686.788577,436.895346 687.352536,437.049153 687.899414,437.163086 C688.446292,437.277019 688.822265,437.345377 689.027344,437.368164 L689.027344,438.256836 C688.503253,438.279623 687.853845,438.285319 687.079102,438.273926 C686.304358,438.262532 685.529626,438.177084 684.754883,438.017578 C683.980139,437.858072 683.279463,437.590334 682.652832,437.214355 C682.026201,436.838377 681.610353,436.285811 681.405273,435.556641 C680.812823,435.944012 680.243167,436.399737 679.696289,436.923828 C679.149411,437.447919 678.585452,437.937823 678.004395,438.393555 C677.423337,438.849286 676.813805,439.236652 676.175781,439.555664 C675.537757,439.874676 674.842777,440.03418 674.09082,440.03418 C673.635089,440.03418 673.25342,439.840497 672.945801,439.453125 C672.638182,439.065753 672.484375,438.678387 672.484375,438.291016 Z M688.390625,436.206055 C688.390625,435.77311 688.453287,435.397137 688.578613,435.078125 C688.703939,434.759113 689.028643,434.599609 689.552734,434.599609 C689.598308,434.599609 689.706542,434.605306 689.877441,434.616699 C690.048341,434.628093 690.167968,434.645182 690.236328,434.667969 C690.213542,435.738938 690.384438,436.542152 690.749023,437.077637 C691.113609,437.613121 691.797196,437.880859 692.799805,437.880859 C693.620121,437.880859 694.429032,437.755535 695.226562,437.504883 C696.024093,437.254231 696.747555,436.883954 697.396973,436.394043 C698.04639,435.904132 698.570473,435.305993 698.969238,434.599609 C699.368003,433.893226 699.567383,433.095708 699.567383,432.207031 C699.567383,431.660154 699.379396,431.272788 699.003418,431.044922 C698.62744,430.817056 698.211591,430.634766 697.755859,430.498047 C697.300128,430.361327 696.884279,430.20752 696.508301,430.036621 C696.132322,429.865722 695.944336,429.563804 695.944336,429.130859 C695.944336,428.606768 696.263343,428.105471 696.901367,427.626953 C697.539391,427.148435 698.291337,426.721193 699.157227,426.345215 C700.023116,425.969236 700.883297,425.673015 701.737793,425.456543 C702.592289,425.240071 703.247394,425.131836 703.703125,425.131836 C703.703125,425.792647 703.560711,426.259764 703.275879,426.533203 C702.991047,426.806642 702.643557,427.023111 702.233398,427.182617 C701.82324,427.342123 701.407391,427.49593 700.98584,427.644043 C700.564288,427.792156 700.216798,428.071287 699.943359,428.481445 C700.307945,428.777671 700.609862,429.045409 700.849121,429.284668 C701.08838,429.523927 701.276367,429.780272 701.413086,430.053711 C701.549805,430.32715 701.64095,430.629067 701.686523,430.959473 C701.732097,431.289878 701.754883,431.68294 701.754883,432.138672 C701.754883,433.323574 701.498538,434.400223 700.98584,435.368652 C700.473142,436.337082 699.806645,437.168779 698.986328,437.86377 C698.166012,438.55876 697.231776,439.094236 696.183594,439.470215 C695.135411,439.846193 694.064459,440.03418 692.970703,440.03418 C692.378252,440.03418 691.8029,439.960124 691.244629,439.812012 C690.686358,439.663899 690.196454,439.43034 689.774902,439.111328 C689.353351,438.792316 689.017254,438.393557 688.766602,437.915039 C688.515949,437.436521 688.390625,436.866865 688.390625,436.206055 Z M704.057617,436.68457 C704.057617,436.02376 704.182941,435.362959 704.433594,434.702148 C704.684246,434.041338 704.980467,433.386234 705.322266,432.736816 C705.664064,432.087399 706.011554,431.443688 706.364746,430.805664 C706.717938,430.16764 706.985676,429.541019 707.167969,428.925781 C706.735024,429.176434 706.364748,429.318847 706.057129,429.353027 C705.74951,429.387207 705.379234,429.404297 704.946289,429.404297 C704.900716,429.404297 704.758302,429.3986 704.519043,429.387207 C704.279784,429.375814 704.125977,429.370117 704.057617,429.370117 C704.194337,428.868813 704.444985,428.418785 704.80957,428.02002 C705.174155,427.621255 705.590004,427.279461 706.057129,426.994629 C706.524254,426.709797 707.014158,426.470541 707.526855,426.276855 C708.039553,426.08317 708.500975,425.929363 708.911133,425.81543 C709.59473,424.744461 710.152993,423.667811 710.585938,422.585449 C711.018882,421.503087 711.457517,420.443527 711.901855,419.406738 C712.346194,418.369949 712.870277,417.378748 713.474121,416.433105 C714.077965,415.487463 714.892573,414.615889 715.917969,413.818359 L716.088867,415.117188 L711.816406,425.131836 C712.067059,425.063476 712.374673,424.995118 712.739258,424.926758 C713.103843,424.858398 713.474119,424.790039 713.850098,424.72168 C714.226076,424.65332 714.590656,424.590658 714.943848,424.533691 C715.29704,424.476725 715.598957,424.414063 715.849609,424.345703 C715.872396,424.345703 715.940755,424.340007 716.054688,424.328613 C716.16862,424.31722 716.259765,424.311523 716.328125,424.311523 C716.647137,424.311523 716.909179,424.368489 717.114258,424.482422 C717.319337,424.596355 717.490234,424.847003 717.626953,425.234375 C716.077466,425.690106 714.676113,426.168617 713.422852,426.669922 C712.16959,427.171226 711.081548,427.826331 710.158691,428.635254 C709.235835,429.444177 708.48389,430.469558 707.902832,431.711426 C707.321774,432.953294 706.917319,434.542634 706.689453,436.479492 C706.689453,436.88965 706.712239,437.265623 706.757812,437.607422 C706.803386,437.94922 707.088214,438.154297 707.612305,438.222656 C708.136396,438.222656 708.6263,438.120118 709.082031,437.915039 C709.537763,437.70996 709.982094,437.487794 710.415039,437.248535 C710.847984,437.009276 711.286619,436.78711 711.730957,436.582031 C712.175295,436.376952 712.659503,436.274414 713.183594,436.274414 C713.183594,436.821292 712.944338,437.322589 712.46582,437.77832 C711.987302,438.234052 711.41195,438.632811 710.739746,438.974609 C710.067542,439.316408 709.378259,439.57845 708.671875,439.760742 C707.965491,439.943035 707.384442,440.03418 706.928711,440.03418 C706.472979,440.03418 706.062827,439.943035 705.698242,439.760742 C705.333657,439.57845 705.031739,439.333498 704.79248,439.025879 C704.553221,438.71826 704.370932,438.359377 704.245605,437.949219 C704.120279,437.53906 704.057617,437.117515 704.057617,436.68457 Z M729.546875,436.889648 C729.546875,436.593423 729.62093,436.257326 729.769043,435.881348 C729.917156,435.505369 730.150715,435.260417 730.469727,435.146484 C730.5153,435.123698 730.577962,435.106608 730.657715,435.095215 C730.737468,435.083822 730.811523,435.066732 730.879883,435.043945 C730.971029,435.021159 731.050781,435.009766 731.119141,435.009766 L731.119141,436.889648 C731.25586,436.752929 731.466633,436.50228 731.751465,436.137695 C732.036297,435.77311 732.332518,435.380048 732.640137,434.958496 C732.947755,434.536945 733.232583,434.132489 733.494629,433.745117 C733.756674,433.357745 733.933268,433.072918 734.024414,432.890625 L741.988281,417.373047 L742.17627,417.167969 C742.301596,417.031249 742.449706,416.934408 742.620605,416.877441 C742.791505,416.820475 742.979491,416.848958 743.18457,416.962891 C743.389649,417.076823 743.583332,417.373044 743.765625,417.851562 L738.912109,427.626953 L738.912109,428.037109 C739.550133,428.128256 740.142575,428.259276 740.689453,428.430176 C741.236331,428.601075 741.709145,428.846027 742.10791,429.165039 C742.506675,429.484051 742.819986,429.877114 743.047852,430.344238 C743.275717,430.811363 743.389648,431.375322 743.389648,432.036133 C743.389648,433.152675 743.099124,434.195145 742.518066,435.163574 C741.937009,436.132004 741.19076,436.975094 740.279297,437.692871 C739.367834,438.410648 738.359543,438.980304 737.254395,439.401855 C736.149246,439.823407 735.08399,440.03418 734.058594,440.03418 C733.602862,440.03418 733.112958,439.971518 732.588867,439.846191 C732.064776,439.720865 731.580569,439.527182 731.13623,439.265137 C730.691892,439.003091 730.31592,438.672691 730.008301,438.273926 C729.700682,437.875161 729.546875,437.41374 729.546875,436.889648 Z M739.288086,430.19043 C738.969074,430.19043 738.621584,430.33854 738.245605,430.634766 C737.869627,430.930991 737.499351,431.31266 737.134766,431.779785 C736.77018,432.24691 736.416994,432.770993 736.075195,433.352051 C735.733397,433.933108 735.431479,434.508461 735.169434,435.078125 C734.907388,435.647789 734.696615,436.183266 734.537109,436.68457 C734.377603,437.185875 734.297852,437.584634 734.297852,437.880859 C734.935876,437.880859 735.653642,437.732749 736.451172,437.436523 C737.248702,437.140298 737.994951,436.747236 738.689941,436.257324 C739.384932,435.767413 739.965981,435.197757 740.433105,434.54834 C740.90023,433.898923 741.133789,433.221032 741.133789,432.514648 C741.133789,431.899411 741.008465,431.358238 740.757812,430.891113 C740.50716,430.423989 740.017256,430.19043 739.288086,430.19043 Z M744.701172,438.222656 C744.3138,437.356767 744.142903,436.507979 744.188477,435.67627 C744.23405,434.84456 744.422036,434.058435 744.752441,433.317871 C745.082847,432.577307 745.515785,431.905114 746.05127,431.30127 C746.586754,430.697425 747.162106,430.173342 747.777344,429.729004 C748.392581,429.284666 749.013506,428.948569 749.640137,428.720703 C750.266767,428.492837 750.819334,428.395996 751.297852,428.430176 C751.77637,428.464356 752.152342,428.640949 752.425781,428.959961 C752.69922,429.278973 752.790365,429.768877 752.699219,430.429688 C752.699219,431.318364 752.420087,432.093096 751.861816,432.753906 C751.303545,433.414717 750.688317,434.007159 750.016113,434.53125 C749.343909,435.055341 748.728681,435.528155 748.17041,435.949707 C747.612139,436.371259 747.333008,436.764321 747.333008,437.128906 C747.333008,437.333985 747.452636,437.493489 747.691895,437.607422 C747.931154,437.721355 748.210285,437.806803 748.529297,437.86377 C748.848309,437.920736 749.167316,437.960612 749.486328,437.983398 C749.80534,438.006185 750.033202,438.028971 750.169922,438.051758 C752.31186,437.596026 753.918289,437.316895 754.989258,437.214355 C756.060227,437.111816 756.732421,437.123209 757.005859,437.248535 C757.279298,437.373861 757.228029,437.567544 756.852051,437.82959 C756.476072,438.091635 755.90072,438.36507 755.125977,438.649902 C754.351233,438.934734 753.451177,439.19108 752.425781,439.418945 C751.400385,439.646811 750.386398,439.777832 749.383789,439.812012 C748.38118,439.846192 747.452641,439.74935 746.598145,439.521484 C745.743648,439.293619 745.11133,438.86068 744.701172,438.222656 Z M750.682617,430.429688 C750.226886,430.429688 749.793947,430.555012 749.383789,430.805664 C748.973631,431.056316 748.603355,431.369627 748.272949,431.745605 C747.942544,432.121584 747.663413,432.531736 747.435547,432.976074 C747.207681,433.420412 747.036784,433.836261 746.922852,434.223633 C746.968425,434.246419 747.002604,434.257812 747.025391,434.257812 L747.12793,434.257812 C747.446942,434.257812 747.811521,434.121095 748.22168,433.847656 C748.631838,433.574217 749.019204,433.23812 749.383789,432.839355 C749.748374,432.44059 750.055988,432.024742 750.306641,431.591797 C750.557293,431.158852 750.682617,430.771486 750.682617,430.429688 Z M749.362305,458.149414 C749.362305,456.850579 749.58447,455.688482 750.028809,454.663086 C750.473147,453.63769 751.059892,452.686365 751.789062,451.809082 C752.518233,450.931799 753.34993,450.122888 754.28418,449.382324 C755.218429,448.641761 756.175451,447.923994 757.155273,447.229004 C758.135096,446.534013 759.092118,445.833337 760.026367,445.126953 C760.960617,444.420569 761.792314,443.668624 762.521484,442.871094 C763.250655,442.073564 763.8374,441.207687 764.281738,440.273438 C764.726076,439.339188 764.948242,438.302415 764.948242,437.163086 L764.948242,436.838379 C764.948242,436.66748 764.936849,436.559245 764.914062,436.513672 C764.754556,436.650391 764.446942,436.849771 763.991211,437.111816 C763.535479,437.373862 763.051272,437.647297 762.538574,437.932129 C762.025876,438.216961 761.530276,438.473306 761.051758,438.701172 C760.57324,438.929038 760.231446,439.077148 760.026367,439.145508 C760.003581,439.145508 759.918132,439.156901 759.77002,439.179688 C759.621907,439.202474 759.45101,439.22526 759.257324,439.248047 C759.063638,439.270833 758.875652,439.287923 758.693359,439.299316 C758.511067,439.31071 758.362956,439.316406 758.249023,439.316406 C757.223628,439.134114 756.540041,438.775231 756.198242,438.239746 C755.856444,437.704262 755.765299,437.071944 755.924805,436.342773 C756.084311,435.613603 756.443194,434.833175 757.001465,434.001465 C757.559736,433.169755 758.23193,432.372237 759.018066,431.608887 C759.804203,430.845537 760.658687,430.16195 761.581543,429.558105 C762.504399,428.954261 763.404455,428.521323 764.281738,428.259277 C765.159021,427.997232 765.967932,427.940266 766.708496,428.088379 C767.44906,428.236492 768.024412,428.68652 768.43457,429.438477 C768.57129,430.395513 768.57129,431.289872 768.43457,432.121582 C768.297851,432.953292 768.115561,433.7679 767.887695,434.56543 C767.65983,435.36296 767.431967,436.166174 767.204102,436.975098 C766.976236,437.784021 766.839518,438.666987 766.793945,439.624023 L767.101562,439.624023 C767.238282,439.487304 767.471841,439.248049 767.802246,438.90625 C768.132651,438.564451 768.485838,438.205568 768.861816,437.82959 C769.237795,437.453611 769.596678,437.100425 769.938477,436.77002 C770.280275,436.439614 770.519531,436.206055 770.65625,436.069336 C770.72461,436.000976 770.867024,435.909831 771.083496,435.795898 C771.299969,435.681966 771.453776,435.625 771.544922,435.625 L771.544922,435.795898 C771.544922,435.818685 771.556315,435.830078 771.579102,435.830078 C771.579102,436.650395 771.345543,437.40234 770.878418,438.085938 C770.411293,438.769535 769.847334,439.407549 769.186523,440 C768.525713,440.592451 767.842126,441.145017 767.135742,441.657715 C766.429358,442.170413 765.836916,442.666013 765.358398,443.144531 C764.971027,443.942061 764.549481,444.938959 764.09375,446.135254 C763.638019,447.331549 763.136721,448.607578 762.589844,449.963379 C762.042966,451.31918 761.433434,452.697747 760.76123,454.099121 C760.089027,455.500495 759.337081,456.793614 758.505371,457.978516 C757.673661,459.163417 756.756515,460.183101 755.753906,461.037598 C754.751297,461.892094 753.634772,462.44466 752.404297,462.695312 C751.811846,462.695312 751.316245,462.547202 750.91748,462.250977 C750.518715,461.954751 750.205405,461.584475 749.977539,461.140137 C749.749673,460.695799 749.59017,460.205895 749.499023,459.67041 C749.407877,459.134926 749.362305,458.627932 749.362305,458.149414 Z M751.173828,459.995117 C751.356121,460.428062 751.57259,460.690104 751.823242,460.78125 C752.073894,460.872396 752.358722,460.917969 752.677734,460.917969 C753.270185,460.917969 753.919593,460.610355 754.625977,459.995117 C755.33236,459.37988 756.04443,458.588058 756.762207,457.619629 C757.479984,456.6512 758.169268,455.57455 758.830078,454.389648 C759.490889,453.204747 760.077634,452.054042 760.590332,450.9375 C761.10303,449.820958 761.513182,448.801274 761.820801,447.878418 C762.12842,446.955562 762.282227,446.266278 762.282227,445.810547 C762.282227,445.764974 762.27653,445.690918 762.265137,445.588379 C762.253743,445.485839 762.248047,445.411784 762.248047,445.366211 C762.179687,445.411784 762.02588,445.485839 761.786621,445.588379 C761.547362,445.690918 761.404948,445.764974 761.359375,445.810547 C760.402339,446.516931 759.32569,447.297359 758.129395,448.151855 C756.933099,449.006352 755.816574,449.946284 754.779785,450.97168 C753.742996,451.997075 752.871423,453.107904 752.165039,454.304199 C751.458655,455.500494 751.105469,456.793613 751.105469,458.183594 L751.105469,458.55957 C751.105469,458.741863 751.111165,458.924153 751.122559,459.106445 C751.133952,459.288738 751.145345,459.465331 751.156738,459.63623 C751.168132,459.80713 751.173828,459.926757 751.173828,459.995117 Z M766.24707,429.848633 C765.882485,429.848633 765.403974,429.968261 764.811523,430.20752 C764.219073,430.446779 763.586755,430.771482 762.914551,431.181641 C762.242347,431.591799 761.564457,432.058917 760.880859,432.583008 C760.197262,433.107099 759.576337,433.653969 759.018066,434.223633 C758.459795,434.793297 758.009767,435.362953 757.667969,435.932617 C757.32617,436.502281 757.155273,437.026365 757.155273,437.504883 C757.633791,437.504883 758.21484,437.408041 758.898438,437.214355 C759.582035,437.02067 760.294104,436.758628 761.034668,436.428223 C761.775232,436.097817 762.510088,435.710451 763.239258,435.266113 C763.968428,434.821775 764.623532,434.348961 765.20459,433.847656 C765.785647,433.346352 766.258462,432.833661 766.623047,432.30957 C766.987632,431.785479 767.169922,431.272789 767.169922,430.771484 C767.169922,430.156247 766.862308,429.848633 766.24707,429.848633 Z M770.908203,438.291016 C770.908203,437.949217 771.010741,437.46501 771.21582,436.838379 C771.420899,436.211748 771.688638,435.533858 772.019043,434.804688 C772.349448,434.075517 772.725421,433.334965 773.146973,432.583008 C773.568524,431.831051 773.995766,431.147464 774.428711,430.532227 C774.861656,429.916989 775.271808,429.415692 775.65918,429.02832 C776.046551,428.640949 776.388345,428.447266 776.68457,428.447266 C777.322594,428.447266 777.641602,428.75488 777.641602,429.370117 C777.641602,429.643556 777.590333,429.871418 777.487793,430.053711 C777.385253,430.236004 777.265626,430.4069 777.128906,430.566406 C776.992187,430.725912 776.844076,430.879719 776.68457,431.027832 C776.525064,431.175945 776.388347,431.352538 776.274414,431.557617 C776.069335,431.899416 775.818686,432.366533 775.522461,432.958984 C775.226235,433.551435 774.935711,434.126788 774.650879,434.685059 C774.366047,435.24333 774.121095,435.73893 773.916016,436.171875 C773.710936,436.60482 773.608398,436.844075 773.608398,436.889648 L773.608398,437.333984 C774.497075,437.174478 775.351558,436.792809 776.171875,436.188965 C776.992192,435.585121 777.77262,434.873051 778.513184,434.052734 C779.253747,433.232418 779.96012,432.372238 780.632324,431.472168 C781.304528,430.572098 781.936846,429.740401 782.529297,428.977051 C783.121748,428.213701 783.68001,427.581383 784.204102,427.080078 C784.728193,426.578774 785.218097,426.328125 785.673828,426.328125 C785.673828,427.171228 785.502931,427.934567 785.161133,428.618164 C784.819334,429.301761 784.449058,429.973955 784.050293,430.634766 C783.651528,431.295576 783.281252,431.973467 782.939453,432.668457 C782.597655,433.363447 782.426758,434.143876 782.426758,435.009766 C782.426758,435.374351 782.648924,435.699055 783.093262,435.983887 C783.5376,436.268719 784.05029,436.507974 784.631348,436.70166 C785.212405,436.895346 785.776364,437.049153 786.323242,437.163086 C786.87012,437.277019 787.246093,437.345377 787.451172,437.368164 L787.451172,438.256836 C786.927081,438.279623 786.277673,438.285319 785.50293,438.273926 C784.728186,438.262532 783.953454,438.177084 783.178711,438.017578 C782.403967,437.858072 781.703291,437.590334 781.07666,437.214355 C780.450029,436.838377 780.034181,436.285811 779.829102,435.556641 C779.236651,435.944012 778.666995,436.399737 778.120117,436.923828 C777.573239,437.447919 777.00928,437.937823 776.428223,438.393555 C775.847165,438.849286 775.237633,439.236652 774.599609,439.555664 C773.961585,439.874676 773.266605,440.03418 772.514648,440.03418 C772.058917,440.03418 771.677248,439.840497 771.369629,439.453125 C771.06201,439.065753 770.908203,438.678387 770.908203,438.291016 Z M787.258789,438.461914 L787.258789,437.983398 C787.258789,437.869466 787.275879,437.761231 787.310059,437.658691 C787.344238,437.556152 787.395507,437.447917 787.463867,437.333984 C787.532227,437.220052 787.623372,437.071941 787.737305,436.889648 C787.919597,436.570636 788.261391,436.012374 788.762695,435.214844 C789.264,434.417314 789.799476,433.574223 790.369141,432.685547 C790.938805,431.796871 791.479978,430.95378 791.992676,430.15625 L793.069336,428.481445 C793.092123,428.458659 793.154785,428.447266 793.257324,428.447266 L793.71875,428.447266 C793.832683,428.447266 793.901042,428.458659 793.923828,428.481445 C793.946615,428.504232 793.997884,428.561197 794.077637,428.652344 C794.15739,428.74349 794.248535,428.840332 794.351074,428.942871 C794.453614,429.045411 794.544759,429.142252 794.624512,429.233398 C794.704265,429.324545 794.766927,429.370117 794.8125,429.370117 C795.017579,429.370117 795.234048,429.301758 795.461914,429.165039 C795.68978,429.02832 795.923339,428.874513 796.162598,428.703613 C796.401857,428.532714 796.646809,428.378907 796.897461,428.242188 C797.148113,428.105468 797.410155,428.037109 797.683594,428.037109 C797.979819,428.037109 798.253254,428.105468 798.503906,428.242188 C798.754559,428.378907 798.971028,428.549804 799.15332,428.754883 C799.335613,428.959962 799.478027,429.187824 799.580566,429.438477 C799.683106,429.689129 799.734375,429.939777 799.734375,430.19043 C799.734375,430.714521 799.66032,431.215818 799.512207,431.694336 C799.364094,432.172854 799.198894,432.645668 799.016602,433.112793 C798.834309,433.579918 798.669109,434.047035 798.520996,434.51416 C798.372883,434.981285 798.298828,435.465492 798.298828,435.966797 C798.298828,436.468101 798.355794,436.826985 798.469727,437.043457 C798.583659,437.259929 798.902667,437.368164 799.426758,437.368164 C800.041995,437.368164 800.628741,437.277019 801.187012,437.094727 C801.745283,436.912434 802.320635,436.821289 802.913086,436.821289 C802.913086,437.368167 802.747886,437.823891 802.41748,438.188477 C802.087075,438.553062 801.676923,438.843586 801.187012,439.060059 C800.6971,439.276531 800.173017,439.424642 799.614746,439.504395 C799.056475,439.584148 798.549481,439.624023 798.09375,439.624023 C797.22786,439.624023 796.595542,439.379071 796.196777,438.88916 C795.798012,438.399249 795.598633,437.744145 795.598633,436.923828 C795.598633,436.37695 795.695474,435.86426 795.88916,435.385742 C796.082846,434.907224 796.299315,434.440106 796.538574,433.984375 C796.777833,433.528644 796.999999,433.072919 797.205078,432.617188 C797.410157,432.161456 797.512695,431.671552 797.512695,431.147461 C797.512695,431.010742 797.489909,430.828452 797.444336,430.600586 C797.398763,430.37272 797.250652,430.258789 797,430.258789 C796.248043,430.258789 795.570153,430.498044 794.966309,430.976562 C794.362464,431.455081 793.815595,432.058916 793.325684,432.788086 C792.835772,433.517256 792.391441,434.303381 791.992676,435.146484 C791.593911,435.989588 791.217938,436.775712 790.864746,437.504883 C790.511554,438.234053 790.175457,438.837888 789.856445,439.316406 C789.537433,439.794924 789.207033,440.03418 788.865234,440.03418 C788.386716,440.03418 787.99935,439.886069 787.703125,439.589844 C787.4069,439.293618 787.258789,438.917646 787.258789,438.461914 Z M817.212891,437.197266 L818.067383,437.197266 C818.431968,437.197266 818.785155,437.231445 819.126953,437.299805 C819.468752,437.368164 819.764973,437.482096 820.015625,437.641602 C820.266277,437.801108 820.391602,438.051756 820.391602,438.393555 C820.391602,438.894859 820.254884,439.293618 819.981445,439.589844 C819.708006,439.886069 819.320641,440.03418 818.819336,440.03418 L818.443359,440.03418 C818.283853,440.03418 818.112957,440.01709 817.930664,439.98291 C817.748371,439.94873 817.583171,439.897461 817.435059,439.829102 C817.286946,439.760742 817.212891,439.669597 817.212891,439.555664 L817.212891,437.197266 Z M826.236328,437.197266 L827.09082,437.197266 C827.455405,437.197266 827.808592,437.231445 828.150391,437.299805 C828.492189,437.368164 828.78841,437.482096 829.039062,437.641602 C829.289715,437.801108 829.415039,438.051756 829.415039,438.393555 C829.415039,438.894859 829.278322,439.293618 829.004883,439.589844 C828.731444,439.886069 828.344078,440.03418 827.842773,440.03418 L827.466797,440.03418 C827.307291,440.03418 827.136394,440.01709 826.954102,439.98291 C826.771809,439.94873 826.606609,439.897461 826.458496,439.829102 C826.310383,439.760742 826.236328,439.669597 826.236328,439.555664 L826.236328,437.197266 Z M808.189453,437.197266 L809.043945,437.197266 C809.40853,437.197266 809.761717,437.231445 810.103516,437.299805 C810.445314,437.368164 810.741535,437.482096 810.992188,437.641602 C811.24284,437.801108 811.368164,438.051756 811.368164,438.393555 C811.368164,438.894859 811.231447,439.293618 810.958008,439.589844 C810.684569,439.886069 810.297203,440.03418 809.795898,440.03418 L809.419922,440.03418 C809.260416,440.03418 809.089519,440.01709 808.907227,439.98291 C808.724934,439.94873 808.559734,439.897461 808.411621,439.829102 C808.263508,439.760742 808.189453,439.669597 808.189453,439.555664 L808.189453,437.197266 Z" id="hasreallyonlyjustbegun…"></path>
                </g>
            </g>
        </g>
    </g>
</svg>