<svg style="position: absolute; width: 0; height: 0;" width="0" height="0" version="1.1" xmlns="http://www.w3.org/2000/svg" xmlns:xlink="http://www.w3.org/1999/xlink">
<defs>
<symbol id="icon-arrow_link" viewBox="0 0 32 32">
<title>arrow_link</title>
<path class="path1" d="M16 31.635c-8.621 0-15.635-7.014-15.635-15.635s7.014-15.635 15.635-15.635c8.621 0 15.635 7.014 15.635 15.635s-7.014 15.635-15.635 15.635zM16 1.096c-8.183 0-14.904 6.648-14.904 14.904 0 8.183 6.648 14.904 14.904 14.904 8.183 0 14.904-6.648 14.904-14.904s-6.721-14.904-14.904-14.904z"></path>
<path class="path2" d="M13.808 22.21c-0.073 0-0.146 0-0.219 0-0.292-0.073-0.438-0.219-0.511-0.438s-0.073-0.511 0.146-0.658c0.073-0.073 0.073-0.146 0.146-0.146l5.333-5.114-5.333-5.114c-0.146-0.146-0.438-0.438-0.219-0.877 0.073-0.219 0.292-0.365 0.511-0.438s0.438 0 0.658 0.146c0.073 0.073 0.146 0.073 0.146 0.146l5.699 5.553c0.146 0.146 0.365 0.365 0.365 0.658s-0.146 0.438-0.365 0.658l-5.699 5.333c-0.146 0.073-0.292 0.292-0.658 0.292zM19.215 15.708l0.219 0.292-0.146 0.146-5.406 5.187c-0.073 0.073-0.073 0.073-0.146 0.146 0 0 0.073 0 0.146-0.073l5.699-5.553c0.073-0.073 0.073-0.073 0.146-0.146 0 0-0.073-0.073-0.146-0.146l-5.699-5.479c0-0.073 0-0.073 0-0.073-0.073 0 0 0.073 0 0.073l5.772 5.626-0.219 0.292-0.219-0.292z"></path>
</symbol>
<symbol id="icon-arrow" viewBox="0 0 32 32">
<title>arrow</title>
<path fill="#fff" class="path1" d="M16 21.527c0.097-0.097 0.194-0.194 0.388-0.291 4.17-4.17 8.339-8.339 12.509-12.509 0.291-0.291 0.582-0.582 1.067-0.388 0.582 0.194 0.776 0.873 0.388 1.358-0.097 0.097-0.194 0.194-0.291 0.291-4.364 4.364-8.727 8.824-13.091 13.188-0.776 0.776-1.067 0.776-1.842 0-4.461-4.364-8.824-8.824-13.285-13.188-0.194-0.291-0.485-0.582-0.388-1.067 0.194-0.679 0.873-0.873 1.358-0.485 0.097 0.097 0.291 0.194 0.388 0.388 4.17 4.17 8.242 8.339 12.412 12.412 0.097 0.097 0.291 0.194 0.388 0.291z"></path>
</symbol>
<symbol id="icon-close" viewBox="0 0 32 32">
<title>close</title>
<path fill="#fff" class="path1" d="M17.939 16c3.2 3.2 6.497 6.497 9.697 9.697-0.679 0.679-1.261 1.261-1.939 1.939-3.2-3.2-6.497-6.497-9.697-9.697-3.2 3.2-6.497 6.497-9.697 9.697-0.679-0.679-1.261-1.261-1.939-1.939 3.2-3.2 6.497-6.497 9.697-9.697-3.2-3.2-6.497-6.497-9.697-9.697 0.679-0.679 1.261-1.261 1.939-1.939 3.2 3.2 6.497 6.497 9.697 9.697 3.2-3.2 6.497-6.497 9.697-9.697 0.679 0.679 1.261 1.261 1.939 1.939-3.2 3.2-6.497 6.497-9.697 9.697z"></path>
</symbol>
<symbol id="icon-home" viewBox="0 0 32 32">
<title>home</title>
<path fill="#fff" class="path1" d="M7.176 16.679c-0.291 0.194-0.485 0.291-0.679 0.388s-0.388 0.097-0.582-0.097c-0.485-0.679-0.97-1.358-1.455-2.036-0.194-0.291-0.097-0.388 0.194-0.582 1.939-1.261 3.782-2.521 5.721-3.782 1.745-1.164 3.491-2.327 5.236-3.588 0.291-0.194 0.485-0.194 0.776 0 1.552 1.067 3.103 2.133 4.752 3.2 0.097 0.097 0.194 0.097 0.291 0.194 0-0.097 0-0.194 0-0.291 0-0.97 0-1.842 0-2.812 0-0.388 0.097-0.485 0.485-0.485 0.776 0 1.552 0 2.327 0 0.388 0 0.485 0.097 0.485 0.485 0 1.745 0 3.394 0 5.139 0 0.194 0.097 0.388 0.194 0.485 0.776 0.485 1.552 1.067 2.327 1.552 0.291 0.194 0.388 0.388 0.097 0.679-0.485 0.582-0.873 1.261-1.358 1.842-0.194 0.291-0.388 0.291-0.679 0.097-0.194-0.097-0.291-0.194-0.485-0.291 0 0 0 0-0.097 0 0 0.097 0 0.291 0 0.388 0 3.2 0 4.364 0 7.564 0 0.485-0.097 0.582-0.582 0.582-1.842 0-3.685 0-5.43 0-0.388 0-0.485-0.097-0.485-0.485 0-2.327 0-2.618 0-5.042 0-0.097 0-0.291 0-0.388-1.455 0-3.006 0-4.558 0 0 0.097 0 0.194 0 0.388 0 2.424 0 2.618 0 5.042 0 0.388-0.097 0.485-0.485 0.485-1.842 0-3.685 0-5.527 0-0.485 0-0.485-0.097-0.485-0.485 0-3.2 0-4.364 0-7.564 0-0.291 0-0.388 0-0.582z"></path>
</symbol>
<symbol id="icon-menu" viewBox="0 0 32 32">
<title>menu</title>
<path fill="#fff" class="path1" d="M0 17.358c0-0.873 0-1.842 0-2.812 10.667 0 21.333 0 32 0 0 0.97 0 1.842 0 2.812-10.667 0-21.333 0-32 0zM0 4.364c10.667 0 21.333 0 32 0 0 0.97 0 1.842 0 2.812-10.667 0-21.333 0-32 0 0-0.873 0-1.842 0-2.812zM32 27.636c-10.667 0-21.333 0-32 0 0-0.97 0-1.842 0-2.812 10.667 0 21.333 0 32 0 0 0.97 0 1.842 0 2.812z"></path>
</symbol>
<symbol id="icon-social_facebook" viewBox="0 0 32 32">
<title>social_facebook</title>
<path class="path1" d="M10.549 12.683h2.197v-2.133c0-0.939 0.021-2.389 0.704-3.285 0.715-0.949 1.707-1.6 3.413-1.6 2.773 0 3.936 0.395 3.936 0.395l-0.544 3.253c0 0-0.917-0.267-1.771-0.267s-1.621 0.309-1.621 1.163v2.475h3.499l-0.245 3.179h-3.253v11.040h-4.117v-11.040h-2.197v-3.179z"></path>
</symbol>
<symbol id="icon-social_linkedin" viewBox="0 0 32 32">
<title>social_linkedin</title>
<path class="path1" d="M21.28 5.451h-10.688c-2.944 0-5.344 2.4-5.344 5.344v10.763c0 2.944 2.4 5.344 5.344 5.344h10.688c2.944 0 5.344-2.4 5.344-5.344v-10.763c-0.011-2.955-2.4-5.344-5.344-5.344zM12.139 22.805h-2.965v-8.949h2.976v8.949zM10.656 12.629h-0.021c-1.003 0-1.643-0.683-1.643-1.547 0-0.875 0.661-1.547 1.685-1.547 1.013 0 1.643 0.672 1.664 1.547 0 0.864-0.651 1.547-1.685 1.547zM22.869 22.805h-2.976v-4.789c0-1.205-0.427-2.027-1.504-2.027-0.821 0-1.312 0.555-1.525 1.088-0.075 0.192-0.096 0.459-0.096 0.725v5.003h-2.976c0 0 0.043-8.107 0-8.949h2.976v1.269c0.395-0.608 1.099-1.483 2.677-1.483 1.963 0 3.424 1.28 3.424 4.032v5.131z"></path>
</symbol>
<symbol id="icon-social_twitter" viewBox="0 0 32 32">
<title>social_twitter</title>
<path class="path1" d="M26.667 9.387c-0.789 0.352-1.632 0.587-2.517 0.693 0.907-0.544 1.6-1.397 1.92-2.421-0.843 0.501-1.781 0.864-2.784 1.067-0.8-0.853-1.931-1.387-3.2-1.387-2.421 0-4.373 1.963-4.373 4.373 0 0.341 0.043 0.672 0.117 1.003-3.637-0.181-6.859-1.92-9.024-4.576-0.373 0.651-0.597 1.397-0.597 2.197 0 1.515 0.768 2.859 1.952 3.648-0.715-0.021-1.397-0.224-1.984-0.544 0 0.021 0 0.032 0 0.053 0 2.123 1.504 3.893 3.509 4.288-0.363 0.096-0.757 0.149-1.152 0.149-0.277 0-0.555-0.032-0.821-0.075 0.555 1.739 2.176 3.008 4.085 3.040-1.493 1.173-3.381 1.877-5.44 1.877-0.352 0-0.704-0.021-1.045-0.064 1.941 1.237 4.235 1.963 6.709 1.963 8.053 0 12.448-6.667 12.448-12.448 0-0.192 0-0.373-0.011-0.565 0.875-0.629 1.621-1.397 2.208-2.272z"></path>
</symbol>
<symbol id="icon-social_vimeo" viewBox="0 0 32 32">
<title>social_vimeo</title>
<path class="path1" d="M27.829 8.917c0 0.384 0 0.779 0 1.163-0.075 0.32-0.16 0.651-0.224 0.971-0.629 3.136-2.091 5.877-4.032 8.363-2.325 2.987-4.843 5.792-8.277 7.573-0.341 0-0.683 0-1.024 0-1.92-0.683-2.987-2.112-3.541-4.011-0.16-0.555-0.363-1.099-0.544-1.653-0.928-2.901-1.835-5.813-2.795-8.704-0.309-0.928-0.704-1.067-1.611-0.672-0.501 0.224-0.96 0.512-1.429 0.768-0.363-0.416-0.693-0.8-1.024-1.173 0-0.053 0-0.096 0-0.149 0.384-0.395 0.757-0.811 1.152-1.195 1.579-1.589 3.179-3.157 5.28-4.043 1.76-0.747 2.923-0.299 3.595 1.483 0.427 1.12 0.619 2.336 0.907 3.509 0.576 2.325 1.088 4.672 1.749 6.965 0.363 1.237 0.981 1.344 1.749 0.288 0.992-1.365 1.856-2.827 2.667-4.309 0.267-0.491 0.277-1.184 0.235-1.76-0.075-1.067-0.971-1.653-2.016-1.419-0.416 0.096-0.821 0.267-1.227 0.395 0.203-2.4 2.4-4.768 5.077-5.451 0.416-0.107 0.832-0.192 1.248-0.288 0.149 0 0.288 0 0.437 0 0.181 0.043 0.363 0.107 0.544 0.139 1.536 0.213 2.613 1.184 2.944 2.677 0.043 0.181 0.107 0.352 0.16 0.533z"></path>
</symbol>
</defs>
</svg>
