<?xml version="1.0" encoding="UTF-8"?>
<svg width="526px" height="187px" viewBox="0 0 526 187" version="1.1" xmlns="http://www.w3.org/2000/svg" xmlns:xlink="http://www.w3.org/1999/xlink">
    <!-- Generator: Sketch 53.2 (72643) - https://sketchapp.com -->
    <title>2012</title>
    <desc>Created with Sketch.</desc>
    <g id="Page-1" stroke="none" stroke-width="1" fill="none" fill-rule="evenodd" fill-opacity="0">
        <g id="home_desktop-2of2" transform="translate(-75.000000, -1262.000000)" fill="#FFFFFF" fill-rule="nonzero" stroke="#BBBBBB" stroke-width="2.5">
            <g id="Section-19---2012-The-Great-Britain-Campaign" transform="translate(0.000000, 893.000000)">
                <g id="Bitmap" transform="translate(66.000000, 0.000000)">
                    <path d="M137.046,527.338 L137.046,553 L14.742,553 L23.751,543.991 C42.3150928,525.426907 56.7839481,510.412057 67.158,498.946 C77.5320519,487.479943 86.222465,475.877559 93.2295,464.1385 C100.236535,452.399441 103.74,441.252053 103.74,430.696 C103.74,419.593944 100.464033,411.131029 93.912,405.307 C87.3599672,399.482971 79.3520473,396.571 69.888,396.571 C62.4259627,396.571 56.192525,398.117985 51.1875,401.212 C46.182475,404.306015 42.5425114,408.218976 40.2675,412.951 C37.9924886,417.683024 36.855,422.414976 36.855,427.147 C36.855,438.795058 40.4039645,448.349963 47.502,455.812 L31.395,470.554 C25.38897,466.913982 20.5205187,460.771543 16.7895,452.1265 C13.0584813,443.481457 11.193,435.337038 11.193,427.693 C11.193,417.68295 13.695475,408.355543 18.7005,399.7105 C23.705525,391.065457 30.9399527,384.149526 40.404,378.9625 C49.8680473,373.775474 61.1519345,371.182 74.256,371.182 C85.3580555,371.182 95.2314568,373.775474 103.8765,378.9625 C112.521543,384.149526 119.209976,391.110956 123.942,399.847 C128.674024,408.583044 131.04,418.137948 131.04,428.512 C131.04,438.886052 128.583025,449.259948 123.669,459.634 C118.754975,470.008052 112.703536,479.744955 105.5145,488.845 C98.3254641,497.945045 88.7250601,509.228933 76.713,522.697 L72.618,527.338 L137.046,527.338 Z M229.608826,553.819 C214.866752,553.819 201.808383,550.133537 190.433326,542.7625 C179.058269,535.391463 170.185858,524.790069 163.815826,510.958 C157.445794,497.125931 154.260826,480.928093 154.260826,462.364 C154.260826,432.697852 160.949259,410.084578 174.326326,394.5235 C187.703393,378.962422 206.130709,371.272999 229.608826,371.455 C244.3509,371.455 257.409269,375.094964 268.784326,382.375 C280.159383,389.655036 289.031794,400.210931 295.401826,414.043 C301.771858,427.875069 304.956826,443.981908 304.956826,462.364 C304.956826,481.292095 301.771858,497.671931 295.401826,511.504 C289.031794,525.336069 280.159383,535.891964 268.784326,543.172 C257.409269,550.452036 244.3509,554.001001 229.608826,553.819 Z M229.335826,528.43 C244.805903,528.43 256.681285,522.42406 264.962326,510.412 C273.243367,498.39994 277.474825,482.202102 277.656826,461.818 C277.474825,441.979901 273.243367,426.191559 264.962326,414.4525 C256.681285,402.713441 244.805903,396.844 229.335826,396.844 C214.04775,396.844 202.308867,402.758941 194.118826,414.589 C185.928785,426.419059 181.742827,442.3439 181.560826,462.364 C181.742827,482.566101 185.928785,498.62744 194.118826,510.5485 C202.308867,522.46956 214.04775,528.43 229.335826,528.43 Z M372.130652,373.366 L372.130652,553 L345.376652,553 L345.376652,398.755 L324.901652,398.755 L324.901652,373.366 L372.130652,373.366 Z M533.216478,527.338 L533.216478,553 L410.912478,553 L419.921478,543.991 C438.485571,525.426907 452.954426,510.412057 463.328478,498.946 C473.70253,487.479943 482.392943,475.877559 489.399978,464.1385 C496.407013,452.399441 499.910478,441.252053 499.910478,430.696 C499.910478,419.593944 496.634511,411.131029 490.082478,405.307 C483.530445,399.482971 475.522525,396.571 466.058478,396.571 C458.596441,396.571 452.363003,398.117985 447.357978,401.212 C442.352953,404.306015 438.712989,408.218976 436.437978,412.951 C434.162967,417.683024 433.025478,422.414976 433.025478,427.147 C433.025478,438.795058 436.574443,448.349963 443.672478,455.812 L427.565478,470.554 C421.559448,466.913982 416.690997,460.771543 412.959978,452.1265 C409.228959,443.481457 407.363478,435.337038 407.363478,427.693 C407.363478,417.68295 409.865953,408.355543 414.870978,399.7105 C419.876003,391.065457 427.110431,384.149526 436.574478,378.9625 C446.038525,373.775474 457.322412,371.182 470.426478,371.182 C481.528534,371.182 491.401935,373.775474 500.046978,378.9625 C508.692021,384.149526 515.380454,391.110956 520.112478,399.847 C524.844502,408.583044 527.210478,418.137948 527.210478,428.512 C527.210478,438.886052 524.753503,449.259948 519.839478,459.634 C514.925453,470.008052 508.874014,479.744955 501.684978,488.845 C494.495942,497.945045 484.895538,509.228933 472.883478,522.697 L468.788478,527.338 L533.216478,527.338 Z" id="2012"></path>
                </g>
            </g>
        </g>
    </g>
</svg>